<svg id="Calque_1" data-name="Calque 1" xmlns="http://www.w3.org/2000/svg" xmlns:xlink="http://www.w3.org/1999/xlink" viewBox="0 0 83 79"><defs><linearGradient id="Dégradé_sans_nom" x1="46.82" y1="759.84" x2="30.97" y2="810.8" gradientTransform="translate(0 -749.78)" gradientUnits="userSpaceOnUse"><stop offset="0" stop-color="#0088cf"/><stop offset="1" stop-color="#133b65"/></linearGradient><linearGradient id="Dégradé_sans_nom_2" x1="20.28" y1="751.59" x2="4.43" y2="802.54" xlink:href="#Dégradé_sans_nom"/><linearGradient id="Dégradé_sans_nom_3" x1="77.05" y1="769.24" x2="61.2" y2="820.2" xlink:href="#Dégradé_sans_nom"/><linearGradient id="Dégradé_sans_nom_4" x1="50.7" y1="761.05" x2="34.86" y2="812" xlink:href="#Dégradé_sans_nom"/><linearGradient id="Dégradé_sans_nom_5" x1="46.67" y1="759.8" x2="30.82" y2="810.75" xlink:href="#Dégradé_sans_nom"/><linearGradient id="Dégradé_sans_nom_6" x1="62.27" y1="764.65" x2="46.42" y2="815.6" xlink:href="#Dégradé_sans_nom"/><linearGradient id="Dégradé_sans_nom_7" x1="21.13" y1="751.86" x2="5.29" y2="802.81" xlink:href="#Dégradé_sans_nom"/><linearGradient id="Dégradé_sans_nom_8" x1="51.42" y1="761.28" x2="35.55" y2="812.23" xlink:href="#Dégradé_sans_nom"/><linearGradient id="Dégradé_sans_nom_9" x1="46.69" y1="759.82" x2="30.85" y2="810.77" xlink:href="#Dégradé_sans_nom"/><linearGradient id="Dégradé_sans_nom_10" x1="55.45" y1="762.53" x2="39.58" y2="813.48" xlink:href="#Dégradé_sans_nom"/><linearGradient id="Dégradé_sans_nom_11" x1="66.98" y1="766.11" x2="51.11" y2="817.07" xlink:href="#Dégradé_sans_nom"/><linearGradient id="Dégradé_sans_nom_12" x1="16.73" y1="750.48" x2="0.88" y2="801.43" xlink:href="#Dégradé_sans_nom"/><linearGradient id="Dégradé_sans_nom_13" x1="25.86" y1="753.34" x2="10.01" y2="804.27" xlink:href="#Dégradé_sans_nom"/><linearGradient id="Dégradé_sans_nom_14" x1="42" y1="758.36" x2="26.15" y2="809.3" xlink:href="#Dégradé_sans_nom"/><linearGradient id="Dégradé_sans_nom_15" x1="30.6" y1="754.8" x2="14.74" y2="805.75" xlink:href="#Dégradé_sans_nom"/><linearGradient id="Dégradé_sans_nom_16" x1="27.49" y1="753.83" x2="11.64" y2="804.78" xlink:href="#Dégradé_sans_nom"/><linearGradient id="Dégradé_sans_nom_17" x1="32.19" y1="755.29" x2="16.34" y2="806.24" xlink:href="#Dégradé_sans_nom"/><linearGradient id="Dégradé_sans_nom_18" x1="73.19" y1="768.07" x2="57.35" y2="819.02" xlink:href="#Dégradé_sans_nom"/><linearGradient id="Dégradé_sans_nom_19" x1="41.97" y1="758.34" x2="26.13" y2="809.29" xlink:href="#Dégradé_sans_nom"/><linearGradient id="Dégradé_sans_nom_20" x1="20.7" y1="751.73" x2="4.86" y2="802.68" xlink:href="#Dégradé_sans_nom"/><linearGradient id="Dégradé_sans_nom_21" x1="76.57" y1="769.12" x2="60.72" y2="820.05" xlink:href="#Dégradé_sans_nom"/><linearGradient id="Dégradé_sans_nom_22" x1="46.01" y1="759.59" x2="30.17" y2="810.55" xlink:href="#Dégradé_sans_nom"/><linearGradient id="Dégradé_sans_nom_23" x1="65.29" y1="765.6" x2="49.45" y2="816.56" xlink:href="#Dégradé_sans_nom"/><linearGradient id="Dégradé_sans_nom_24" x1="45.97" y1="759.59" x2="30.13" y2="810.55" xlink:href="#Dégradé_sans_nom"/><linearGradient id="Dégradé_sans_nom_25" x1="71.2" y1="767.43" x2="55.36" y2="818.38" xlink:href="#Dégradé_sans_nom"/><linearGradient id="Dégradé_sans_nom_26" x1="60.56" y1="764.12" x2="44.71" y2="815.07" xlink:href="#Dégradé_sans_nom"/><linearGradient id="Dégradé_sans_nom_27" x1="50.74" y1="761.07" x2="34.89" y2="812.02" xlink:href="#Dégradé_sans_nom"/><linearGradient id="Dégradé_sans_nom_28" x1="19.02" y1="751.2" x2="3.15" y2="802.14" xlink:href="#Dégradé_sans_nom"/><linearGradient id="Dégradé_sans_nom_29" x1="22.98" y1="752.43" x2="7.13" y2="803.38" xlink:href="#Dégradé_sans_nom"/><linearGradient id="Dégradé_sans_nom_30" x1="72.7" y1="767.91" x2="56.86" y2="818.86" xlink:href="#Dégradé_sans_nom"/><linearGradient id="Dégradé_sans_nom_31" x1="74.29" y1="768.38" x2="58.42" y2="819.34" xlink:href="#Dégradé_sans_nom"/><linearGradient id="Dégradé_sans_nom_32" x1="41.28" y1="758.13" x2="25.42" y2="809.08" xlink:href="#Dégradé_sans_nom"/><linearGradient id="Dégradé_sans_nom_33" x1="41.33" y1="758.13" x2="25.46" y2="809.09" xlink:href="#Dégradé_sans_nom"/><linearGradient id="Dégradé_sans_nom_34" x1="65.26" y1="765.59" x2="49.41" y2="816.54" xlink:href="#Dégradé_sans_nom"/><linearGradient id="Dégradé_sans_nom_35" x1="46.04" y1="759.61" x2="30.2" y2="810.56" xlink:href="#Dégradé_sans_nom"/><linearGradient id="Dégradé_sans_nom_36" x1="36.59" y1="756.67" x2="20.74" y2="807.61" xlink:href="#Dégradé_sans_nom"/></defs><title>loan</title><g id="Calque_2" data-name="Calque 2"><g id="Calque_1-2" data-name="Calque 1-2"><path d="M56.62,14.15c-3.24-1.25-7.15-2.52-11.37-3.68C42,9.6,39,8.88,36.19,8.35c-7.71-1.48-13.27-1.67-13.72-.21-.17.64.66,1.52,2.27,2.5A80,80,0,0,0,43.32,17.7c9.14,2.48,17.21,3.68,20.85,3.24,1.14-.15,1.9-.44,1.9-.93C66.42,18.72,62.63,16.48,56.62,14.15Z" style="fill:none"/><path d="M37.06,76.1h.72l-1.14-.36Z" style="fill:#fff"/><path d="M71.79,20.79c1.16-3.94-10.27-10.48-25.55-14.65S17.65,1.81,16.48,5.76c-.45,1.59,1.12,3.58,4.17,5.69L20.3,12l-.68.89h0l-.19.25,4.11,3.39-5.84-1.74-.27.23-1,.64,1.9,1.52,5.25-.64,4.09,3.39,4.11,3.47,4.11,3.47L26.41,24l4.11,3.49L21,24.62l4.08,3.62-9.48-2.84,4.11,3.47L10.28,26l5.36-.63L21,24.77l-9.48-2.84L17,21.28l5.35-.63L27.66,20l-9.48-2.84,4.09,3.47-9-2.65-.13.13,3.79,3.24-5.69-1.71c-.4.34-.8.68-1.18,1.06l1.52,1.27,4.06,3.43L7.87,23a20.85,20.85,0,0,0-2.09,3.49,31.85,31.85,0,0,0-1.71,4.19,34.27,34.27,0,0,0-1.67,8.08v1.67l1.71-.19h0l5.35-.63L13.56,43l4.11,3.41,4.11,3.47,4.09,3.54L16.4,50.6l4.11,3.49L11,51.25l4.11,3.47L5.67,51.87l4.09,3.47-5.1-1.54a33.85,33.85,0,0,0,7.2,11.37q.66.68,1.36,1.33h.32L17.73,70h0L23,69.39l-9.48-2.84,5.35-.63,5.35-.63,5.35-.63,4.11,3.47,4.11,3.47L42,75.08l-9.48-2.84,4.11,3.47-9.48-2.84L30,75.25a33,33,0,0,0,4.32.64h0l2.18-.27L41.88,75l.61.51a33.34,33.34,0,0,0,11.87-4.23c1-.59,1.9-1.19,2.86-1.9L51,67.49l5.33-.63,4.61-.45.27-.25-8.83-2.6,5.33-.63L48.23,60.1l4.15,3.47L56.49,67,47,64.2l5.36-.63L42.9,60.73l5.31-.64-9.48-2.84,5.35-.64L49.46,56l5.35-.63,5.35-.63,4.09,3.47h0l2,1.72A44.38,44.38,0,0,0,68.53,56a27,27,0,0,0,1.71-4.45l.13-.44A31.56,31.56,0,0,0,71.64,42l-8.49-2.56,4.09,3.47-9.48-2.84,5.35-.63L53.63,36.6,59,36l-9.48-2.84,5.35-.63-9.48-2.84L50.78,29l5.35-.63,5.27-.55,4.11,3.47,4.09,3.47H70v-.28l-.51-1.33h0l-.27-.68-3.56-1.08L68.53,31c-.19-.44-.4-.85-.55-1.18l-6.48-1.9,5.36-.78a11.37,11.37,0,0,1-.32-1.35,15.16,15.16,0,0,1-.27-1.9v-.44C69.34,23.1,71.35,22.17,71.79,20.79ZM46.61,41.13l4.11,3.56,4.11,3.47-9.48-2.84,4.11,3.39L40,45.87l4.08,3.37L34.6,46.4l4.11,3.47L29.23,47l5.36-.63-9.48-2.84,5.35-.63L21,40.08l5.35-.63-9.48-2.84L22.2,36l5.35-.55,5.35-.63,5.5-.64,4.11,3.47ZM64.11,21c-3.62.44-11.7-.76-20.85-3.24a80,80,0,0,1-18.58-7.05c-1.61-1-2.45-1.9-2.27-2.5.4-1.46,6-1.27,13.72.21C38.92,9,42,9.68,45.19,10.55a119,119,0,0,1,11.37,3.68c6,2.31,9.8,4.57,9.48,5.88-.09.4-.78.7-1.93.83Z" style="fill:url(#Dégradé_sans_nom)"/><path d="M2.51,44.25a.49.49,0,0,0,0,.15h.34Z" style="fill:#052550"/><path d="M5.73,51.91h0l-1.9-.55.23.76,1.63-.19Z" style="fill:url(#Dégradé_sans_nom_2)"/><path d="M64,63.17v-.11l.25-.34L63,62.32Z" style="fill:url(#Dégradé_sans_nom_3)"/><polygon points="41.27 41.68 46.61 41.05 37.16 38.19 41.27 41.68" style="fill:url(#Dégradé_sans_nom_4)"/><polygon points="33.76 68.16 24.3 65.3 28.42 68.78 33.76 68.16" style="fill:url(#Dégradé_sans_nom_5)"/><polygon points="44.11 56.61 48.23 60.08 53.57 59.46 44.11 56.61" style="fill:url(#Dégradé_sans_nom_6)"/><polygon points="8.19 43.72 8.19 43.72 13.54 43.1 4.1 40.26 8.19 43.72" style="fill:url(#Dégradé_sans_nom_7)"/><polygon points="32.51 72.25 37.86 71.63 28.42 68.78 32.51 72.25" style="fill:url(#Dégradé_sans_nom_8)"/><polygon points="27.18 72.86 27.18 72.88 32.51 72.25 23.07 69.39 27.17 72.88 27.18 72.86" style="fill:url(#Dégradé_sans_nom_9)"/><polygon points="45.38 45.15 50.73 44.52 41.27 41.68 45.38 45.15" style="fill:url(#Dégradé_sans_nom_10)"/><polygon points="58.92 58.83 49.46 55.99 53.57 59.46 58.92 58.83" style="fill:url(#Dégradé_sans_nom_11)"/><path d="M9.46,21.26q-.51.49-1,1l3.17-.42Z" style="fill:url(#Dégradé_sans_nom_12)"/><polygon points="12.3 47.19 17.65 46.57 8.19 43.72 12.3 47.19" style="fill:url(#Dégradé_sans_nom_13)"/><path d="M17.73,70l.34.28a33.38,33.38,0,0,0,5.46,3.05h0l3.62-.44Z" style="fill:url(#Dégradé_sans_nom_14)"/><polygon points="16.4 50.68 21.75 50.05 12.3 47.19 16.4 50.68" style="fill:url(#Dégradé_sans_nom_15)"/><polygon points="21.08 24.77 26.41 24.14 16.97 21.28 21.08 24.77" style="fill:url(#Dégradé_sans_nom_16)"/><polygon points="26.41 24.14 31.75 23.52 22.31 20.67 26.41 24.14" style="fill:url(#Dégradé_sans_nom_17)"/><path d="M58.4,68.73a11.37,11.37,0,0,0,1-.8l-3-.89Z" style="fill:url(#Dégradé_sans_nom_18)"/><polygon points="18.96 65.92 23.07 69.39 28.42 68.78 18.96 65.92" style="fill:url(#Dégradé_sans_nom_19)"/><path d="M18.2,17.19h0l-2.75-.83c-.55.38-1.19.85-1.9,1.38Z" style="fill:url(#Dégradé_sans_nom_20)"/><path d="M71.65,41.49a11.37,11.37,0,0,0-.13-1.76l-3-.91Z" style="fill:url(#Dégradé_sans_nom_21)"/><polygon points="35.92 42.3 41.27 41.68 31.83 38.81 35.92 42.3" style="fill:url(#Dégradé_sans_nom_22)"/><polygon points="54.94 32.5 59.05 35.97 64.39 35.35 54.94 32.5" style="fill:url(#Dégradé_sans_nom_23)"/><polygon points="42.5 37.58 33.06 34.72 37.16 38.19 42.5 37.58" style="fill:url(#Dégradé_sans_nom_24)"/><path d="M69.72,34.72l-9.48-2.84,4.11,3.47,4.17,3.47L59,36l4.11,3.47h0l5.33-.63,2.77-.32h0l-.34-1.16-6.56-1.9Z" style="fill:url(#Dégradé_sans_nom_25)"/><polygon points="50.82 29.02 54.94 32.5 60.28 31.88 50.82 29.02" style="fill:url(#Dégradé_sans_nom_26)"/><polygon points="40.04 45.77 45.38 45.15 35.92 42.3 40.04 45.77" style="fill:url(#Dégradé_sans_nom_27)"/><path d="M2.79,46.51a5.57,5.57,0,0,0,0,.64L3,48.22l3.79-.45Z" style="fill:url(#Dégradé_sans_nom_28)"/><path d="M11.05,51.29l5.35-.68L6.92,47.76l5.35-.63L2.79,44.29l5.33-.63L2.43,41.9A15.16,15.16,0,0,0,2.52,44l.36.3L7,47.74l4.11,3.47L3.26,48.86,3.53,50l2.24,1.9Z" style="fill:url(#Dégradé_sans_nom_29)"/><path d="M64.24,58.19l-9.48-2.84,4.11,3.47L63,62.3l-9.48-2.84,4.09,3.47h0L63,62.3l1.9-.21a14.86,14.86,0,0,0,.85-1.23l-6.77-2Z" style="fill:url(#Dégradé_sans_nom_30)"/><path d="M61.42,66.11c.49-.47,1-.95,1.42-1.46v-.11l-5.25-1.59Z" style="fill:url(#Dégradé_sans_nom_31)"/><polygon points="37.16 38.19 27.72 35.35 31.83 38.81 37.16 38.19" style="fill:url(#Dégradé_sans_nom_32)"/><polygon points="26.48 39.44 30.58 42.93 35.92 42.3 26.48 39.44" style="fill:url(#Dégradé_sans_nom_33)"/><polygon points="65.63 31.25 56.17 28.39 60.28 31.88 65.63 31.25" style="fill:url(#Dégradé_sans_nom_34)"/><polygon points="34.69 46.4 40.04 45.77 30.58 42.93 34.69 46.4" style="fill:url(#Dégradé_sans_nom_35)"/><polygon points="22.37 35.97 26.48 39.44 31.83 38.81 22.37 35.97" style="fill:url(#Dégradé_sans_nom_36)"/><polygon points="38.41 34.09 33.06 34.72 42.5 37.58 38.41 34.09" style="fill:#fff"/><polygon points="38.8 49.87 34.69 46.4 29.35 47.02 38.8 49.87" style="fill:#fff"/><polygon points="33.06 34.72 27.72 35.35 37.16 38.19 33.06 34.72" style="fill:#fff"/><polygon points="37.16 38.19 46.61 41.05 42.5 37.58 37.16 38.19" style="fill:#fff"/><polygon points="25.23 43.53 34.69 46.4 30.58 42.93 25.23 43.53" style="fill:#fff"/><polygon points="44.15 49.24 40.04 45.77 34.69 46.4 44.15 49.24" style="fill:#fff"/><polygon points="27.72 35.35 22.37 35.97 31.83 38.81 27.72 35.35" style="fill:#fff"/><polygon points="41.27 41.68 37.16 38.19 31.83 38.81 41.27 41.68" style="fill:#fff"/><polygon points="50.73 44.52 46.61 41.05 41.27 41.68 50.73 44.52" style="fill:#fff"/><polygon points="21.14 40.07 30.58 42.93 26.48 39.44 21.14 40.07" style="fill:#fff"/><polygon points="30.58 42.93 40.04 45.77 35.92 42.3 30.58 42.93" style="fill:#fff"/><polygon points="49.5 48.61 45.38 45.15 40.04 45.77 49.5 48.61" style="fill:#fff"/><polygon points="17.02 36.6 26.48 39.44 22.37 35.97 17.02 36.6" style="fill:#fff"/><polygon points="31.83 38.81 26.48 39.44 35.92 42.3 31.83 38.81" style="fill:#fff"/><polygon points="35.92 42.3 45.38 45.15 41.27 41.68 35.92 42.3" style="fill:#fff"/><polygon points="54.82 48.01 50.73 44.52 45.38 45.15 54.82 48.01" style="fill:#fff"/><path d="M68,29.75c-.45-.93-.76-1.46-.76-1.46a8.78,8.78,0,0,1-.4-1.12l-5.35.63Z" style="fill:#fff"/><polygon points="61.51 27.78 56.17 28.39 65.63 31.25 61.51 27.78" style="fill:#fff"/><path d="M69.19,32.33c-.21-.51-.44-1-.63-1.42l-2.94.34Z" style="fill:#fff"/><polygon points="53.7 36.6 63.14 39.44 59.05 35.97 53.7 36.6" style="fill:#fff"/><path d="M63.16,39.44h0l-5.35.63,9.48,2.84L63.2,39.44,71.69,42v-.28a1.27,1.27,0,0,0,0-.23h0l-3.17-2.67Z" style="fill:#fff"/><polygon points="56.17 28.39 50.82 29.02 60.28 31.88 56.17 28.39" style="fill:#fff"/><path d="M69.72,34.72l-4.09-3.47-5.35.63,9.48,2.84-5.33.63L71,37.24v-.3c-.11-.4-.25-.8-.38-1.19l-.19-.59a4.57,4.57,0,0,0-.19-.57Z" style="fill:#fff"/><polygon points="49.59 33.13 59.05 35.97 54.94 32.5 49.59 33.13" style="fill:#fff"/><polygon points="64.39 35.35 59.05 35.97 68.49 38.81 64.39 35.35" style="fill:#fff"/><path d="M71.52,39.74a8.36,8.36,0,0,0-.27-1.23l-2.73.32Z" style="fill:#fff"/><polygon points="45.48 29.64 54.94 32.5 50.82 29.02 45.48 29.64" style="fill:#fff"/><polygon points="60.28 31.88 54.94 32.5 64.39 35.35 60.28 31.88" style="fill:#fff"/><path d="M19.43,13.09h0l-.19.17a11.85,11.85,0,0,1-1.57,1.55l5.84,1.76Z" style="fill:#fff"/><polygon points="19.83 28.86 15.74 25.39 10.39 26 19.83 28.86" style="fill:#fff"/><path d="M11.66,21.87l-3.17.3h0l-.63.76,7.73,2.45Z" style="fill:#fff"/><polygon points="25.18 28.24 21.08 24.77 15.74 25.39 25.18 28.24" style="fill:#fff"/><path d="M18.2,17.19,27.68,20l-4.13-3.54-5.35.63-1.8-1.52-1,.68,2.79.83h0l-4.64.63h-.11l-.15.11,9,2.71Z" style="fill:#fff"/><polygon points="31.75 23.52 27.66 20.05 22.31 20.67 31.75 23.52" style="fill:#fff"/><path d="M10.11,20.64a6.65,6.65,0,0,0-.64.63l2.16.61Z" style="fill:#fff"/><polygon points="11.62 21.91 21.08 24.77 16.97 21.28 11.62 21.91" style="fill:#fff"/><polygon points="30.52 27.61 26.41 24.14 21.08 24.77 30.52 27.61" style="fill:#fff"/><path d="M13.14,18.08,12,19l-.72.61L17,21.32Z" style="fill:#fff"/><polygon points="16.97 21.28 26.41 24.14 22.31 20.67 16.97 21.28" style="fill:#fff"/><polygon points="35.87 26.99 31.75 23.52 26.41 24.14 35.87 26.99" style="fill:#fff"/><path d="M51.11,67.66l6.2,1.9,1.1-.82-1.9-1.67Z" style="fill:#fff"/><polygon points="54.8 55.36 49.46 55.99 58.92 58.83 54.8 55.36" style="fill:#fff"/><path d="M64.26,58.19l-4.09-3.47-5.35.63,9.48,2.84L59,58.83l6.75,2a9.12,9.12,0,0,0,.51-.78v-.17l-2-1.74Z" style="fill:#fff"/><polygon points="56.43 67.04 52.34 63.57 46.99 64.18 56.43 67.04" style="fill:#fff"/><path d="M59.39,67.93c.55-.44,1.1-.93,1.61-1.42L56.43,67Z" style="fill:#fff"/><polygon points="49.46 55.99 44.11 56.61 53.57 59.46 49.46 55.99" style="fill:#fff"/><polygon points="63.03 62.32 58.92 58.83 53.57 59.46 63.03 62.32" style="fill:#fff"/><path d="M64.38,62.72c.15-.21.3-.4.44-.61l-1.9.21Z" style="fill:#fff"/><polygon points="52.34 63.57 48.23 60.08 42.88 60.71 52.34 63.57" style="fill:#fff"/><path d="M57.67,62.93l-4.11-3.47-5.35.63,9.48,2.84-5.35.64,8.93,2.71.15-.15L57.63,63Z" style="fill:#fff"/><polygon points="38.77 57.24 48.23 60.08 44.11 56.61 38.77 57.24" style="fill:#fff"/><path d="M57.68,62.93l5.25,1.59h0c.36-.4.68-.82,1-1.25L63,62.41Z" style="fill:#fff"/><polygon points="29.65 64.67 24.3 65.3 33.76 68.16 29.65 64.67" style="fill:#fff"/><polygon points="24.3 65.3 18.96 65.92 28.42 68.78 24.3 65.3" style="fill:#fff"/><polygon points="37.86 71.63 33.76 68.16 28.42 68.78 37.86 71.63" style="fill:#fff"/><polygon points="13.61 66.55 23.07 69.39 18.96 65.92 13.61 66.55" style="fill:#fff"/><polygon points="28.42 68.78 23.07 69.39 32.51 72.25 28.42 68.78" style="fill:#fff"/><polygon points="41.97 75.09 37.86 71.63 32.51 72.25 41.97 75.09" style="fill:#fff"/><path d="M34.41,76h2.65l-.44-.36Z" style="fill:#fff"/><path d="M13.56,66.55h-.3c.87.82,1.78,1.55,2.73,2.29.49.38,1,.74,1.48,1.08h.21Z" style="fill:#fff"/><path d="M36.62,75.72l-4.11-3.47-5.33.63h0L23,69.41,17.67,70h0l.42.27L17.67,70l9.48,2.84-3.56.49A35,35,0,0,0,28.32,75c.61.15,1.21.3,1.9.42l-2.9-2.46Z" style="fill:#fff"/><path d="M36.62,75.72l1.14.36h0a33.74,33.74,0,0,0,3.79-.3l1-.15L42,75.11Z" style="fill:#fff"/><path d="M5.73,51.91l9.48,2.84-4.15-3.47-5.35.63L3.47,50c.11.44.25.89.38,1.33l1.9.55h0l-1.65.3c.19.59.4,1.18.64,1.74l5.1,1.54Z" style="fill:#fff"/><polygon points="17.65 46.57 13.54 43.1 8.19 43.72 17.65 46.57" style="fill:#fff"/><path d="M2.49,44a1,1,0,0,0,0,.21h.36Z" style="fill:#fff"/><path d="M2.85,44.35l9.48,2.84L8.19,43.72h0L4.08,40.26,13.56,43,9.4,39.55l-5.33.7h0l-1.71.19V42l5.8,1.74Z" style="fill:#fff"/><polygon points="21.75 50.05 17.65 46.57 12.3 47.19 21.75 50.05" style="fill:#fff"/><path d="M7,47.82l-3.79.45a2.65,2.65,0,0,0,.15.64l7.85,2.37Z" style="fill:#fff"/><polygon points="20.51 54.15 16.4 50.68 11.05 51.29 20.51 54.15" style="fill:#fff"/><path d="M2.85,44.35H2.51a14.25,14.25,0,0,0,.27,2.18L6.94,47.8Z" style="fill:#fff"/><polygon points="6.96 47.82 16.4 50.68 12.3 47.19 6.96 47.82" style="fill:#fff"/><polygon points="25.86 53.52 21.75 50.05 16.4 50.68 25.86 53.52" style="fill:#fff"/></g><ellipse cx="45.12" cy="13.47" rx="4.68" ry="23.32" transform="translate(21.15 54.01) rotate(-76.02)" style="fill:#fff"/></g><path d="M73.85,58.11V44.16a1.2,1.2,0,0,0-2.4,0V50.8h-.33V42.95a1.2,1.2,0,0,0-2.4,0V50.8h-.33V42.53a1.2,1.2,0,1,0-2.4,0V50.8h-.33V43.33a1.2,1.2,0,1,0-2.4,0V55.67L61.71,53.2a1.45,1.45,0,0,0-2.46,1.54l4.42,7.07.38,1.37h9l.8-2.92Z" style="fill:#757473"/><rect x="64.05" y="63.19" width="9" height="9.16" style="fill:#f93"/><rect x="63.1" y="64.61" width="10.91" height="11.11" style="fill:#404040"/><path d="M48.05,58.11V44.16a1.2,1.2,0,0,0-2.4,0V50.8h-.33V42.95a1.2,1.2,0,0,0-2.4,0V50.8h-.33V42.53a1.2,1.2,0,1,0-2.4,0V50.8h-.33V43.33a1.2,1.2,0,1,0-2.4,0V55.67L35.91,53.2a1.45,1.45,0,0,0-2.46,1.54l4.42,7.07.38,1.37h9l.8-2.92Z" style="fill:#6d6968"/><rect x="38.25" y="63.19" width="9" height="9.16" style="fill:#f93"/><rect x="37.3" y="64.61" width="10.91" height="11.11" style="fill:#404040"/><path d="M61.85,56V39.65a1.41,1.41,0,0,0-2.82,0v7.8h-.39V38.22a1.41,1.41,0,0,0-2.82,0v9.23h-.39V37.74a1.41,1.41,0,1,0-2.82,0v9.71h-.39V38.68a1.41,1.41,0,0,0-2.82,0V53.16l-1.81-2.9a1.7,1.7,0,0,0-2.89,1.81l5.2,8.31L50.35,62H60.91l.94-3.43Z" style="fill:#b2a8a6"/><rect x="50.35" y="61.62" width="10.57" height="10.14" style="fill:#f93"/><rect x="49.22" y="62.67" width="12.81" height="13.05" style="fill:#404040"/></svg>