<svg id="Calque_1" data-name="Calque 1" xmlns="http://www.w3.org/2000/svg" xmlns:xlink="http://www.w3.org/1999/xlink" viewBox="0 0 83 79"><defs><linearGradient id="Dégradé_sans_nom" x1="64.96" y1="794.49" x2="57.57" y2="818.25" gradientTransform="translate(0 -749.78)" gradientUnits="userSpaceOnUse"><stop offset="0" stop-color="#0088cf"/><stop offset="1" stop-color="#133b65"/></linearGradient><linearGradient id="Dégradé_sans_nom_2" x1="52.58" y1="790.64" x2="45.19" y2="814.4" xlink:href="#Dégradé_sans_nom"/><linearGradient id="Dégradé_sans_nom_3" x1="79.06" y1="798.87" x2="71.67" y2="822.64" xlink:href="#Dégradé_sans_nom"/><linearGradient id="Dégradé_sans_nom_4" x1="66.77" y1="795.05" x2="59.38" y2="818.82" xlink:href="#Dégradé_sans_nom"/><linearGradient id="Dégradé_sans_nom_5" x1="64.89" y1="794.47" x2="57.5" y2="818.23" xlink:href="#Dégradé_sans_nom"/><linearGradient id="Dégradé_sans_nom_6" x1="72.17" y1="796.73" x2="64.78" y2="820.5" xlink:href="#Dégradé_sans_nom"/><linearGradient id="Dégradé_sans_nom_7" x1="52.98" y1="790.76" x2="45.59" y2="814.53" xlink:href="#Dégradé_sans_nom"/><linearGradient id="Dégradé_sans_nom_8" x1="67.11" y1="795.16" x2="59.71" y2="818.92" xlink:href="#Dégradé_sans_nom"/><linearGradient id="Dégradé_sans_nom_9" x1="64.91" y1="794.48" x2="57.51" y2="818.24" xlink:href="#Dégradé_sans_nom"/><linearGradient id="Dégradé_sans_nom_10" x1="68.99" y1="795.74" x2="61.59" y2="819.51" xlink:href="#Dégradé_sans_nom"/><linearGradient id="Dégradé_sans_nom_11" x1="74.37" y1="797.41" x2="66.97" y2="821.18" xlink:href="#Dégradé_sans_nom"/><linearGradient id="Dégradé_sans_nom_12" x1="50.93" y1="790.12" x2="43.54" y2="813.89" xlink:href="#Dégradé_sans_nom"/><linearGradient id="Dégradé_sans_nom_13" x1="55.19" y1="791.45" x2="47.8" y2="815.21" xlink:href="#Dégradé_sans_nom"/><linearGradient id="Dégradé_sans_nom_14" x1="62.72" y1="793.8" x2="55.33" y2="817.55" xlink:href="#Dégradé_sans_nom"/><linearGradient id="Dégradé_sans_nom_15" x1="57.4" y1="792.14" x2="50" y2="815.9" xlink:href="#Dégradé_sans_nom"/><linearGradient id="Dégradé_sans_nom_16" x1="55.95" y1="791.68" x2="48.56" y2="815.45" xlink:href="#Dégradé_sans_nom"/><linearGradient id="Dégradé_sans_nom_17" x1="58.14" y1="792.36" x2="50.75" y2="816.13" xlink:href="#Dégradé_sans_nom"/><linearGradient id="Dégradé_sans_nom_18" x1="77.27" y1="798.32" x2="69.87" y2="822.09" xlink:href="#Dégradé_sans_nom"/><linearGradient id="Dégradé_sans_nom_19" x1="62.7" y1="793.79" x2="55.31" y2="817.55" xlink:href="#Dégradé_sans_nom"/><linearGradient id="Dégradé_sans_nom_20" x1="52.78" y1="790.7" x2="45.39" y2="814.47" xlink:href="#Dégradé_sans_nom"/><linearGradient id="Dégradé_sans_nom_21" x1="78.84" y1="798.81" x2="71.45" y2="822.57" xlink:href="#Dégradé_sans_nom"/><linearGradient id="Dégradé_sans_nom_22" x1="64.59" y1="794.37" x2="57.2" y2="818.14" xlink:href="#Dégradé_sans_nom"/><linearGradient id="Dégradé_sans_nom_23" x1="73.58" y1="797.18" x2="66.19" y2="820.94" xlink:href="#Dégradé_sans_nom"/><linearGradient id="Dégradé_sans_nom_24" x1="64.57" y1="794.37" x2="57.18" y2="818.14" xlink:href="#Dégradé_sans_nom"/><linearGradient id="Dégradé_sans_nom_25" x1="76.34" y1="798.03" x2="68.95" y2="821.79" xlink:href="#Dégradé_sans_nom"/><linearGradient id="Dégradé_sans_nom_26" x1="71.37" y1="796.48" x2="63.98" y2="820.25" xlink:href="#Dégradé_sans_nom"/><linearGradient id="Dégradé_sans_nom_27" x1="66.79" y1="795.06" x2="59.4" y2="818.82" xlink:href="#Dégradé_sans_nom"/><linearGradient id="Dégradé_sans_nom_28" x1="52" y1="790.46" x2="44.6" y2="814.21" xlink:href="#Dégradé_sans_nom"/><linearGradient id="Dégradé_sans_nom_29" x1="53.84" y1="791.03" x2="46.45" y2="814.79" xlink:href="#Dégradé_sans_nom"/><linearGradient id="Dégradé_sans_nom_30" x1="77.04" y1="798.25" x2="69.65" y2="822.01" xlink:href="#Dégradé_sans_nom"/><linearGradient id="Dégradé_sans_nom_31" x1="77.78" y1="798.47" x2="70.38" y2="822.24" xlink:href="#Dégradé_sans_nom"/><linearGradient id="Dégradé_sans_nom_32" x1="62.38" y1="793.69" x2="54.98" y2="817.45" xlink:href="#Dégradé_sans_nom"/><linearGradient id="Dégradé_sans_nom_33" x1="62.4" y1="793.69" x2="55" y2="817.46" xlink:href="#Dégradé_sans_nom"/><linearGradient id="Dégradé_sans_nom_34" x1="73.56" y1="797.17" x2="66.17" y2="820.93" xlink:href="#Dégradé_sans_nom"/><linearGradient id="Dégradé_sans_nom_35" x1="64.6" y1="794.38" x2="57.21" y2="818.14" xlink:href="#Dégradé_sans_nom"/><linearGradient id="Dégradé_sans_nom_36" x1="60.19" y1="793.01" x2="52.8" y2="816.77" xlink:href="#Dégradé_sans_nom"/></defs><title>members</title><path d="M28.22,10.47a7.08,7.08,0,1,1-7.09-7.09A7.09,7.09,0,0,1,28.22,10.47Z" style="fill:#005472"/><path d="M34.14,43.06v-21a1.67,1.67,0,0,0-1.76-1.7h-10l1.79,14.8-3,4-3-4,2.23-14.8H10.27c-2.54,0-2.13,1.67-2.13,1.67v21.1c0,2.14,2.33,2.12,2.33,2.12,2.35,0,2.34-1.87,2.34-1.87V26.75h1.11V70.13c0,3.54,3.56,3.29,3.56,3.29a3,3,0,0,0,3.24-3.31V45.34h1V69.91c0,.48-.33,3.5,3.39,3.5,3.94,0,3.41-3.5,3.41-3.5l0-43.16h1V42.61c0,2.93,2.47,2.68,2.47,2.68A2,2,0,0,0,34.14,43.06Z" style="fill:#005472"/><path d="M60.23,10.47a7.08,7.08,0,1,1-7.09-7.09A7.09,7.09,0,0,1,60.23,10.47Z" style="fill:#005472"/><path d="M66.15,43.06v-21a1.67,1.67,0,0,0-1.76-1.7h-10l1.79,14.8-3,4-3-4,2.23-14.8H42.27c-2.54,0-2.13,1.67-2.13,1.67v21.1c0,2.14,2.33,2.12,2.33,2.12,2.35,0,2.34-1.87,2.34-1.87V26.75h1.11V70.13c0,3.54,3.56,3.29,3.56,3.29a3,3,0,0,0,3.24-3.31V45.34h1V69.91c0,.48-.33,3.5,3.39,3.5,3.94,0,3.41-3.5,3.41-3.5l0-43.16h1V42.61c0,2.93,2.47,2.68,2.47,2.68A2,2,0,0,0,66.15,43.06Z" style="fill:#005472"/><polygon points="20.37 20.33 22.35 20.33 24.15 35.21 21.13 39.23 18.12 35.21 20.37 20.33" style="fill:#f93"/><polygon points="52.38 20.33 54.35 20.33 56.16 35.21 53.14 39.23 50.12 35.21 52.38 20.33" style="fill:#f93"/><path d="M44.8,7.94A7.52,7.52,0,1,1,37.27.41,7.53,7.53,0,0,1,44.8,7.94Z" style="fill:#023038"/><path d="M51.09,42.54V20.3a1.78,1.78,0,0,0-1.88-1.81H38.55l1.9,15.71-3.18,4.24-3.18-4.24,2.38-15.71H25.74c-2.7,0-2.26,1.77-2.26,1.77v22.4c0,2.27,2.47,2.25,2.47,2.25,2.5,0,2.49-2,2.49-2V25.23h1.18v46c0,3.75,3.77,3.5,3.77,3.5a3.15,3.15,0,0,0,3.44-3.52V45h1.09s0,25.59,0,26.09-.34,3.73,3.6,3.73c4.18,0,3.61-3.73,3.61-3.73l0-45.82h1V42.05c0,3.12,2.62,2.85,2.62,2.85A2.09,2.09,0,0,0,51.09,42.54Z" style="fill:#023038"/><g id="Calque_2" data-name="Calque 2"><g id="Calque_1-2" data-name="Calque 1-2"><path d="M69.54,46.62C68,46,66.2,45.44,64.23,44.9c-1.49-.41-2.93-.74-4.23-1-3.6-.69-6.19-.78-6.4-.1-.08.3.31.71,1.06,1.17a37.3,37.3,0,0,0,8.66,3.29c4.26,1.16,8,1.72,9.73,1.51.53-.07.88-.2.88-.43C74.11,48.75,72.34,47.7,69.54,46.62Z" style="fill:none"/><path d="M60.41,75.51h.34l-.53-.17Z" style="fill:#fff"/><path d="M76.61,49.71c.54-1.84-4.79-4.89-11.92-6.83s-13.33-2-13.88-.18c-.21.74.52,1.67,1.95,2.65l-.16.24-.32.42h0l-.09.11,1.92,1.58-2.72-.81-.12.11-.48.3.88.71,2.45-.3L56,49.29l1.92,1.62,1.92,1.62L55.44,51.2l1.92,1.63L52.94,51.5l1.9,1.69-4.42-1.33,1.92,1.62-4.42-1.33,2.5-.29,2.49-.29-4.42-1.33,2.55-.3,2.49-.29L56,49.33,51.61,48l1.91,1.62-4.2-1.24-.06.06L51,50l-2.65-.8c-.19.16-.37.32-.55.5l.71.59,1.89,1.6L46.8,50.74a9.73,9.73,0,0,0-1,1.63,14.85,14.85,0,0,0-.8,2,16,16,0,0,0-.78,3.77v.78l.8-.09h0l2.49-.29,1.91,1.59,1.92,1.59,1.92,1.62,1.91,1.65-4.42-1.33,1.92,1.63-4.42-1.33,1.92,1.62-4.42-1.33,1.91,1.62-2.38-.72a15.79,15.79,0,0,0,3.36,5.3q.31.32.64.62h.15l1.95,1.64h0l2.48-.29-4.42-1.33,2.49-.29,2.49-.29,2.49-.29,1.92,1.62,1.92,1.62L62.71,75,58.29,73.7l1.92,1.62L55.79,74l1.34,1.11a15.38,15.38,0,0,0,2,.3h0l1-.12L62.66,75l.28.24a15.55,15.55,0,0,0,5.53-2c.46-.27.88-.56,1.33-.88l-2.89-.88,2.48-.29L71.55,71l.12-.11-4.12-1.21L70,69.37,65.62,68l1.94,1.62,1.92,1.62L65.05,70l2.5-.29-4.42-1.33,2.48-.3-4.42-1.33,2.49-.3,2.51-.29,2.49-.29,2.49-.29,1.91,1.62h0L74,68a20.7,20.7,0,0,0,1.05-1.81,12.62,12.62,0,0,0,.8-2.08l.06-.2a14.72,14.72,0,0,0,.59-4.26l-4-1.19L74.49,60,70.07,58.7l2.49-.29-4.42-1.33,2.53-.29-4.42-1.33,2.49-.29-4.42-1.33,2.49-.29,2.49-.29L71.76,53l1.92,1.62,1.91,1.62h.18v-.13l-.24-.62h0l-.12-.32-1.66-.5,1.34-.19c-.09-.2-.19-.4-.26-.55l-3-.88,2.5-.36a5.3,5.3,0,0,1-.15-.63,7.07,7.07,0,0,1-.12-.88V51C75.47,50.79,76.41,50.36,76.61,49.71ZM64.87,59.2l1.92,1.66,1.92,1.62-4.42-1.33,1.92,1.58-4.42-1.33L63.68,63l-4.42-1.33,1.92,1.62-4.42-1.33,2.5-.29-4.42-1.33L57.34,60l-4.42-1.33,2.49-.29L51,57.09l2.49-.29L56,56.54l2.49-.29L61,56l1.92,1.62ZM73,49.82c-1.69.2-5.45-.35-9.73-1.51A37.3,37.3,0,0,1,54.64,45c-.75-.46-1.14-.88-1.06-1.17.19-.68,2.8-.59,6.4.1,1.3.25,2.73.58,4.23,1a55.48,55.48,0,0,1,5.3,1.72c2.81,1.08,4.57,2.13,4.42,2.74,0,.19-.36.33-.9.39Z" style="fill:url(#Dégradé_sans_nom)"/><path d="M44.3,60.66a.23.23,0,0,0,0,.07h.16Z" style="fill:#052550"/><path d="M45.8,64.23h0L44.91,64l.11.35.76-.09Z" style="fill:url(#Dégradé_sans_nom_2)"/><path d="M73,69.48v-.05l.11-.16-.58-.19Z" style="fill:url(#Dégradé_sans_nom_3)"/><polygon points="62.38 59.45 64.87 59.16 60.46 57.83 62.38 59.45" style="fill:url(#Dégradé_sans_nom_4)"/><polygon points="58.87 71.8 54.46 70.47 56.38 72.1 58.87 71.8" style="fill:url(#Dégradé_sans_nom_5)"/><polygon points="63.7 66.42 65.62 68.04 68.11 67.75 63.7 66.42" style="fill:url(#Dégradé_sans_nom_6)"/><polygon points="46.95 60.41 46.95 60.41 49.44 60.12 45.04 58.79 46.95 60.41" style="fill:url(#Dégradé_sans_nom_7)"/><polygon points="58.29 73.71 60.78 73.42 56.38 72.1 58.29 73.71" style="fill:url(#Dégradé_sans_nom_8)"/><polygon points="55.81 74 55.81 74 58.29 73.71 53.89 72.38 55.8 74 55.81 74" style="fill:url(#Dégradé_sans_nom_9)"/><polygon points="64.29 61.07 66.79 60.78 62.38 59.45 64.29 61.07" style="fill:url(#Dégradé_sans_nom_10)"/><polygon points="70.61 67.45 66.19 66.13 68.11 67.75 70.61 67.45" style="fill:url(#Dégradé_sans_nom_11)"/><path d="M47.54,49.93q-.24.23-.45.48l1.48-.19Z" style="fill:url(#Dégradé_sans_nom_12)"/><polygon points="48.87 62.03 51.36 61.73 46.95 60.41 48.87 62.03" style="fill:url(#Dégradé_sans_nom_13)"/><path d="M51.39,72.67l.16.13a15.57,15.57,0,0,0,2.55,1.42h0l1.69-.2Z" style="fill:url(#Dégradé_sans_nom_14)"/><polygon points="50.78 63.65 53.27 63.36 48.87 62.03 50.78 63.65" style="fill:url(#Dégradé_sans_nom_15)"/><polygon points="52.96 51.57 55.44 51.27 51.04 49.94 52.96 51.57" style="fill:url(#Dégradé_sans_nom_16)"/><polygon points="55.44 51.27 57.94 50.98 53.53 49.66 55.44 51.27" style="fill:url(#Dégradé_sans_nom_17)"/><path d="M70.37,72.07a5.3,5.3,0,0,0,.45-.37l-1.38-.42Z" style="fill:url(#Dégradé_sans_nom_18)"/><polygon points="51.97 70.76 53.89 72.38 56.38 72.1 51.97 70.76" style="fill:url(#Dégradé_sans_nom_19)"/><path d="M51.62,48h0l-1.28-.39c-.26.18-.56.4-.88.65Z" style="fill:url(#Dégradé_sans_nom_20)"/><path d="M76.55,59.36a5.3,5.3,0,0,0-.06-.82l-1.4-.42Z" style="fill:url(#Dégradé_sans_nom_21)"/><polygon points="59.88 59.74 62.38 59.45 57.97 58.12 59.88 59.74" style="fill:url(#Dégradé_sans_nom_22)"/><polygon points="68.75 55.17 70.67 56.79 73.16 56.5 68.75 55.17" style="fill:url(#Dégradé_sans_nom_23)"/><polygon points="62.95 57.54 58.55 56.21 60.46 57.83 62.95 57.54" style="fill:url(#Dégradé_sans_nom_24)"/><path d="M75.65,56.21l-4.42-1.33,1.92,1.62,1.95,1.62-4.42-1.33,1.92,1.62h0l2.48-.29L76.36,58h0l-.16-.54-3.06-.88Z" style="fill:url(#Dégradé_sans_nom_25)"/><polygon points="66.83 53.55 68.75 55.17 71.24 54.88 66.83 53.55" style="fill:url(#Dégradé_sans_nom_26)"/><polygon points="61.8 61.36 64.29 61.07 59.88 59.74 61.8 61.36" style="fill:url(#Dégradé_sans_nom_27)"/><path d="M44.43,61.71a2.6,2.6,0,0,0,0,.3l.09.5,1.77-.21Z" style="fill:url(#Dégradé_sans_nom_28)"/><path d="M48.28,63.94l2.49-.32-4.42-1.33L48.85,62l-4.42-1.33,2.48-.29-2.65-.82a7.07,7.07,0,0,0,0,1l.17.14,1.92,1.62,1.92,1.62-3.66-1.1.12.51,1,.88Z" style="fill:url(#Dégradé_sans_nom_29)"/><path d="M73.09,67.15l-4.42-1.33,1.92,1.62,1.94,1.63L68.1,67.75,70,69.36h0l2.51-.29.88-.1a6.93,6.93,0,0,0,.4-.57l-3.16-1Z" style="fill:url(#Dégradé_sans_nom_30)"/><path d="M71.77,70.85c.23-.22.45-.44.66-.68v-.05L70,69.37Z" style="fill:url(#Dégradé_sans_nom_31)"/><polygon points="60.46 57.83 56.05 56.5 57.97 58.12 60.46 57.83" style="fill:url(#Dégradé_sans_nom_32)"/><polygon points="55.48 58.41 57.39 60.04 59.88 59.74 55.48 58.41" style="fill:url(#Dégradé_sans_nom_33)"/><polygon points="73.74 54.59 69.32 53.26 71.24 54.88 73.74 54.59" style="fill:url(#Dégradé_sans_nom_34)"/><polygon points="59.31 61.66 61.8 61.36 57.39 60.04 59.31 61.66" style="fill:url(#Dégradé_sans_nom_35)"/><polygon points="53.56 56.79 55.48 58.41 57.97 58.12 53.56 56.79" style="fill:url(#Dégradé_sans_nom_36)"/><polygon points="61.04 55.92 58.55 56.21 62.95 57.54 61.04 55.92" style="fill:#fff"/><polygon points="61.23 63.27 59.31 61.66 56.81 61.95 61.23 63.27" style="fill:#fff"/><polygon points="58.55 56.21 56.05 56.5 60.46 57.83 58.55 56.21" style="fill:#fff"/><polygon points="60.46 57.83 64.87 59.16 62.95 57.54 60.46 57.83" style="fill:#fff"/><polygon points="54.9 60.32 59.31 61.66 57.39 60.04 54.9 60.32" style="fill:#fff"/><polygon points="63.72 62.98 61.8 61.36 59.31 61.66 63.72 62.98" style="fill:#fff"/><polygon points="56.05 56.5 53.56 56.79 57.97 58.12 56.05 56.5" style="fill:#fff"/><polygon points="62.38 59.45 60.46 57.83 57.97 58.12 62.38 59.45" style="fill:#fff"/><polygon points="66.79 60.78 64.87 59.16 62.38 59.45 66.79 60.78" style="fill:#fff"/><polygon points="52.99 58.7 57.39 60.04 55.48 58.41 52.99 58.7" style="fill:#fff"/><polygon points="57.39 60.04 61.8 61.36 59.88 59.74 57.39 60.04" style="fill:#fff"/><polygon points="66.21 62.69 64.29 61.07 61.8 61.36 66.21 62.69" style="fill:#fff"/><polygon points="51.07 57.08 55.48 58.41 53.56 56.79 51.07 57.08" style="fill:#fff"/><polygon points="57.97 58.12 55.48 58.41 59.88 59.74 57.97 58.12" style="fill:#fff"/><polygon points="59.88 59.74 64.29 61.07 62.38 59.45 59.88 59.74" style="fill:#fff"/><polygon points="68.7 62.41 66.79 60.78 64.29 61.07 68.7 62.41" style="fill:#fff"/><path d="M74.85,53.89c-.21-.43-.35-.68-.35-.68a4.09,4.09,0,0,1-.19-.52L71.82,53Z" style="fill:#fff"/><polygon points="71.82 52.97 69.32 53.26 73.74 54.59 71.82 52.97" style="fill:#fff"/><path d="M75.4,55.09c-.1-.24-.2-.46-.29-.66l-1.37.16Z" style="fill:#fff"/><polygon points="68.17 57.08 72.58 58.41 70.67 56.79 68.17 57.08" style="fill:#fff"/><path d="M72.59,58.41h0l-2.49.29L74.51,60,72.6,58.41l4,1.19v-.13a.59.59,0,0,0,0-.11h0l-1.48-1.25Z" style="fill:#fff"/><polygon points="69.32 53.26 66.83 53.55 71.24 54.88 69.32 53.26" style="fill:#fff"/><path d="M75.65,56.21l-1.91-1.62-2.49.29,4.42,1.33-2.48.29,3.06.88v-.14c-.05-.19-.11-.37-.18-.56L76,56.41a2.13,2.13,0,0,0-.09-.27Z" style="fill:#fff"/><polygon points="66.26 55.47 70.67 56.79 68.75 55.17 66.26 55.47" style="fill:#fff"/><polygon points="73.16 56.5 70.67 56.79 75.07 58.12 73.16 56.5" style="fill:#fff"/><path d="M76.49,58.55a3.9,3.9,0,0,0-.12-.57l-1.27.15Z" style="fill:#fff"/><polygon points="64.34 53.84 68.75 55.17 66.83 53.55 64.34 53.84" style="fill:#fff"/><polygon points="71.24 54.88 68.75 55.17 73.16 56.5 71.24 54.88" style="fill:#fff"/><path d="M52.19,46.12h0l-.09.08a5.53,5.53,0,0,1-.73.72l2.72.82Z" style="fill:#fff"/><polygon points="52.38 53.48 50.47 51.86 47.97 52.14 52.38 53.48" style="fill:#fff"/><path d="M48.57,50.21l-1.48.14h0l-.29.35,3.61,1.14Z" style="fill:#fff"/><polygon points="54.87 53.19 52.96 51.57 50.47 51.86 54.87 53.19" style="fill:#fff"/><path d="M51.62,48,56,49.36,54.11,47.7,51.62,48l-.84-.71-.46.32,1.3.39h0l-2.17.29H49.4l-.07.05,4.21,1.26Z" style="fill:#fff"/><polygon points="57.94 50.98 56.03 49.37 53.53 49.66 57.94 50.98" style="fill:#fff"/><path d="M47.84,49.64a3.1,3.1,0,0,0-.3.29l1,.28Z" style="fill:#fff"/><polygon points="48.55 50.23 52.96 51.57 51.04 49.94 48.55 50.23" style="fill:#fff"/><polygon points="57.36 52.89 55.44 51.27 52.96 51.57 57.36 52.89" style="fill:#fff"/><path d="M49.26,48.45l-.53.43-.34.28L51,50Z" style="fill:#fff"/><polygon points="51.04 49.94 55.44 51.27 53.53 49.66 51.04 49.94" style="fill:#fff"/><polygon points="59.85 52.6 57.94 50.98 55.44 51.27 59.85 52.6" style="fill:#fff"/><path d="M67,71.57l2.89.88.51-.38-.88-.78Z" style="fill:#fff"/><polygon points="68.69 65.84 66.19 66.13 70.61 67.45 68.69 65.84" style="fill:#fff"/><path d="M73.1,67.15l-1.91-1.62-2.49.29,4.42,1.33-2.45.3,3.15,1a4.25,4.25,0,0,0,.24-.36V68l-.94-.81Z" style="fill:#fff"/><polygon points="69.45 71.28 67.54 69.67 65.05 69.95 69.45 71.28" style="fill:#fff"/><path d="M70.83,71.7c.26-.2.51-.43.75-.66l-2.13.25Z" style="fill:#fff"/><polygon points="66.19 66.13 63.7 66.42 68.11 67.75 66.19 66.13" style="fill:#fff"/><polygon points="72.53 69.08 70.61 67.45 68.11 67.75 72.53 69.08" style="fill:#fff"/><path d="M73.15,69.27c.07-.1.14-.19.2-.28l-.88.1Z" style="fill:#fff"/><polygon points="67.54 69.67 65.62 68.04 63.13 68.33 67.54 69.67" style="fill:#fff"/><path d="M70,69.36,68.1,67.75,65.61,68,70,69.36l-2.49.3,4.16,1.26.07-.07L70,69.38Z" style="fill:#fff"/><polygon points="61.21 66.71 65.62 68.04 63.7 66.42 61.21 66.71" style="fill:#fff"/><path d="M70,69.36l2.45.74h0c.17-.19.32-.38.48-.58l-.43-.4Z" style="fill:#fff"/><polygon points="56.96 70.18 54.46 70.47 58.87 71.8 56.96 70.18" style="fill:#fff"/><polygon points="54.46 70.47 51.97 70.76 56.38 72.1 54.46 70.47" style="fill:#fff"/><polygon points="60.78 73.42 58.87 71.8 56.38 72.1 60.78 73.42" style="fill:#fff"/><polygon points="49.48 71.05 53.89 72.38 51.97 70.76 49.48 71.05" style="fill:#fff"/><polygon points="56.38 72.1 53.89 72.38 58.29 73.71 56.38 72.1" style="fill:#fff"/><polygon points="62.7 75.04 60.78 73.42 58.29 73.71 62.7 75.04" style="fill:#fff"/><path d="M59.17,75.46h1.24l-.2-.17Z" style="fill:#fff"/><path d="M49.45,71.05h-.14c.41.38.83.72,1.27,1.07.23.18.45.34.69.5h.1Z" style="fill:#fff"/><path d="M60.21,75.33l-1.92-1.62L55.81,74h0l-1.94-1.62-2.5.28h0l.19.12-.19-.12L55.79,74l-1.66.23a16.33,16.33,0,0,0,2.21.76c.28.07.57.14.88.19L55.87,74Z" style="fill:#fff"/><path d="M60.21,75.33l.53.17h0a15.74,15.74,0,0,0,1.77-.14l.48-.07L62.71,75Z" style="fill:#fff"/><path d="M45.8,64.23l4.42,1.33-1.94-1.62-2.49.29-1-.88c.05.2.11.42.18.62l.88.26h0l-.77.14c.09.27.19.55.3.81l2.38.72Z" style="fill:#fff"/><polygon points="51.36 61.73 49.44 60.12 46.95 60.41 51.36 61.73" style="fill:#fff"/><path d="M44.29,60.56a.49.49,0,0,0,0,.1h.17Z" style="fill:#fff"/><path d="M44.45,60.7,48.87,62l-1.93-1.62h0L45,58.79l4.42,1.29-1.94-1.62L45,58.79h0l-.8.09v.72l2.71.81Z" style="fill:#fff"/><polygon points="53.27 63.36 51.36 61.73 48.87 62.03 53.27 63.36" style="fill:#fff"/><path d="M46.37,62.32l-1.77.21a1.24,1.24,0,0,0,.07.3l3.66,1.11Z" style="fill:#fff"/><polygon points="52.69 65.27 50.78 63.65 48.28 63.94 52.69 65.27" style="fill:#fff"/><path d="M44.45,60.7H44.3a6.65,6.65,0,0,0,.12,1l1.95.59Z" style="fill:#fff"/><polygon points="46.37 62.32 50.78 63.65 48.87 62.03 46.37 62.32" style="fill:#fff"/><polygon points="55.19 64.98 53.27 63.36 50.78 63.65 55.19 64.98" style="fill:#fff"/></g><ellipse cx="64.17" cy="46.3" rx="2.18" ry="10.87" transform="translate(3.74 97.39) rotate(-76.02)" style="fill:#fff"/></g><polygon points="36.47 18.49 38.55 18.49 40.45 34.19 37.27 38.44 34.09 34.19 36.47 18.49" style="fill:#f93"/></svg>