<svg id="Calque_1" data-name="Calque 1" xmlns="http://www.w3.org/2000/svg" viewBox="0 0 27.25 28.09"><title>notifications-icon</title><path d="M21.25,4.69c-1.2-.4-2.6-.9-4.1-1.3-1.1-.3-2.3-.6-3.3-.8C11,2.09,9,2,8.95,2.49c-.1.2.2.6.8.9a25.68,25.68,0,0,0,6.7,2.5,23.56,23.56,0,0,0,7.5,1.2c.4-.1.7-.2.7-.3C24.75,6.39,23.35,5.59,21.25,4.69Z" style="fill:#fff"/><path d="M15.7,23.89H11.3a.58.58,0,0,0-.56.76,2.91,2.91,0,0,0,5.51,0A.58.58,0,0,0,15.7,23.89Z" style="fill:#f04141"/><path d="M24.46,20.49l-3-2.44V11a8,8,0,0,0-6.13-7.79V2.37a1.87,1.87,0,1,0-3.73,0v.84A8,8,0,0,0,5.45,11v7h0l-2.7,2.52a1.21,1.21,0,0,0,1.12,1.86H23.39A1.2,1.2,0,0,0,24.46,20.49Z" style="fill:#f04141"/></svg>