<svg xmlns="http://www.w3.org/2000/svg" xmlns:xlink="http://www.w3.org/1999/xlink" viewBox="0 0 70 71.53"><defs><style>.cls-1{fill:#f2f2f2;}.cls-2{clip-path:url(#clip-path);}.cls-3{fill:#231f20;}</style><clipPath id="clip-path"><circle class="cls-1" cx="35" cy="35" r="35"/></clipPath></defs><title>post-img</title><g id="Calque_2" data-name="Calque 2"><g id="Calque_1-2" data-name="Calque 1"><circle class="cls-1" cx="35" cy="35" r="35"/><g class="cls-2"><path class="cls-3" d="M52.12,56.13c-1.55-2-5.31-2.68-5.31-2.68A31.93,31.93,0,0,1,40.56,51l-.91-1.37V47h0a8,8,0,0,0,2-4.16s2.3-.62,2.17-4.33c0,0,.09-1.86-1.46-1.07,0,0,0-.1,0-.28,2.48-3.57.39-8,.39-8-4.3-5.16-11.31-4.14-11.31-4.14,1.18.19,1,1.89,1,1.89a5,5,0,0,0-4.53.63,1.17,1.17,0,0,1,1.58.63c-.2.9-2.57,1.73-2.57,1.73,1,.59.36,2.07.36,2.07A4.8,4.8,0,0,0,28,37c0,.29.07.46.07.46-1.55-.8-1.46,1.06-1.46,1.06-.13,3.72,2.17,4.33,2.17,4.33a8.09,8.09,0,0,0,2,4.17h0v2.54L29.84,51a31.82,31.82,0,0,1-6.26,2.49s-3.76.71-5.31,2.68c0,0-2.13,1.76-2.14,15.39H54.25C54.75,61.95,52.12,56.13,52.12,56.13Z"/></g></g></g></svg>