<svg id="Calque_1" data-name="Calque 1" xmlns="http://www.w3.org/2000/svg" xmlns:xlink="http://www.w3.org/1999/xlink" viewBox="0 0 83 79"><defs><linearGradient id="Dégradé_sans_nom" x1="50.3" y1="762.57" x2="36.36" y2="807.39" gradientTransform="translate(0 -749.78)" gradientUnits="userSpaceOnUse"><stop offset="0" stop-color="#0088cf"/><stop offset="1" stop-color="#133b65"/></linearGradient><linearGradient id="Dégradé_sans_nom_2" x1="26.95" y1="755.31" x2="13.01" y2="800.13" xlink:href="#Dégradé_sans_nom"/><linearGradient id="Dégradé_sans_nom_3" x1="76.9" y1="770.84" x2="62.95" y2="815.67" xlink:href="#Dégradé_sans_nom"/><linearGradient id="Dégradé_sans_nom_4" x1="53.72" y1="763.63" x2="39.78" y2="808.46" xlink:href="#Dégradé_sans_nom"/><linearGradient id="Dégradé_sans_nom_5" x1="50.17" y1="762.53" x2="36.23" y2="807.36" xlink:href="#Dégradé_sans_nom"/><linearGradient id="Dégradé_sans_nom_6" x1="63.89" y1="766.8" x2="49.95" y2="811.63" xlink:href="#Dégradé_sans_nom"/><linearGradient id="Dégradé_sans_nom_7" x1="27.71" y1="755.54" x2="13.76" y2="800.37" xlink:href="#Dégradé_sans_nom"/><linearGradient id="Dégradé_sans_nom_8" x1="54.35" y1="763.83" x2="40.39" y2="808.66" xlink:href="#Dégradé_sans_nom"/><linearGradient id="Dégradé_sans_nom_9" x1="50.19" y1="762.55" x2="36.25" y2="807.38" xlink:href="#Dégradé_sans_nom"/><linearGradient id="Dégradé_sans_nom_10" x1="57.9" y1="764.93" x2="43.94" y2="809.76" xlink:href="#Dégradé_sans_nom"/><linearGradient id="Dégradé_sans_nom_11" x1="68.04" y1="768.09" x2="54.08" y2="812.91" xlink:href="#Dégradé_sans_nom"/><linearGradient id="Dégradé_sans_nom_12" x1="23.83" y1="754.33" x2="9.89" y2="799.16" xlink:href="#Dégradé_sans_nom"/><linearGradient id="Dégradé_sans_nom_13" x1="31.86" y1="756.84" x2="17.92" y2="801.66" xlink:href="#Dégradé_sans_nom"/><linearGradient id="Dégradé_sans_nom_14" x1="46.06" y1="761.27" x2="32.12" y2="806.08" xlink:href="#Dégradé_sans_nom"/><linearGradient id="Dégradé_sans_nom_15" x1="36.04" y1="758.13" x2="22.08" y2="802.96" xlink:href="#Dégradé_sans_nom"/><linearGradient id="Dégradé_sans_nom_16" x1="33.3" y1="757.28" x2="19.36" y2="802.11" xlink:href="#Dégradé_sans_nom"/><linearGradient id="Dégradé_sans_nom_17" x1="37.43" y1="758.56" x2="23.49" y2="803.39" xlink:href="#Dégradé_sans_nom"/><linearGradient id="Dégradé_sans_nom_18" x1="73.51" y1="769.8" x2="59.57" y2="814.63" xlink:href="#Dégradé_sans_nom"/><linearGradient id="Dégradé_sans_nom_19" x1="46.04" y1="761.25" x2="32.1" y2="806.07" xlink:href="#Dégradé_sans_nom"/><linearGradient id="Dégradé_sans_nom_20" x1="27.33" y1="755.43" x2="13.39" y2="800.25" xlink:href="#Dégradé_sans_nom"/><linearGradient id="Dégradé_sans_nom_21" x1="76.48" y1="770.73" x2="62.53" y2="815.54" xlink:href="#Dégradé_sans_nom"/><linearGradient id="Dégradé_sans_nom_22" x1="49.59" y1="762.35" x2="35.65" y2="807.18" xlink:href="#Dégradé_sans_nom"/><linearGradient id="Dégradé_sans_nom_23" x1="66.56" y1="767.64" x2="52.62" y2="812.46" xlink:href="#Dégradé_sans_nom"/><linearGradient id="Dégradé_sans_nom_24" x1="49.56" y1="762.35" x2="35.62" y2="807.18" xlink:href="#Dégradé_sans_nom"/><linearGradient id="Dégradé_sans_nom_25" x1="71.76" y1="769.24" x2="57.82" y2="814.07" xlink:href="#Dégradé_sans_nom"/><linearGradient id="Dégradé_sans_nom_26" x1="62.39" y1="766.33" x2="48.45" y2="811.16" xlink:href="#Dégradé_sans_nom"/><linearGradient id="Dégradé_sans_nom_27" x1="53.75" y1="763.65" x2="39.81" y2="808.47" xlink:href="#Dégradé_sans_nom"/><linearGradient id="Dégradé_sans_nom_28" x1="25.85" y1="754.97" x2="11.89" y2="799.78" xlink:href="#Dégradé_sans_nom"/><linearGradient id="Dégradé_sans_nom_29" x1="29.33" y1="756.04" x2="15.39" y2="800.87" xlink:href="#Dégradé_sans_nom"/><linearGradient id="Dégradé_sans_nom_30" x1="73.08" y1="769.66" x2="59.13" y2="814.49" xlink:href="#Dégradé_sans_nom"/><linearGradient id="Dégradé_sans_nom_31" x1="74.47" y1="770.08" x2="60.51" y2="814.91" xlink:href="#Dégradé_sans_nom"/><linearGradient id="Dégradé_sans_nom_32" x1="45.43" y1="761.06" x2="31.48" y2="805.89" xlink:href="#Dégradé_sans_nom"/><linearGradient id="Dégradé_sans_nom_33" x1="45.47" y1="761.06" x2="31.51" y2="805.89" xlink:href="#Dégradé_sans_nom"/><linearGradient id="Dégradé_sans_nom_34" x1="66.52" y1="767.62" x2="52.58" y2="812.45" xlink:href="#Dégradé_sans_nom"/><linearGradient id="Dégradé_sans_nom_35" x1="49.62" y1="762.36" x2="35.68" y2="807.19" xlink:href="#Dégradé_sans_nom"/><linearGradient id="Dégradé_sans_nom_36" x1="41.3" y1="759.78" x2="27.36" y2="804.59" xlink:href="#Dégradé_sans_nom"/></defs><title>share</title><g id="Calque_2" data-name="Calque 2"><g id="Calque_1-2" data-name="Calque 1-2"><path d="M58.93,16.39c-2.85-1.1-6.29-2.22-10-3.24-2.82-.77-5.52-1.4-8-1.87C34.16,10,29.28,9.82,28.88,11.1c-.15.57.58,1.33,2,2.2a70.36,70.36,0,0,0,16.34,6.2c8,2.18,15.14,3.24,18.34,2.85,1-.13,1.67-.38,1.67-.82C67.55,20.41,64.22,18.44,58.93,16.39Z" style="fill:none"/><path d="M41.72,70.89h.63l-1-.32Z" style="fill:#fff"/><path d="M72.27,22.22c1-3.47-9-9.22-22.48-12.89S24.64,5.53,23.61,9c-.4,1.4,1,3.15,3.67,5l-.3.45-.6.78h0l-.17.22,3.62,3L24.69,16.9l-.23.2-.9.57L25.23,19l4.62-.57,3.6,3,3.62,3.05,3.62,3.05L32.35,25,36,28.09l-8.34-2.5,3.59,3.19-8.34-2.5,3.62,3.05-8.34-2.5,4.72-.55,4.7-.55-8.34-2.5,4.8-.57,4.7-.55,4.7-.6L25.11,19l3.6,3.05-7.92-2.33-.12.12L24,22.69l-5-1.5c-.35.3-.7.6-1,.93l1.33,1.12,3.57,3L16,24.17a18.34,18.34,0,0,0-1.83,3.07,28,28,0,0,0-1.5,3.69A30.15,30.15,0,0,0,11.23,38V39.5l1.5-.17h0l4.7-.55,3.6,3,3.62,3,3.62,3.05L31.88,51l-8.34-2.5,3.62,3.07L18.82,49l3.62,3.05-8.34-2.5,3.6,3.05-4.49-1.35a29.78,29.78,0,0,0,6.34,10q.58.6,1.2,1.17H21l3.67,3.09h0L29.38,65,21,62.48l4.7-.55,4.7-.55,4.7-.55,3.62,3.05,3.62,3.05L46.05,70l-8.34-2.5,3.62,3.05L33,68l2.53,2.1a29,29,0,0,0,3.8.57h0l1.92-.23,4.7-.55.53.45a29.33,29.33,0,0,0,10.44-3.72c.87-.52,1.67-1.05,2.52-1.67L54,63.31l4.69-.55,4.05-.4.23-.22-7.77-2.28,4.69-.55-8.34-2.5,3.65,3.05,3.62,3.05-8.34-2.5,4.72-.55-8.34-2.5,4.67-.57-8.34-2.5,4.7-.57,4.74-.55,4.7-.55,4.7-.55,3.6,3.05h0l1.78,1.52a39,39,0,0,0,2-3.42,23.8,23.8,0,0,0,1.5-3.92l.12-.38a27.77,27.77,0,0,0,1.12-8l-7.47-2.25,3.6,3.05-8.34-2.5,4.7-.55-8.34-2.5,4.77-.55-8.34-2.5,4.7-.55L49.09,30l4.7-.55,4.7-.55,4.64-.48,3.62,3.05,3.6,3.05h.33V34.3l-.45-1.17h0l-.23-.6-3.14-1,2.53-.37c-.17-.38-.35-.75-.48-1l-5.7-1.67,4.72-.68a10,10,0,0,1-.28-1.18A13.34,13.34,0,0,1,67.42,25v-.38C70.12,24.26,71.89,23.44,72.27,22.22ZM50.12,40.12l3.62,3.14,3.62,3.05L49,43.8l3.62,3-8.34-2.5,3.59,3-8.34-2.5,3.62,3.05-8.34-2.5,4.72-.55-8.34-2.5,4.7-.55-8.34-2.5,4.7-.55-8.34-2.5,4.7-.55,4.7-.48,4.7-.55L42.89,34,46.5,37ZM65.52,22.42c-3.19.38-10.29-.67-18.34-2.85a70.36,70.36,0,0,1-16.34-6.2c-1.42-.87-2.15-1.67-2-2.2.35-1.28,5.29-1.12,12.07.18,2.45.47,5.15,1.1,8,1.87a104.65,104.65,0,0,1,10,3.24c5.3,2,8.62,4,8.34,5.17-.08.35-.68.62-1.7.73Z" style="fill:url(#Dégradé_sans_nom)"/><path d="M11.32,42.87a.43.43,0,0,0,0,.13h.3Z" style="fill:#052550"/><path d="M14.15,49.61h0l-1.67-.48.2.67,1.43-.17Z" style="fill:url(#Dégradé_sans_nom_2)"/><path d="M65.45,59.51v-.1l.22-.3-1.1-.35Z" style="fill:url(#Dégradé_sans_nom_3)"/><polygon points="45.42 40.6 50.12 40.05 41.8 37.53 45.42 40.6" style="fill:url(#Dégradé_sans_nom_4)"/><polygon points="38.82 63.9 30.5 61.38 34.11 64.45 38.82 63.9" style="fill:url(#Dégradé_sans_nom_5)"/><polygon points="47.92 53.74 51.54 56.79 56.24 56.24 47.92 53.74" style="fill:url(#Dégradé_sans_nom_6)"/><polygon points="16.32 42.4 16.32 42.4 21.02 41.85 12.72 39.35 16.32 42.4" style="fill:url(#Dégradé_sans_nom_7)"/><polygon points="37.72 67.5 42.42 66.95 34.11 64.45 37.72 67.5" style="fill:url(#Dégradé_sans_nom_8)"/><polygon points="33.03 68.03 33.03 68.05 37.72 67.5 29.41 64.98 33.01 68.05 33.03 68.03" style="fill:url(#Dégradé_sans_nom_9)"/><polygon points="49.04 43.65 53.74 43.1 45.42 40.6 49.04 43.65" style="fill:url(#Dégradé_sans_nom_10)"/><polygon points="60.95 55.69 52.63 53.19 56.24 56.24 60.95 55.69" style="fill:url(#Dégradé_sans_nom_11)"/><path d="M17.44,22.64q-.45.43-.85.9l2.79-.37Z" style="fill:url(#Dégradé_sans_nom_12)"/><polygon points="19.94 45.45 24.64 44.9 16.32 42.4 19.94 45.45" style="fill:url(#Dégradé_sans_nom_13)"/><path d="M24.71,65.53l.3.25a29.37,29.37,0,0,0,4.8,2.68h0L33,68.08Z" style="fill:url(#Dégradé_sans_nom_14)"/><polygon points="23.54 48.52 28.24 47.97 19.94 45.45 23.54 48.52" style="fill:url(#Dégradé_sans_nom_15)"/><polygon points="27.66 25.73 32.35 25.18 24.04 22.66 27.66 25.73" style="fill:url(#Dégradé_sans_nom_16)"/><polygon points="32.35 25.18 37.05 24.63 28.74 22.12 32.35 25.18" style="fill:url(#Dégradé_sans_nom_17)"/><path d="M60.5,64.4a10,10,0,0,0,.85-.7l-2.6-.78Z" style="fill:url(#Dégradé_sans_nom_18)"/><polygon points="25.79 61.93 29.41 64.98 34.11 64.45 25.79 61.93" style="fill:url(#Dégradé_sans_nom_19)"/><path d="M25.13,19.05h0l-2.42-.73c-.48.33-1.05.75-1.67,1.22Z" style="fill:url(#Dégradé_sans_nom_20)"/><path d="M72.15,40.43A10,10,0,0,0,72,38.88l-2.63-.8Z" style="fill:url(#Dégradé_sans_nom_21)"/><polygon points="40.72 41.15 45.42 40.6 37.12 38.08 40.72 41.15" style="fill:url(#Dégradé_sans_nom_22)"/><polygon points="57.44 32.53 61.06 35.58 65.77 35.03 57.44 32.53" style="fill:url(#Dégradé_sans_nom_23)"/><polygon points="46.51 37 38.2 34.48 41.8 37.53 46.51 37" style="fill:url(#Dégradé_sans_nom_24)"/><path d="M70.45,34.48,62.11,32,65.73,35l3.67,3.05-8.34-2.5,3.62,3.05h0l4.69-.55,2.43-.28h0l-.3-1-5.77-1.67Z" style="fill:url(#Dégradé_sans_nom_25)"/><polygon points="53.83 29.46 57.44 32.53 62.15 31.98 53.83 29.46" style="fill:url(#Dégradé_sans_nom_26)"/><polygon points="44.34 44.2 49.04 43.65 40.72 41.15 44.34 44.2" style="fill:url(#Dégradé_sans_nom_27)"/><path d="M11.57,44.85a4.9,4.9,0,0,0,0,.57l.17.93,3.34-.4Z" style="fill:url(#Dégradé_sans_nom_28)"/><path d="M18.84,49.06l4.7-.6L15.2,46l4.7-.55-8.34-2.5,4.69-.55-5-1.55a13.34,13.34,0,0,0,.08,1.82l.32.27,3.62,3.05L18.89,49,12,46.92l.23,1,2,1.67Z" style="fill:url(#Dégradé_sans_nom_29)"/><path d="M65.63,55.13l-8.34-2.5,3.62,3.05,3.65,3.07-8.34-2.5,3.6,3.05h0l4.74-.55,1.67-.18A13.07,13.07,0,0,0,67,57.48l-6-1.8Z" style="fill:url(#Dégradé_sans_nom_30)"/><path d="M63.15,62.1c.43-.42.85-.83,1.25-1.28v-.1l-4.62-1.4Z" style="fill:url(#Dégradé_sans_nom_31)"/><polygon points="41.8 37.53 33.5 35.03 37.12 38.08 41.8 37.53" style="fill:url(#Dégradé_sans_nom_32)"/><polygon points="32.41 38.63 36.02 41.7 40.72 41.15 32.41 38.63" style="fill:url(#Dégradé_sans_nom_33)"/><polygon points="66.85 31.43 58.53 28.91 62.15 31.98 66.85 31.43" style="fill:url(#Dégradé_sans_nom_34)"/><polygon points="39.63 44.75 44.34 44.2 36.02 41.7 39.63 44.75" style="fill:url(#Dégradé_sans_nom_35)"/><polygon points="28.79 35.58 32.41 38.63 37.12 38.08 28.79 35.58" style="fill:url(#Dégradé_sans_nom_36)"/><polygon points="42.9 33.93 38.2 34.48 46.51 37 42.9 33.93" style="fill:#fff"/><polygon points="43.25 47.8 39.63 44.75 34.93 45.3 43.25 47.8" style="fill:#fff"/><polygon points="38.2 34.48 33.5 35.03 41.8 37.53 38.2 34.48" style="fill:#fff"/><polygon points="41.8 37.53 50.12 40.05 46.51 37 41.8 37.53" style="fill:#fff"/><polygon points="31.31 42.23 39.63 44.75 36.02 41.7 31.31 42.23" style="fill:#fff"/><polygon points="47.95 47.26 44.34 44.2 39.63 44.75 47.95 47.26" style="fill:#fff"/><polygon points="33.5 35.03 28.79 35.58 37.12 38.08 33.5 35.03" style="fill:#fff"/><polygon points="45.42 40.6 41.8 37.53 37.12 38.08 45.42 40.6" style="fill:#fff"/><polygon points="53.74 43.1 50.12 40.05 45.42 40.6 53.74 43.1" style="fill:#fff"/><polygon points="27.71 39.18 36.02 41.7 32.41 38.63 27.71 39.18" style="fill:#fff"/><polygon points="36.02 41.7 44.34 44.2 40.72 41.15 36.02 41.7" style="fill:#fff"/><polygon points="52.66 46.7 49.04 43.65 44.34 44.2 52.66 46.7" style="fill:#fff"/><polygon points="24.09 36.13 32.41 38.63 28.79 35.58 24.09 36.13" style="fill:#fff"/><polygon points="37.12 38.08 32.41 38.63 40.72 41.15 37.12 38.08" style="fill:#fff"/><polygon points="40.72 41.15 49.04 43.65 45.42 40.6 40.72 41.15" style="fill:#fff"/><polygon points="57.34 46.17 53.74 43.1 49.04 43.65 57.34 46.17" style="fill:#fff"/><path d="M69,30.11c-.4-.82-.67-1.28-.67-1.28a7.72,7.72,0,0,1-.35-1l-4.7.55Z" style="fill:#fff"/><polygon points="63.23 28.38 58.53 28.91 66.85 31.43 63.23 28.38" style="fill:#fff"/><path d="M70,32.38c-.18-.45-.38-.87-.55-1.25l-2.58.3Z" style="fill:#fff"/><polygon points="56.36 36.13 64.67 38.63 61.06 35.58 56.36 36.13" style="fill:#fff"/><path d="M64.68,38.63h0l-4.7.55,8.34,2.5-3.6-3.05,7.47,2.25v-.25a1.12,1.12,0,0,0,0-.2h0L69.4,38.08Z" style="fill:#fff"/><polygon points="58.53 28.91 53.83 29.46 62.15 31.98 58.53 28.91" style="fill:#fff"/><path d="M70.45,34.48l-3.6-3.05-4.7.55,8.34,2.5L65.8,35l5.77,1.67v-.27c-.1-.35-.22-.7-.33-1.05l-.17-.52a4,4,0,0,0-.17-.5Z" style="fill:#fff"/><polygon points="52.74 33.08 61.06 35.58 57.44 32.53 52.74 33.08" style="fill:#fff"/><polygon points="65.77 35.03 61.06 35.58 69.37 38.08 65.77 35.03" style="fill:#fff"/><path d="M72,38.9a7.35,7.35,0,0,0-.23-1.08l-2.4.28Z" style="fill:#fff"/><polygon points="49.12 30.01 57.44 32.53 53.83 29.46 49.12 30.01" style="fill:#fff"/><polygon points="62.15 31.98 57.44 32.53 65.77 35.03 62.15 31.98" style="fill:#fff"/><path d="M26.21,15.45h0L26,15.6A10.42,10.42,0,0,1,24.66,17l5.14,1.55Z" style="fill:#fff"/><polygon points="26.56 29.33 22.96 26.28 18.25 26.81 26.56 29.33" style="fill:#fff"/><path d="M19.37,23.17l-2.79.27h0l-.55.67,6.8,2.15Z" style="fill:#fff"/><polygon points="31.26 28.78 27.66 25.73 22.96 26.28 31.26 28.78" style="fill:#fff"/><path d="M25.13,19.05l8.34,2.5-3.64-3.12-4.7.55-1.58-1.33-.87.6,2.45.73h0L21,19.54h-.1l-.13.1L28.74,22Z" style="fill:#fff"/><polygon points="37.05 24.63 33.45 21.57 28.74 22.12 37.05 24.63" style="fill:#fff"/><path d="M18,22.09a5.85,5.85,0,0,0-.57.55l1.9.53Z" style="fill:#fff"/><polygon points="19.34 23.21 27.66 25.73 24.04 22.66 19.34 23.21" style="fill:#fff"/><polygon points="35.97 28.23 32.35 25.18 27.66 25.73 35.97 28.23" style="fill:#fff"/><path d="M20.67,19.84l-1,.82-.63.53,5,1.5Z" style="fill:#fff"/><polygon points="24.04 22.66 32.35 25.18 28.74 22.12 24.04 22.66" style="fill:#fff"/><polygon points="40.67 27.68 37.05 24.63 32.35 25.18 40.67 27.68" style="fill:#fff"/><path d="M54.08,63.46l5.45,1.67,1-.72-1.67-1.47Z" style="fill:#fff"/><polygon points="57.33 52.64 52.63 53.19 60.95 55.69 57.33 52.64" style="fill:#fff"/><path d="M65.65,55.13,62,52.07l-4.7.55,8.34,2.5-4.62.57L67,57.49a8,8,0,0,0,.45-.68v-.15l-1.77-1.53Z" style="fill:#fff"/><polygon points="58.76 62.91 55.16 59.86 50.46 60.4 58.76 62.91" style="fill:#fff"/><path d="M61.36,63.7c.48-.38,1-.82,1.42-1.25l-4,.47Z" style="fill:#fff"/><polygon points="52.63 53.19 47.92 53.74 56.24 56.24 52.63 53.19" style="fill:#fff"/><polygon points="64.56 58.76 60.95 55.69 56.24 56.24 64.56 58.76" style="fill:#fff"/><path d="M65.75,59.11c.13-.18.27-.35.38-.53l-1.67.18Z" style="fill:#fff"/><polygon points="55.16 59.86 51.54 56.79 46.84 57.34 55.16 59.86" style="fill:#fff"/><path d="M59.85,59.3l-3.62-3.05-4.7.55,8.34,2.5-4.7.57L63,62.25l.13-.13-3.34-2.79Z" style="fill:#fff"/><polygon points="43.22 54.29 51.54 56.79 47.92 53.74 43.22 54.29" style="fill:#fff"/><path d="M59.86,59.3l4.62,1.4h0c.32-.35.6-.72.9-1.1l-.82-.75Z" style="fill:#fff"/><polygon points="35.2 60.83 30.5 61.38 38.82 63.9 35.2 60.83" style="fill:#fff"/><polygon points="30.5 61.38 25.79 61.93 34.11 64.45 30.5 61.38" style="fill:#fff"/><polygon points="42.42 66.95 38.82 63.9 34.11 64.45 42.42 66.95" style="fill:#fff"/><polygon points="21.09 62.48 29.41 64.98 25.79 61.93 21.09 62.48" style="fill:#fff"/><polygon points="34.11 64.45 29.41 64.98 37.72 67.5 34.11 64.45" style="fill:#fff"/><polygon points="46.04 70 42.42 66.95 37.72 67.5 46.04 70" style="fill:#fff"/><path d="M39.38,70.79h2.33l-.38-.32Z" style="fill:#fff"/><path d="M21,62.48h-.27c.77.72,1.57,1.37,2.4,2,.43.33.85.65,1.3,1h.18Z" style="fill:#fff"/><path d="M41.33,70.55,37.72,67.5,33,68.05h0L29.38,65l-4.72.53h0l.37.23-.37-.23L33,68l-3.14.43A30.8,30.8,0,0,0,34,69.9c.53.13,1.07.27,1.67.37L33.15,68.1Z" style="fill:#fff"/><path d="M41.33,70.55l1,.32h0a29.68,29.68,0,0,0,3.34-.27l.9-.13L46.05,70Z" style="fill:#fff"/><path d="M14.15,49.61l8.34,2.5-3.65-3.05-4.7.55-2-1.67c.1.38.22.78.33,1.17l1.67.48h0l-1.45.27c.17.52.35,1,.57,1.53l4.49,1.35Z" style="fill:#fff"/><polygon points="24.64 44.9 21.02 41.85 16.32 42.4 24.64 44.9" style="fill:#fff"/><path d="M11.3,42.69a.92.92,0,0,0,0,.18h.32Z" style="fill:#fff"/><path d="M11.62,43,20,45.45,16.32,42.4h0L12.7,39.35,21,41.79l-3.65-3.05-4.69.62h0l-1.5.17v1.35l5.1,1.53Z" style="fill:#fff"/><polygon points="28.24 47.97 24.64 44.9 19.94 45.45 28.24 47.97" style="fill:#fff"/><path d="M15.24,46l-3.34.4A2.33,2.33,0,0,0,12,47l6.9,2.08Z" style="fill:#fff"/><polygon points="27.16 51.57 23.54 48.52 18.84 49.06 27.16 51.57" style="fill:#fff"/><path d="M11.62,43h-.3a12.54,12.54,0,0,0,.23,1.92L15.22,46Z" style="fill:#fff"/><polygon points="15.24 46 23.54 48.52 19.94 45.45 15.24 46" style="fill:#fff"/><polygon points="31.86 51.02 28.24 47.97 23.54 48.52 31.86 51.02" style="fill:#fff"/></g><ellipse cx="48.81" cy="15.79" rx="4.12" ry="20.51" transform="translate(21.7 59.34) rotate(-76.02)" style="fill:#fff"/></g><polygon points="51 61.5 51 67.35 67.92 64.99 67.92 59.15 51 61.5" style="fill:#af2e56"/><path d="M51,61.5l16.93-2.35c-1.65-3.86-7.25-6.84-14.23-7.45Z" style="fill:#ea4a66"/><polygon points="55.57 62.28 55.57 69.27 65.05 77.6 65.05 70.61 55.57 62.28" style="fill:#ffb92c"/><path d="M66.2,66.21,65,70.61v7C69.83,75.83,73,72.76,73,69.27V62.49Z" style="fill:#ff9f2c"/><path d="M65,70.61C69.83,68.84,73,65.77,73,62.28a6,6,0,0,0-.5-2.35L55.57,62.28Z" style="fill:#ffc65b"/><path d="M60.47,69.83,33.57,61.5v7c0,5.48,7.8,9.93,17.42,9.93a27.56,27.56,0,0,0,9.47-1.6Z" style="fill:#33afaf"/><path d="M53.69,51.69c-.88-.08-1.78-.12-2.7-.12-9.62,0-17.42,4.44-17.42,9.93s7.8,9.93,17.42,9.93a27.56,27.56,0,0,0,9.47-1.6L51,61.5Z" style="fill:#64d0da"/></svg>