<?xml version="1.0" encoding="utf-8"?>
<!-- Generator: Adobe Illustrator 21.0.0, SVG Export Plug-In . SVG Version: 6.00 Build 0)  -->
<svg version="1.1" id="Calque_1" xmlns="http://www.w3.org/2000/svg" xmlns:xlink="http://www.w3.org/1999/xlink" x="0px" y="0px"
	 viewBox="0 0 48.8 38" style="enable-background:new 0 0 48.8 38;" xml:space="preserve">
<style type="text/css">
	.st0{fill:#7DB141;}
</style>
<g id="Calque_2">
	<g id="Calque_1-2">
		<path class="st0" d="M38.5,8.6H6c-1,0-1.9,0.7-2.1,1.6c-0.1,0.2-0.1,0.4-0.1,0.6v24.5c0,1.2,1,2.2,2.2,2.2l0,0h32.5
			c1.2,0,2.2-1,2.2-2.2l0,0v-6.1h-13c-2.1,0-3.7-1.7-3.7-3.7v-4.9c0-1.9,1.4-3.5,3.3-3.7h0.4h13v-6C40.7,9.6,39.7,8.6,38.5,8.6
			L38.5,8.6z"/>
		<path class="st0" d="M42.2,18.9c-0.2-0.2-0.5-0.4-0.8-0.5c-0.2-0.1-0.5-0.1-0.7-0.1h-13c-1.2,0-2.2,1-2.2,2.2l0,0v4.9
			c0,1.2,1,2.2,2.2,2.2l0,0h13.1c0.2,0,0.5,0,0.7-0.1c0.3-0.1,0.5-0.3,0.8-0.5c0.5-0.4,0.7-1,0.7-1.6v-4.9
			C42.9,19.9,42.7,19.3,42.2,18.9z M32.2,23.4c0,0.6-0.5,1.1-1.1,1.1l0,0h-0.7c-0.6,0-1.1-0.5-1.1-1.1l0,0v-0.7
			c0-0.3,0.2-0.7,0.4-0.9c0.2-0.2,0.4-0.2,0.7-0.2h0.7c0.6,0,1.1,0.5,1.1,1.1l0,0V23.4z"/>
	</g>
</g>
</svg>
