<svg id="Calque_1" data-name="Calque 1" xmlns="http://www.w3.org/2000/svg" xmlns:xlink="http://www.w3.org/1999/xlink" viewBox="0 0 83 79"><defs><style>.cls-1,.cls-3{fill:#aa846a;}.cls-2{fill:#7a6453;stroke:#604c3e;}.cls-2,.cls-4{stroke-miterlimit:10;stroke-width:0.25px;}.cls-3,.cls-4{stroke:#aa846a;}.cls-3{stroke-linecap:round;stroke-linejoin:round;}.cls-4{fill:#ff9f2c;}.cls-5{fill:none;}.cls-6{fill:#fff;}.cls-7{fill:url(#Dégradé_sans_nom);}.cls-8{fill:#052550;}.cls-9{fill:url(#Dégradé_sans_nom_2);}.cls-10{fill:url(#Dégradé_sans_nom_3);}.cls-11{fill:url(#Dégradé_sans_nom_4);}.cls-12{fill:url(#Dégradé_sans_nom_5);}.cls-13{fill:url(#Dégradé_sans_nom_6);}.cls-14{fill:url(#Dégradé_sans_nom_7);}.cls-15{fill:url(#Dégradé_sans_nom_8);}.cls-16{fill:url(#Dégradé_sans_nom_9);}.cls-17{fill:url(#Dégradé_sans_nom_10);}.cls-18{fill:url(#Dégradé_sans_nom_11);}.cls-19{fill:url(#Dégradé_sans_nom_12);}.cls-20{fill:url(#Dégradé_sans_nom_13);}.cls-21{fill:url(#Dégradé_sans_nom_14);}.cls-22{fill:url(#Dégradé_sans_nom_15);}.cls-23{fill:url(#Dégradé_sans_nom_16);}.cls-24{fill:url(#Dégradé_sans_nom_17);}.cls-25{fill:url(#Dégradé_sans_nom_18);}.cls-26{fill:url(#Dégradé_sans_nom_19);}.cls-27{fill:url(#Dégradé_sans_nom_20);}.cls-28{fill:url(#Dégradé_sans_nom_21);}.cls-29{fill:url(#Dégradé_sans_nom_22);}.cls-30{fill:url(#Dégradé_sans_nom_23);}.cls-31{fill:url(#Dégradé_sans_nom_24);}.cls-32{fill:url(#Dégradé_sans_nom_25);}.cls-33{fill:url(#Dégradé_sans_nom_26);}.cls-34{fill:url(#Dégradé_sans_nom_27);}.cls-35{fill:url(#Dégradé_sans_nom_28);}.cls-36{fill:url(#Dégradé_sans_nom_29);}.cls-37{fill:url(#Dégradé_sans_nom_30);}.cls-38{fill:url(#Dégradé_sans_nom_31);}.cls-39{fill:url(#Dégradé_sans_nom_32);}.cls-40{fill:url(#Dégradé_sans_nom_33);}.cls-41{fill:url(#Dégradé_sans_nom_34);}.cls-42{fill:url(#Dégradé_sans_nom_35);}.cls-43{fill:url(#Dégradé_sans_nom_36);}</style><linearGradient id="Dégradé_sans_nom" x1="55.63" y1="-679.67" x2="43.85" y2="-717.52" gradientTransform="matrix(1, 0, 0, -1, 0, -670.5)" gradientUnits="userSpaceOnUse"><stop offset="0" stop-color="#0088cf"/><stop offset="1" stop-color="#133b65"/></linearGradient><linearGradient id="Dégradé_sans_nom_2" x1="35.91" y1="-673.54" x2="24.14" y2="-711.39" xlink:href="#Dégradé_sans_nom"/><linearGradient id="Dégradé_sans_nom_3" x1="78.1" y1="-686.65" x2="66.32" y2="-724.51" xlink:href="#Dégradé_sans_nom"/><linearGradient id="Dégradé_sans_nom_4" x1="58.52" y1="-680.56" x2="46.75" y2="-718.42" xlink:href="#Dégradé_sans_nom"/><linearGradient id="Dégradé_sans_nom_5" x1="55.53" y1="-679.64" x2="43.75" y2="-717.5" xlink:href="#Dégradé_sans_nom"/><linearGradient id="Dégradé_sans_nom_6" x1="67.11" y1="-683.24" x2="55.34" y2="-721.1" xlink:href="#Dégradé_sans_nom"/><linearGradient id="Dégradé_sans_nom_7" x1="36.56" y1="-673.73" x2="24.77" y2="-711.59" xlink:href="#Dégradé_sans_nom"/><linearGradient id="Dégradé_sans_nom_8" x1="59.05" y1="-680.73" x2="47.26" y2="-718.59" xlink:href="#Dégradé_sans_nom"/><linearGradient id="Dégradé_sans_nom_9" x1="55.54" y1="-679.65" x2="43.77" y2="-717.51" xlink:href="#Dégradé_sans_nom"/><linearGradient id="Dégradé_sans_nom_10" x1="62.05" y1="-681.66" x2="50.26" y2="-719.52" xlink:href="#Dégradé_sans_nom"/><linearGradient id="Dégradé_sans_nom_11" x1="70.62" y1="-684.33" x2="58.83" y2="-722.18" xlink:href="#Dégradé_sans_nom"/><linearGradient id="Dégradé_sans_nom_12" x1="33.28" y1="-672.71" x2="21.51" y2="-710.57" xlink:href="#Dégradé_sans_nom"/><linearGradient id="Dégradé_sans_nom_13" x1="40.06" y1="-674.83" x2="28.29" y2="-712.68" xlink:href="#Dégradé_sans_nom"/><linearGradient id="Dégradé_sans_nom_14" x1="52.05" y1="-678.57" x2="40.28" y2="-716.42" xlink:href="#Dégradé_sans_nom"/><linearGradient id="Dégradé_sans_nom_15" x1="43.59" y1="-675.92" x2="31.8" y2="-713.78" xlink:href="#Dégradé_sans_nom"/><linearGradient id="Dégradé_sans_nom_16" x1="41.28" y1="-675.2" x2="29.5" y2="-713.06" xlink:href="#Dégradé_sans_nom"/><linearGradient id="Dégradé_sans_nom_17" x1="44.77" y1="-676.28" x2="32.99" y2="-714.14" xlink:href="#Dégradé_sans_nom"/><linearGradient id="Dégradé_sans_nom_18" x1="75.24" y1="-685.77" x2="63.46" y2="-723.64" xlink:href="#Dégradé_sans_nom"/><linearGradient id="Dégradé_sans_nom_19" x1="52.03" y1="-678.55" x2="40.26" y2="-716.4" xlink:href="#Dégradé_sans_nom"/><linearGradient id="Dégradé_sans_nom_20" x1="36.23" y1="-673.64" x2="24.46" y2="-711.49" xlink:href="#Dégradé_sans_nom"/><linearGradient id="Dégradé_sans_nom_21" x1="77.73" y1="-686.55" x2="65.95" y2="-724.4" xlink:href="#Dégradé_sans_nom"/><linearGradient id="Dégradé_sans_nom_22" x1="55.04" y1="-679.48" x2="43.26" y2="-717.34" xlink:href="#Dégradé_sans_nom"/><linearGradient id="Dégradé_sans_nom_23" x1="69.36" y1="-683.95" x2="57.59" y2="-721.8" xlink:href="#Dégradé_sans_nom"/><linearGradient id="Dégradé_sans_nom_24" x1="55.01" y1="-679.48" x2="43.24" y2="-717.34" xlink:href="#Dégradé_sans_nom"/><linearGradient id="Dégradé_sans_nom_25" x1="73.75" y1="-685.3" x2="61.98" y2="-723.16" xlink:href="#Dégradé_sans_nom"/><linearGradient id="Dégradé_sans_nom_26" x1="65.85" y1="-682.84" x2="54.08" y2="-720.71" xlink:href="#Dégradé_sans_nom"/><linearGradient id="Dégradé_sans_nom_27" x1="58.55" y1="-680.58" x2="46.78" y2="-718.43" xlink:href="#Dégradé_sans_nom"/><linearGradient id="Dégradé_sans_nom_28" x1="34.99" y1="-673.25" x2="23.2" y2="-711.09" xlink:href="#Dégradé_sans_nom"/><linearGradient id="Dégradé_sans_nom_29" x1="37.93" y1="-674.15" x2="26.15" y2="-712.02" xlink:href="#Dégradé_sans_nom"/><linearGradient id="Dégradé_sans_nom_30" x1="74.88" y1="-685.66" x2="63.1" y2="-723.52" xlink:href="#Dégradé_sans_nom"/><linearGradient id="Dégradé_sans_nom_31" x1="76.05" y1="-686.01" x2="64.26" y2="-723.87" xlink:href="#Dégradé_sans_nom"/><linearGradient id="Dégradé_sans_nom_32" x1="51.52" y1="-678.39" x2="39.74" y2="-716.25" xlink:href="#Dégradé_sans_nom"/><linearGradient id="Dégradé_sans_nom_33" x1="51.56" y1="-678.39" x2="39.77" y2="-716.25" xlink:href="#Dégradé_sans_nom"/><linearGradient id="Dégradé_sans_nom_34" x1="69.34" y1="-683.93" x2="57.56" y2="-721.8" xlink:href="#Dégradé_sans_nom"/><linearGradient id="Dégradé_sans_nom_35" x1="55.06" y1="-679.49" x2="43.29" y2="-717.35" xlink:href="#Dégradé_sans_nom"/><linearGradient id="Dégradé_sans_nom_36" x1="48.03" y1="-677.31" x2="36.26" y2="-715.16" xlink:href="#Dégradé_sans_nom"/></defs><title>beneficial</title><g id="_Groupe_" data-name="&lt;Groupe&gt;"><g id="_Groupe_2" data-name="&lt;Groupe&gt;"><path id="_Tracé_" data-name="&lt;Tracé&gt;" class="cls-1" d="M56.54,52.86a3.38,3.38,0,0,0-5.19-1.42s-1.27-2.12-3.28-1.06-8.63,5-8.63,5,2,4.75,2.16,4.77,11.45-5.47,11.45-5.47Z"/><path id="_Tracé_2" data-name="&lt;Tracé&gt;" class="cls-2" d="M13.39,72.91l12.3-9.62a2.1,2.1,0,0,1,1.75-.39L38,65.25a9.78,9.78,0,0,0,7.78-2l12.34-7.84A1.65,1.65,0,0,0,58,52.59h0a4.45,4.45,0,0,0-4.29.06l-8.36,4.75s-.47-2.52-2.29-2.88-7.86-.87-7.86-.87-6-5.44-10.2-2.86c-3.09,1.93-4,3.3-4.2,4a2.13,2.13,0,0,1-.7,1L7.62,65.54Z"/><path id="_Tracé_3" data-name="&lt;Tracé&gt;" class="cls-3" d="M45.23,56.67s0,.21,0,.29a2.61,2.61,0,0,1,0,.33,2.22,2.22,0,0,1-.12.5,1.75,1.75,0,0,1-.33.56,1.53,1.53,0,0,1-.65.42l-.21.06-.1,0h-.11l-.47,0c-.32,0-.65,0-1,0h-1c-1.38,0-2.75-.06-3.78-.11l-1.72-.1h0l1.72.13c1,.07,2.41.16,3.78.2h1c.34,0,.67,0,1,0l.48,0h.12l.12,0,.23-.05a1.74,1.74,0,0,0,.75-.45,2,2,0,0,0,.4-.63,2.85,2.85,0,0,0,.16-.55,2.91,2.91,0,0,0,0-.37c0-.08,0-.14,0-.14Z"/><rect id="_Rectangle_" data-name="&lt;Rectangle&gt;" class="cls-4" x="8.02" y="59.2" width="14.22" height="13.23" transform="translate(-27.37 118.29) rotate(-128.05)"/></g></g><path id="_Tracé_4" data-name="&lt;Tracé&gt;" class="cls-1" d="M65.28,55.59a3.38,3.38,0,0,0-5.19-1.42s-1.27-2.12-3.28-1.06-8.63,5-8.63,5,2,4.75,2.16,4.77S61.8,57.47,61.8,57.47Z"/><path id="_Tracé_5" data-name="&lt;Tracé&gt;" class="cls-2" d="M22.13,75.64,34.43,66a2.1,2.1,0,0,1,1.75-.39L46.7,68a9.78,9.78,0,0,0,7.78-2l12.34-7.84a1.65,1.65,0,0,0-.11-2.86h0a4.45,4.45,0,0,0-4.29.06l-8.36,4.75s-.47-2.52-2.29-2.88-7.86-.87-7.86-.87-6-5.44-10.2-2.86c-3.09,1.93-4,3.3-4.2,4a2.13,2.13,0,0,1-.7,1L16.36,68.27Z"/><path id="_Tracé_6" data-name="&lt;Tracé&gt;" class="cls-3" d="M54,59.4s0,.21,0,.29a2.61,2.61,0,0,1,0,.33,2.22,2.22,0,0,1-.12.5,1.75,1.75,0,0,1-.33.56,1.53,1.53,0,0,1-.65.42l-.21.06-.1,0h-.11l-.47,0c-.32,0-.65,0-1,0h-1c-1.38,0-2.75-.06-3.78-.11l-1.72-.1h0l1.72.13c1,.07,2.41.16,3.78.2h1c.34,0,.67,0,1,0l.48,0h.12l.12,0,.23-.05a1.74,1.74,0,0,0,.75-.45,2,2,0,0,0,.4-.63,2.85,2.85,0,0,0,.16-.55,2.91,2.91,0,0,0,0-.37c0-.08,0-.14,0-.14Z"/><rect id="_Rectangle_2" data-name="&lt;Rectangle&gt;" class="cls-4" x="16.77" y="61.93" width="14.22" height="13.23" transform="translate(-15.39 129.59) rotate(-128.05)"/><g id="Calque_2" data-name="Calque 2"><g id="Calque_1-2" data-name="Calque 1-2"><path class="cls-5" d="M62.92,12.21c-2.41-.93-5.31-1.87-8.45-2.74-2.38-.65-4.66-1.18-6.76-1.58C42,6.81,37.88,6.66,37.54,7.74c-.13.48.49,1.12,1.69,1.86A59.42,59.42,0,0,0,53,14.83c6.76,1.84,12.79,2.74,15.49,2.41.84-.11,1.41-.32,1.41-.69C70.2,15.6,67.39,13.94,62.92,12.21Z"/><path class="cls-6" d="M48.39,58.24h.53L48.07,58Z"/><path class="cls-7" d="M74.19,17.13c.84-2.93-7.6-7.79-19-10.89S34,3,33.09,6c-.34,1.18.84,2.66,3.1,4.22l-.25.38-.51.66h0l-.14.19,3.06,2.53L34,12.64l-.19.17-.76.48,1.41,1.12,3.9-.48,3,2.53L44.46,19l3.06,2.58-7-2.14,3.08,2.61-7-2.11,3,2.69-7-2.11,3.06,2.58-7-2.11,4-.46,4-.46-7-2.11,4.05-.48,4-.46,4-.51-7.06-2.12,3,2.58-6.69-2-.1.1,2.81,2.41L29.2,16.26a9.38,9.38,0,0,0-.84.79l1.12.95,3,2.53-5.83-1.75a15.49,15.49,0,0,0-1.55,2.59,23.65,23.65,0,0,0-1.27,3.12,25.46,25.46,0,0,0-1.22,6v1.27l1.27-.14h0l4-.46,3,2.53L34,36.19,37,38.76l3,2.68-7-2.11,3.06,2.59-7-2.17,3.06,2.58-7-2.11,3,2.58-3.79-1.14a25.15,25.15,0,0,0,5.35,8.45q.49.51,1,1h.21L34,53.69h0l4-.43-7.08-2.13,4-.46,4-.46,4-.46,3.06,2.58,3.06,2.58L52,57.48l-7-2.11,3.06,2.58L41,55.8l2.14,1.77a24.49,24.49,0,0,0,3.21.48h0L48,57.86l4-.46.45.38a24.77,24.77,0,0,0,8.82-3.14c.73-.44,1.41-.89,2.13-1.41l-4.59-1.39,4-.46L66.14,51l.19-.19-6.56-1.93,4-.46-7-2.11,3.08,2.58,3.06,2.58-7-2.11,4-.46-7-2.11,3.94-.48-7-2.11,4-.48,4-.46,4-.46,4-.46,3,2.58h0l1.5,1.28a32.94,32.94,0,0,0,1.69-2.89A20.1,20.1,0,0,0,73,40l.1-.32a23.45,23.45,0,0,0,.95-6.76L67.78,31l3,2.58-7-2.11,4-.46-7-2.11,4-.46-7-2.11,4-.46-7-2.17,4-.46,4-.46,3.92-.41,3.06,2.58,3,2.58h.28v-.19l-.38-1h0l-.19-.51L69.62,25l2.14-.31c-.14-.32-.3-.63-.41-.84l-4.81-1.41,4-.57a8.45,8.45,0,0,1-.24-1,11.27,11.27,0,0,1-.19-1.38v-.32C72.37,18.85,73.87,18.16,74.19,17.13ZM55.48,32.25l3.06,2.65,3.06,2.58-7.06-2.12,3.06,2.53-7-2.11,3,2.53-7-2.11,3.06,2.58-7-2.11,4-.46-7-2.11,4-.46-7-2.11,4-.46-7-2.11,4-.46,4-.41,4-.46,4.12-.52,3,2.53Zm13-14.95c-2.69.32-8.69-.57-15.49-2.41A59.42,59.42,0,0,1,39.2,9.66C38,8.92,37.38,8.25,37.51,7.8,37.81,6.72,42,6.85,47.7,8c2.07.4,4.35.93,6.76,1.58a88.38,88.38,0,0,1,8.45,2.74c4.48,1.69,7.28,3.38,7,4.37-.07.3-.57.52-1.44.62Z"/><path class="cls-8" d="M22.71,34.57a.36.36,0,0,0,0,.11H23Z"/><path class="cls-9" d="M25.1,40.26h0l-1.41-.41.17.57,1.21-.14Z"/><path class="cls-10" d="M68.43,48.63v-.08l.19-.25-.93-.3Z"/><polygon class="cls-11" points="51.51 32.66 55.48 32.19 48.45 30.06 51.51 32.66"/><polygon class="cls-12" points="45.94 52.33 38.91 50.2 41.96 52.8 45.94 52.33"/><polygon class="cls-13" points="53.62 43.75 56.68 46.33 60.65 45.86 53.62 43.75"/><polygon class="cls-14" points="26.94 34.17 26.94 34.17 30.91 33.71 23.89 31.6 26.94 34.17"/><polygon class="cls-15" points="45.01 55.37 48.98 54.91 41.96 52.8 45.01 55.37"/><polygon class="cls-16" points="41.05 55.82 41.05 55.84 45.01 55.37 37.99 53.24 41.03 55.84 41.05 55.82"/><polygon class="cls-17" points="54.57 35.23 58.54 34.77 51.51 32.66 54.57 35.23"/><polygon class="cls-18" points="64.63 45.4 57.6 43.29 60.65 45.86 64.63 45.4"/><path class="cls-19" d="M27.88,17.49a10.15,10.15,0,0,0-.72.76l2.36-.31Z"/><polygon class="cls-20" points="29.99 36.75 33.96 36.29 26.94 34.17 29.99 36.75"/><path class="cls-21" d="M34,53.71l.25.21a24.8,24.8,0,0,0,4.05,2.26h0L41,55.86Z"/><polygon class="cls-22" points="33.03 39.34 37 38.88 29.99 36.75 33.03 39.34"/><polygon class="cls-23" points="36.51 20.1 40.47 19.63 33.46 17.5 36.51 20.1"/><polygon class="cls-24" points="40.47 19.63 44.44 19.17 37.42 17.05 40.47 19.63"/><path class="cls-25" d="M64.25,52.76a8.45,8.45,0,0,0,.72-.59l-2.2-.66Z"/><polygon class="cls-26" points="34.93 50.67 37.99 53.24 41.96 52.8 34.93 50.67"/><path class="cls-27" d="M34.38,14.45h0l-2-.62c-.41.28-.89.63-1.41,1Z"/><path class="cls-28" d="M74.09,32.51A8.45,8.45,0,0,0,74,31.2l-2.22-.68Z"/><polygon class="cls-29" points="47.54 33.12 51.51 32.66 44.5 30.53 47.54 33.12"/><polygon class="cls-30" points="61.66 25.84 64.72 28.41 68.7 27.95 61.66 25.84"/><polygon class="cls-31" points="52.43 29.61 45.41 27.49 48.45 30.06 52.43 29.61"/><path class="cls-32" d="M72.65,27.49l-7-2.09,3.06,2.53,3.1,2.58-7-2.11L67.78,31h0l4-.46,2.05-.24h0l-.25-.84L68.66,28Z"/><polygon class="cls-33" points="58.62 23.25 61.66 25.84 65.64 25.38 58.62 23.25"/><polygon class="cls-34" points="50.6 35.7 54.57 35.23 47.54 33.12 50.6 35.7"/><path class="cls-35" d="M22.92,36.24a4.14,4.14,0,0,0,0,.48l.14.79,2.82-.34Z"/><path class="cls-36" d="M29.06,39.8l4-.51-7-2.08,4-.46-7-2.11,4-.46-4.22-1.31a11.27,11.27,0,0,0,.07,1.54l.27.23L26,37.21l3.06,2.54L23.29,38l.19.84,1.69,1.41Z"/><path class="cls-37" d="M68.58,44.93l-7-2.11,3.06,2.58L67.68,48l-7-2.11,3,2.58h0l4-.46,1.41-.15a11,11,0,0,0,.65-.92l-5.07-1.52Z"/><path class="cls-38" d="M66.49,50.81c.36-.35.72-.7,1.06-1.08v-.08l-3.9-1.18Z"/><polygon class="cls-39" points="48.45 30.06 41.45 27.95 44.5 30.53 48.45 30.06"/><polygon class="cls-40" points="40.52 30.99 43.57 33.58 47.54 33.12 40.52 30.99"/><polygon class="cls-41" points="69.61 24.91 62.58 22.78 65.64 25.38 69.61 24.91"/><polygon class="cls-42" points="46.62 36.16 50.6 35.7 43.57 33.58 46.62 36.16"/><polygon class="cls-43" points="37.47 28.41 40.52 30.99 44.5 30.53 37.47 28.41"/><polygon class="cls-6" points="49.38 27.02 45.41 27.49 52.43 29.61 49.38 27.02"/><polygon class="cls-6" points="49.68 38.74 46.62 36.16 42.65 36.62 49.68 38.74"/><polygon class="cls-6" points="45.41 27.49 41.45 27.95 48.45 30.06 45.41 27.49"/><polygon class="cls-6" points="48.45 30.06 55.48 32.19 52.43 29.61 48.45 30.06"/><polygon class="cls-6" points="39.59 34.03 46.62 36.16 43.57 33.58 39.59 34.03"/><polygon class="cls-6" points="53.65 38.28 50.6 35.7 46.62 36.16 53.65 38.28"/><polygon class="cls-6" points="41.45 27.95 37.47 28.41 44.5 30.53 41.45 27.95"/><polygon class="cls-6" points="51.51 32.66 48.45 30.06 44.5 30.53 51.51 32.66"/><polygon class="cls-6" points="58.54 34.77 55.48 32.19 51.51 32.66 58.54 34.77"/><polygon class="cls-6" points="36.55 31.46 43.57 33.58 40.52 30.99 36.55 31.46"/><polygon class="cls-6" points="43.57 33.58 50.6 35.7 47.54 33.12 43.57 33.58"/><polygon class="cls-6" points="57.63 37.81 54.57 35.23 50.6 35.7 57.63 37.81"/><polygon class="cls-6" points="33.5 28.88 40.52 30.99 37.47 28.41 33.5 28.88"/><polygon class="cls-6" points="44.5 30.53 40.52 30.99 47.54 33.12 44.5 30.53"/><polygon class="cls-6" points="47.54 33.12 54.57 35.23 51.51 32.66 47.54 33.12"/><polygon class="cls-6" points="61.58 37.36 58.54 34.77 54.57 35.23 61.58 37.36"/><path class="cls-6" d="M71.43,23.8c-.34-.69-.57-1.08-.57-1.08a6.52,6.52,0,0,1-.3-.84l-4,.46Z"/><polygon class="cls-6" points="66.55 22.33 62.58 22.78 69.61 24.91 66.55 22.33"/><path class="cls-6" d="M72.27,25.71c-.15-.38-.32-.73-.46-1.06l-2.18.25Z"/><polygon class="cls-6" points="60.75 28.88 67.77 30.99 64.72 28.41 60.75 28.88"/><path class="cls-6" d="M67.78,31h0l-4,.46,7,2.11-3-2.58,6.31,1.9v-.21a1,1,0,0,0,0-.17h0l-2.36-2Z"/><polygon class="cls-6" points="62.58 22.78 58.62 23.25 65.64 25.38 62.58 22.78"/><path class="cls-6" d="M72.65,27.49l-3-2.58-4,.46,7,2.11-4,.44,4.87,1.41v-.23c-.08-.3-.19-.59-.28-.89l-.14-.44a3.38,3.38,0,0,0-.14-.42Z"/><polygon class="cls-6" points="57.69 26.3 64.72 28.41 61.66 25.84 57.69 26.3"/><polygon class="cls-6" points="68.7 27.95 64.72 28.41 71.74 30.53 68.7 27.95"/><path class="cls-6" d="M74,31.22a6.21,6.21,0,0,0-.19-.91l-2,.24Z"/><polygon class="cls-6" points="54.64 23.71 61.66 25.84 58.62 23.25 54.64 23.71"/><polygon class="cls-6" points="65.64 25.38 61.66 25.84 68.7 27.95 65.64 25.38"/><path class="cls-6" d="M35.29,11.41h0l-.18.13A8.8,8.8,0,0,1,34,12.72L38.32,14Z"/><polygon class="cls-6" points="35.58 23.14 32.54 20.56 28.57 21.01 35.58 23.14"/><path class="cls-6" d="M29.51,17.93l-2.36.23h0l-.46.57,5.74,1.82Z"/><polygon class="cls-6" points="39.55 22.67 36.51 20.1 32.54 20.56 39.55 22.67"/><path class="cls-6" d="M34.38,14.45l7,2.11-3.07-2.63-4,.46L33,13.27l-.73.51,2.07.62h0l-3.49.47H30.8l-.11.08,6.73,2Z"/><polygon class="cls-6" points="44.44 19.17 41.4 16.58 37.42 17.05 44.44 19.17"/><path class="cls-6" d="M28.35,17a4.94,4.94,0,0,0-.48.46l1.6.45Z"/><polygon class="cls-6" points="29.49 17.97 36.51 20.1 33.46 17.5 29.49 17.97"/><polygon class="cls-6" points="43.53 22.21 40.47 19.63 36.51 20.1 43.53 22.21"/><path class="cls-6" d="M30.61,15.12l-.84.69-.53.45,4.22,1.27Z"/><polygon class="cls-6" points="33.46 17.5 40.47 19.63 37.42 17.05 33.46 17.5"/><polygon class="cls-6" points="47.5 21.74 44.44 19.17 40.47 19.63 47.5 21.74"/><path class="cls-6" d="M58.83,52l4.6,1.41.84-.61-1.41-1.24Z"/><polygon class="cls-6" points="61.57 42.82 57.6 43.29 64.63 45.4 61.57 42.82"/><path class="cls-6" d="M68.6,44.93l-3.08-2.58-4,.46,7,2.11-3.9.48,5.05,1.52a6.76,6.76,0,0,0,.38-.57v-.13l-1.49-1.29Z"/><polygon class="cls-6" points="62.78 51.5 59.74 48.92 55.77 49.38 62.78 51.5"/><path class="cls-6" d="M65,52.16a13.07,13.07,0,0,0,1.2-1.06l-3.38.4Z"/><polygon class="cls-6" points="57.6 43.29 53.62 43.75 60.65 45.86 57.6 43.29"/><polygon class="cls-6" points="67.68 47.99 64.63 45.4 60.65 45.86 67.68 47.99"/><path class="cls-6" d="M68.68,48.29c.11-.15.23-.3.32-.45L67.59,48Z"/><polygon class="cls-6" points="59.74 48.92 56.68 46.33 52.71 46.79 59.74 48.92"/><path class="cls-6" d="M63.7,48.45l-3.06-2.58-4,.46,7,2.11-4,.48,6.61,2,.11-.11-2.82-2.36Z"/><polygon class="cls-6" points="49.65 44.22 56.68 46.33 53.62 43.75 49.65 44.22"/><path class="cls-6" d="M63.71,48.45l3.9,1.18h0c.27-.3.51-.61.76-.93l-.69-.63Z"/><polygon class="cls-6" points="42.88 49.74 38.91 50.2 45.94 52.33 42.88 49.74"/><polygon class="cls-6" points="38.91 50.2 34.93 50.67 41.96 52.8 38.91 50.2"/><polygon class="cls-6" points="48.98 54.91 45.94 52.33 41.96 52.8 48.98 54.91"/><polygon class="cls-6" points="30.96 51.13 37.99 53.24 34.93 50.67 30.96 51.13"/><polygon class="cls-6" points="41.96 52.8 37.99 53.24 45.01 55.37 41.96 52.8"/><polygon class="cls-6" points="52.04 57.48 48.98 54.91 45.01 55.37 52.04 57.48"/><path class="cls-6" d="M46.41,58.15h2l-.32-.27Z"/><path class="cls-6" d="M30.89,51.13h-.23a25.56,25.56,0,0,0,2,1.69l1.1.84h.15Z"/><path class="cls-6" d="M48.06,57.95l-3-2.58-4,.46h0L38,53.26l-4,.45h0l.31.19L34,53.71l7,2.09-2.65.36a26,26,0,0,0,3.5,1.24c.45.11.9.23,1.41.31l-2.13-1.83Z"/><path class="cls-6" d="M48.06,57.95l.84.27h0A25.07,25.07,0,0,0,51.72,58l.76-.11-.44-.4Z"/><path class="cls-6" d="M25.1,40.26l7,2.11L29.06,39.8l-4,.46-1.69-1.41c.08.32.19.66.28,1l1.41.41h0l-1.22.23c.14.44.3.84.48,1.29l3.79,1.14Z"/><polygon class="cls-6" points="33.96 36.29 30.91 33.71 26.94 34.17 33.96 36.29"/><path class="cls-6" d="M22.7,34.42a.78.78,0,0,0,0,.15H23Z"/><path class="cls-6" d="M23,34.68,30,36.75l-3.11-2.58h0L23.88,31.6l7,2.06-3.08-2.58-4,.52h0l-1.27.14v1.14l4.31,1.29Z"/><polygon class="cls-6" points="37 38.88 33.96 36.29 29.99 36.75 37 38.88"/><path class="cls-6" d="M26,37.22l-2.82.34a2,2,0,0,0,.08.51l5.83,1.76Z"/><polygon class="cls-6" points="36.09 41.92 33.03 39.34 29.06 39.8 36.09 41.92"/><path class="cls-6" d="M23,34.68h-.25a10.59,10.59,0,0,0,.19,1.62l3.1.91Z"/><polygon class="cls-6" points="26.02 37.22 33.03 39.34 29.99 36.75 26.02 37.22"/><polygon class="cls-6" points="40.06 41.45 37 38.88 33.03 39.34 40.06 41.45"/></g><ellipse class="cls-6" cx="54.38" cy="11.7" rx="3.48" ry="17.32" transform="translate(29.89 61.64) rotate(-76.02)"/></g></svg>