<?xml version="1.0" encoding="utf-8"?>
<!-- Generator: Adobe Illustrator 21.0.0, SVG Export Plug-In . SVG Version: 6.00 Build 0)  -->
<svg version="1.1" id="Calque_1" xmlns="http://www.w3.org/2000/svg" xmlns:xlink="http://www.w3.org/1999/xlink" x="0px" y="0px"
	 viewBox="0 0 505 389" style="enable-background:new 0 0 505 389;" xml:space="preserve">
<style type="text/css">
	.t0{clip-path:url(#SVGID_2_);fill:#A4BFEA;}
	.t1{clip-path:url(#SVGID_2_);}
	.t2{fill:#4160A1;}
	.t3{fill:#664479;}
	.t4{fill:#E7323D;}
	.t5{fill:#EA8C34;}
	.t6{fill:#EFE43D;}
	.t7{fill:#2F8E52;}
	.t8{fill:#EEA83C;}
	.t9{fill:#7DB141;}
	.t10{fill:#F94675;}
	.t11{fill:#F7EE48;}
</style>
<g>
	<defs>
		<path id="SVGID_1_" d="M486.7,274.5c-0.7-18.8-15.9-33.2-29.7-45.9c-13.7-12.7-28.2-28.4-26.9-47.1c1.8-25,30.2-39.3,39-62.7
			c7.9-21-1.6-44.7-14.8-62.8c-17.9-24.5-47.5-44.8-76.6-37.1c-28.6,7.5-46.4,39.2-75.3,46c-21,4.9-42.8-4.8-60.7-17.1
			c-15.3-10.5-29.3-23-45.8-31.6c-21.3-11.1-49.7-12.1-72.5-5.5c-18.2,5.3-39.3,19.5-42.3,40c-1.7,11.6,6.4,20.9,7.9,31.9
			c2.8,21.2-19.9,23.2-27,39c-9.5,21,16.2,36.7,28.9,48.4c17.1,15.8,29.5,39.2,20.8,62.9c-8.5,23.3-31.3,36.6-40.1,59.8
			c-9.6,25.2,0.9,56.6,23.6,70.8c15.7,9.8,35.1,11.5,53.5,10.4c42.7-2.5,84.4-18.6,117.9-45.4c14-11.2,27.9-24.9,45.7-26.9
			c29.5-3.3,52.1,26.3,80.5,34.9c27.1,8.2,57.3-4.3,76.8-25.1C479.4,301.4,487.2,288.4,486.7,274.5z"/>
	</defs>
	<clipPath id="SVGID_2_">
		<use xlink:href="#SVGID_1_"  style="overflow:visible;"/>
	</clipPath>
	<rect x="5" y="-13" class="t0" width="520" height="389"/>
	<g class="t1">
		<path class="t2" d="M-53.1-5.8c19.6,7.9,97.8,39.6,116.4,49.7c7.1,3.8,14.5,7.9,22.5,8.1c8,0.2,15.6-3.6,23.6-4.4
			c7.4-0.8,15,1,22.3-0.6c7-1.6,13-6.1,18.7-10.5c2.9,1.4,5,4.9,4.5,8.1c-0.5,3.2-2.6,5.9-5.2,7.9c-2.6,1.9-5.6,3.2-8.6,4.4
			c-3.5,1.4-6.4,3.3-9.9,4.8c-3.4,1.5-6.9,4.2-7.1,8c-0.2,2.4,1,4.7,2.7,6.4c1.7,1.7,3.8,2.9,5.9,4c15.2,8.2,30.9,15.6,46.8,22.3
			c1.9,0.8,3.9,1.7,5.3,3.2c1.4,1.6,2,4,0.9,5.8c-0.9,1.3-2.5,1.9-4.1,1.9c-1.6,0-3.1-0.5-4.5-1.1l-38.7-13.7
			c-2.1-0.8-4.3,1.1-3.8,3.3c0.4,1.8,1.9,3.1,3.2,4.2c10.6,9.2,20.6,19.1,29.8,29.7c1.3,1.5,2.7,3.1,3.3,5.1c0.6,2,0.1,4.4-1.6,5.5
			c-1.4,0.9-3.2,0.7-4.7,0s-2.7-1.9-3.9-3c-9.9-9.7-23.9-21.9-35-30.2c-0.9-0.6-1.9,0.4-1.3,1.3l24.5,32.2c0.7,1,1.2,2.2,1.3,3.5
			c0.3,3.8-3,4.7-5.4,3.9c-1.5-0.5-2.8-1.6-4-2.7c-10.1-9.4-17.6-21.8-28.7-29.6c-1.4-1-3.2,0.5-2.6,2l9.4,26.1
			c0.4,1.2,0.5,2.5,0.2,3.7c-1.2,4.1-5.5,3.4-7.6,1.1c-1.6-1.7-2.2-4.1-2.9-6.3c-3.5-11.2-10.2-21.1-17.6-30.2
			c-7.3-9.2-12.9-20-22-27.4C47,72.6-44.2,40.9-73.6,32.8C-62.5,22-54.5,9.7-53.1-5.8z"/>
		<path class="t3" d="M578.5,398.6c-16.7-10-122.2-72.3-137.6-84.1c-5.9-4.5-12-9.3-19.3-10.6c-7.3-1.3-14.7,1-22,0.6
			c-6.8-0.4-13.5-3-20.3-2.6c-6.6,0.4-12.7,3.7-18.5,6.9c-2.5-1.7-3.8-5.2-2.9-8c0.9-2.8,3.2-5,5.8-6.4s5.5-2.1,8.4-2.8
			c3.4-0.8,6.3-2.1,9.6-2.9c3.3-0.9,6.9-2.9,7.6-6.2c0.5-2.1-0.3-4.4-1.6-6.2c-1.3-1.8-3-3.2-4.8-4.5c-12.6-9.6-25.8-18.5-39.3-26.9
			c-1.6-1-3.3-2.1-4.4-3.7c-1.1-1.6-1.3-4,0-5.4c1-1.1,2.6-1.3,4-1.1c1.4,0.2,2.7,0.9,4,1.6l33.2,18c1.8,1,4.1-0.4,3.9-2.5
			c-0.1-1.7-1.3-3-2.3-4.3c-8.3-9.9-16-20.3-22.8-31.2c-1-1.6-2-3.2-2.2-5.1c-0.2-1.9,0.5-4,2.2-4.7c1.4-0.6,3-0.2,4.3,0.6
			c1.2,0.9,2.2,2.1,3.1,3.3c7.6,10.2,18.6,23.3,27.4,32.4c0.7,0.7,1.8-0.1,1.4-1L377.8,209c-0.5-1-0.8-2.2-0.7-3.4
			c0.3-3.5,3.4-3.9,5.4-2.8c1.3,0.7,2.3,1.9,3.2,3c7.8,10,12.8,22.3,21.9,30.9c1.1,1.1,3,0,2.7-1.5l-4.8-25.1
			c-0.2-1.1-0.1-2.4,0.4-3.4c1.6-3.6,5.5-2.3,7.1,0.1c1.2,1.8,1.4,4,1.7,6.2c1.6,10.6,6.3,20.6,11.6,29.9c5.3,9.4,8.9,20,16,28
			c17.6,19.7,134.8,83.8,160.4,95.4C591,374.8,582,384.8,578.5,398.6z"/>
		<path class="t4" d="M582.6,45.9c-18.4,10.3-91.9,50.9-111.3,59c-7.4,3.1-15.2,6.2-20.4,12.4c-5.2,6.1-7,14.3-11.4,21
			c-4,6.2-10.2,11-13.5,17.6c-3.2,6.4-3.4,13.9-3.6,21.1c-2.9,1.4-6.9,0.8-9.1-1.6c-2.2-2.4-3-5.7-2.9-8.9c0.1-3.2,1-6.3,1.9-9.4
			c1.1-3.6,1.5-7,2.5-10.6c1-3.6,1-8-1.7-10.5c-1.7-1.6-4.3-2.1-6.7-1.9c-2.4,0.2-4.6,1.1-6.8,2.1c-15.9,6.6-31.4,14.2-46.6,22.3
			c-1.8,1-3.8,2-5.8,2.1c-2.1,0.1-4.4-1-5-3c-0.5-1.5,0.1-3.1,1.1-4.3c1-1.2,2.3-2,3.7-2.8l34.9-21.4c1.9-1.2,1.8-4-0.2-5
			c-1.6-0.8-3.5-0.5-5.3-0.2c-13.8,2.5-27.7,4-41.7,4.5c-2,0.1-4.1,0.1-6-0.7c-1.9-0.8-3.4-2.6-3.2-4.7c0.2-1.6,1.4-3,2.9-3.7
			c1.5-0.7,3.1-0.9,4.8-1.1c13.7-1.6,31.9-4.8,45.3-8.2c1-0.3,0.9-1.8-0.2-1.8l-40.2-1.2c-1.3-0.1-2.5-0.4-3.5-1.1
			c-3.1-2.1-1.8-5.2,0.3-6.6c1.4-0.9,3-1.2,4.6-1.4c13.6-1.9,27.9,0.1,40.9-3.8c1.6-0.5,1.6-2.7,0.1-3.3l-26.1-9
			c-1.2-0.4-2.3-1.1-3-2.2c-2.5-3.5,0.8-6.4,3.9-6.6c2.3-0.1,4.5,0.9,6.7,1.7c10.9,4.3,22.7,5.2,34.4,5.3c11.7,0.1,23.6,2.5,35,0.2
			c28-5.8,109.5-56.6,134.3-74.3C567,21.3,571.6,35.2,582.6,45.9z"/>
		<path class="t5" d="M202.6-84.5c8,18.9,39.9,94.4,45.7,114.1c2.2,7.5,4.5,15.4,9.9,21c5.4,5.6,13.2,8.3,19.2,13.2
			c5.6,4.6,9.6,11,15.7,14.9c5.9,3.8,13.1,4.8,20.1,5.6c1.1,2.9,0,6.8-2.5,8.6c-2.5,1.8-5.9,2.3-9,1.8c-3.1-0.4-6-1.7-8.9-2.9
			c-3.4-1.4-6.7-2.2-10.1-3.5c-3.4-1.3-7.6-1.8-10.4,0.6c-1.8,1.5-2.5,3.9-2.5,6.3c0,2.3,0.6,4.6,1.3,6.8
			c4.8,16.1,10.5,31.9,16.8,47.5c0.8,1.9,1.6,3.9,1.4,5.9c-0.1,2-1.4,4.2-3.4,4.6c-1.5,0.3-3-0.4-4.1-1.5c-1.1-1.1-1.7-2.5-2.4-3.9
			l-17.1-36c-0.9-2-3.7-2.2-4.9-0.3c-0.9,1.5-0.8,3.4-0.7,5.1c1,13.6,1,27.3,0.1,40.9c-0.1,2-0.3,4-1.3,5.8c-1,1.7-2.9,3.1-4.9,2.7
			c-1.6-0.3-2.7-1.7-3.3-3.2s-0.5-3.1-0.6-4.7c-0.1-13.4-1.4-31.5-3.2-44.8c-0.1-1-1.6-1-1.8,0l-5.3,38.9c-0.2,1.2-0.7,2.4-1.5,3.3
			c-2.4,2.8-5.3,1.2-6.4-1c-0.7-1.4-0.8-3-0.9-4.6c-0.4-13.4,3-27.1,0.6-40c-0.3-1.6-2.5-1.9-3.2-0.4l-11.5,24.4
			c-0.5,1.1-1.4,2.1-2.4,2.7c-3.6,2-6.2-1.5-6-4.5c0.1-2.3,1.3-4.3,2.4-6.3c5.3-10.1,7.4-21.5,8.7-32.8c1.3-11.3,4.9-22.6,3.8-33.9
			c-2.7-27.7-43.5-112.2-58.1-138C177.1-71.9,191-74.9,202.6-84.5z"/>
		<path class="t6" d="M180.1,506.2c4.8-18.9,42.4-144.5,49.3-162.7c2.6-6.9,5.4-14.1,4.6-21.5c-0.8-7.3-5.2-13.8-6.9-20.9
			c-1.6-6.7-0.9-13.8-3.3-20.2c-2.3-6.2-7.2-11.1-11.9-15.7c0.9-2.8,3.9-5.1,6.8-5.1c3,0.1,5.7,1.6,7.8,3.7c2.1,2.1,3.6,4.7,5.1,7.3
			c1.7,3,3.8,5.5,5.6,8.4c1.8,2.9,4.7,5.7,8.2,5.5c2.2-0.1,4.2-1.5,5.5-3.3c1.3-1.7,2.2-3.8,2.9-5.9c5.6-14.9,10.4-30.1,14.5-45.4
			c0.5-1.9,1-3.8,2.3-5.3c1.2-1.5,3.4-2.3,5.2-1.5c1.3,0.6,2,2.1,2.2,3.5c0.2,1.4-0.1,2.9-0.4,4.3l-7.8,37c-0.4,2,1.6,3.8,3.5,3
			c1.6-0.6,2.6-2.1,3.5-3.5c7.1-10.8,14.9-21.1,23.4-30.8c1.2-1.4,2.5-2.9,4.2-3.6c1.7-0.8,4-0.6,5.2,0.8c1,1.1,1.1,2.9,0.6,4.3
			c-0.5,1.4-1.4,2.7-2.3,3.9c-7.6,10.2-17,24.5-23.2,35.6c-0.5,0.9,0.6,1.7,1.3,1l26.3-26.3c0.8-0.8,1.9-1.4,3-1.6
			c3.4-0.7,4.7,2.1,4.2,4.4c-0.3,1.5-1.1,2.7-2,4c-7.3,10.3-17.7,18.7-23.4,29.8c-0.7,1.4,0.8,2.8,2.2,2.1l22.6-11.8
			c1-0.5,2.2-0.8,3.4-0.6c3.9,0.6,3.8,4.6,2,6.8c-1.4,1.6-3.5,2.5-5.4,3.4c-9.7,4.6-17.9,11.9-25.4,19.7
			c-7.4,7.8-16.6,14.2-22.3,23.4c-13.8,22.5-49.8,160-53.6,187.8C206.5,511.3,194.3,505.6,180.1,506.2z"/>
		<path class="t7" d="M-36.5,279.4c19-8.6,95.1-42.7,114.9-49.1c7.6-2.4,15.5-4.9,21.1-10.5c5.6-5.6,8.1-13.6,13-19.8
			c4.5-5.8,11-10,14.8-16.3c3.7-6.1,4.5-13.4,5.3-20.5c3-1.1,6.9-0.2,8.8,2.3c1.9,2.5,2.4,5.9,2.1,9.1c-0.4,3.2-1.5,6.2-2.7,9.1
			c-1.4,3.5-2.1,6.8-3.3,10.3c-1.3,3.5-1.7,7.8,0.8,10.5c1.6,1.8,4.1,2.5,6.4,2.4c2.4,0,4.7-0.7,6.9-1.5
			c16.3-5.2,32.2-11.4,47.9-18.2c1.9-0.8,3.9-1.7,6-1.6c2.1,0.1,4.3,1.3,4.7,3.3c0.3,1.5-0.4,3.1-1.5,4.2c-1.1,1.1-2.5,1.8-3.9,2.5
			L168.7,214c-2,1-2.1,3.8-0.2,5c1.6,0.9,3.5,0.8,5.2,0.6c13.8-1.3,27.7-1.6,41.5-1c2,0.1,4.1,0.2,5.9,1.2c1.8,0.9,3.2,2.9,2.8,4.9
			c-0.3,1.6-1.7,2.8-3.2,3.4c-1.5,0.6-3.2,0.6-4.8,0.7c-13.6,0.4-32,2.1-45.4,4.3c-1,0.2-1,1.7,0,1.8l39.7,4.5
			c1.2,0.2,2.4,0.6,3.4,1.4c2.9,2.4,1.3,5.3-0.9,6.5c-1.4,0.7-3.1,0.9-4.6,1c-13.6,0.8-27.6-2.4-40.7,0.3c-1.6,0.3-1.9,2.6-0.3,3.3
			l25.1,11.1c1.1,0.5,2.2,1.3,2.8,2.4c2.1,3.7-1.3,6.3-4.4,6.2c-2.3-0.1-4.4-1.2-6.5-2.3c-10.4-5.1-22-7.1-33.5-8.1
			c-11.5-1-23.1-4.5-34.6-3.1c-28.1,3.4-113,46.8-138.9,62.3C-23.1,305-26.4,291-36.5,279.4z"/>
	</g>
</g>
<g>
	<ellipse class="t8" cx="49.5" cy="221.5" rx="44.5" ry="47.2"/>
	<ellipse class="t9" cx="314.1" cy="347.7" rx="34.6" ry="36.7"/>
	<ellipse class="t10" cx="470.9" cy="182.4" rx="29.9" ry="31.7"/>
	<ellipse class="t11" cx="282.5" cy="34.8" rx="20.5" ry="21.7"/>
</g>
</svg>
