<svg id="Calque_1" data-name="Calque 1" xmlns="http://www.w3.org/2000/svg" xmlns:xlink="http://www.w3.org/1999/xlink" viewBox="0 0 27.25 28.09"><defs><clipPath id="clip-path"><path d="M.55,16.29a11.84,11.84,0,0,1,7-12.1h.1l.2-.2a.77.77,0,0,0,.1-.3c-1.1-.8-1.7-1.5-1.5-2.1.5-1.4,5.3-1.2,10.9.4s9.7,4,9.2,5.4c-.2.5-.9.8-2,.9h0v.1a2.25,2.25,0,0,0,.1.7c0,.2.1.3.1.5a.31.31,0,0,0,.1.2c2.1,4.2,1.8,8.9-1.8,13.3-4.6,5.6-14.4,6.1-19.6-.1A12.25,12.25,0,0,1,.55,16.29Z" style="fill:none"/></clipPath><linearGradient id="Dégradé_sans_nom_11" x1="0.15" y1="13.64" x2="27.8" y2="13.64" gradientTransform="translate(27.09 0.19) rotate(90)" gradientUnits="userSpaceOnUse"><stop offset="0" stop-color="#0087ce"/><stop offset="0.19" stop-color="#066fac"/><stop offset="0.41" stop-color="#0c588d"/><stop offset="0.62" stop-color="#104877"/><stop offset="0.82" stop-color="#123e6a"/><stop offset="1" stop-color="#133b65"/></linearGradient></defs><title>join-icon</title><g style="clip-path:url(#clip-path)"><rect x="-0.6" y="0.34" width="28.1" height="27.65" style="fill:url(#Dégradé_sans_nom_11)"/></g><g style="clip-path:url(#clip-path)"><path d="M6.82,3.81l1.7,1.4-2.4-.7a4.62,4.62,0,0,0,.7-.7Zm.2,6.4-1.7-1.4-2.2.3L7,10.21Zm-3.4-2.8-1.3.1h0c-.1.1-.2.2-.2.3l3.2,1-1.7-1.4ZM9.22,10l-1.7-1.4-2.2.3L9.22,10Zm-2.9-4.5,3.9,1.2-1.7-1.4-2.2.2-.7-.6c-.1.1-.3.2-.4.3l1.1.3h0l-1.9.2h-.1L8,6.81l-1.7-1.3ZM11.93,8l-1.7-1.4L8,6.91,11.93,8ZM3,6.81l-.3.3.9.3L3,6.81Zm.6.6,3.9,1.2-1.7-1.5-2.2.3Zm7.8,2.3-1.7-1.4-2.2.3,3.9,1.1Zm-7.2-3.9c-.1.1-.3.2-.5.4l-.3.3,2.4.6-1.6-1.3Zm1.6,1.3,3.9,1.2L8,6.91l-2.2.2Zm7.8,2.3L11.93,8l-2.2.3,3.9,1.1Z" style="fill:#fff"/></g><g style="clip-path:url(#clip-path)"><path d="M25.39,10.52l-2.5-.7,2.1-.2c0,.1.1.3.1.4s.2.2.3.5ZM23,9.83l-2.1.2,3.6,1.1L23,9.83Zm2.9,1.7a1.69,1.69,0,0,1-.2-.5l-1.1.1,1.3.4ZM20,13.23l3.6,1.1L22,13l-2,.2Zm3.6,1.1h0l-2.1.2,3.6,1.1-1.5-1.3,3.1,1v-.1c.2,0,.2-.1.3-.1h0l-1.3-1-2.1.2ZM20.89,10l-2.1.2,3.6,1.1L20.89,10Zm5.2,2.4-1.6-1.3-2.1.2,3.7,1.1-2,.2,2.5.8v-.1c0-.2-.1-.3-.1-.5s-.1-.1-.1-.2,0-.1-.1-.2Zm-7.7-.6,3.6,1.1-1.6-1.3-2,.2Zm5.7.9-2.1.2,3.6,1.1-1.5-1.3Zm2.7,1.7c0-.2-.1-.3-.1-.5l-1.1.1,1.2.4Zm-10-3.9,3.6,1.1-1.6-1.3-2,.2Zm5.7.8-2.1.3,3.6,1.1-1.5-1.4Z" style="fill:#fff"/></g><g style="clip-path:url(#clip-path)"><path d="M14.05,12.19l1.5,1.3-3.6-1.1,2.1-.2Zm.2,6-1.5-1.3-2,.2,3.5,1.1Zm-2.2-5.7-2,.2,3.6,1.1-1.6-1.3Zm1.6,1.3,3.6,1.1-1.5-1.3-2.1.2Zm-4.5,2,3.6,1.1-1.5-1.3-2.1.2Zm7.1,2.1-1.5-1.3-2,.2,3.5,1.1Zm-6.2-5.2-2,.2,3.6,1.1-1.6-1.3Zm5.1,2.4-1.5-1.3-2,.2,3.5,1.1Zm3.6,1.1-1.5-1.3-2,.2,3.5,1.1Zm-11.1-1.7,3.6,1.1-1.5-1.3-2.1.2Zm3.5,1.1,3.6,1.1-1.5-1.3-2.1.2Zm7.1,2.1-1.5-1.3-2,.2,3.5,1.1Zm-12.2-4.5,3.6,1.1L8.15,13l-2.1.2Zm5.6.8-2,.2,3.6,1.1L11.65,14Zm1.5,1.3,3.6,1.1-1.5-1.3-2.1.2Zm7.1,2.2-1.5-1.3-2,.2,3.5,1.1Z" style="fill:#fff"/></g><g style="clip-path:url(#clip-path)"><path d="M1.43,19l1.5,1.3L1,19.66a1.42,1.42,0,0,1-.2-.6l.6-.1h0l-.6-.2c0-.2-.1-.3-.1-.5l.7.7,2-.2,1.5,1.3L1.43,19Zm4.5-2-1.5-1.3-2,.2L5.93,17Zm-5.7-.9h0l.2.1-.2-.1Zm.2.1,3.5,1.1L2.43,16h0l-1.5-1.3,3.5,1-1.5-1.3-2,.2h0l-.6.1v.6l2.1.7-2,.2Zm7,2.1L5.93,17l-2,.2,3.5,1.1Zm-5.5-.8-1.4.2c0,.1,0,.2.1.2l2.8.9-1.5-1.3Zm5,2.3-1.5-1.2-2,.2,3.5,1Zm-6.5-3.6H.33c0,.3.1.5.1.8l1.6.5-1.6-1.3Zm1.5,1.3,3.5,1.1-1.5-1.3-2,.2Zm7,2.1-1.5-1.3-2,.2,3.5,1.1Z" style="fill:#fff"/></g><g style="clip-path:url(#clip-path)"><path d="M18.9,24.35l1.9-.2.7.6c-.1.1-.3.2-.4.3l-2.2-.7ZM20.3,20l-1.9.2,3.4,1L20.3,20ZM23.6,21l-1.4-1.3-1.9.2L23.6,21l-1.9.2,2.4.7c.1-.1.1-.2.2-.3v-.1l-.7-.5Zm-2.7,3.1L19.4,23l-1.9.2,3.4,1Zm1,.3c.2-.2.4-.3.6-.5l-1.6.2,1,.3Zm-3.5-4.2-1.9.2,3.4,1-1.5-1.2Zm4.8,2.2-1.5-1.2-1.9.2,3.4,1Zm.5.2.2-.2-.6.1.4.1Zm-4.3.3-1.5-1.2-1.9.1L19.4,23Zm1.9-.3-1.5-1.2-1.9.2,3.4,1-1.9.2,3.2,1,.1-.1-1.4-1.1Zm-6.8-2,3.4,1-1.5-1.2-1.9.2Zm6.8,2,1.9.6h0c.1-.1.2-.3.4-.4l-.4-.3-1.9.1Z" style="fill:#fff"/></g><g style="clip-path:url(#clip-path)"><path d="M10.75,23.89l1.5,1.3-3.5-1,2-.3Zm-2,.3-2,.2,3.5,1-1.5-1.2Zm5,2.3-1.5-1.3-2,.2,3.5,1.1Zm-8.9-1.9,3.5,1-1.6-1.2-1.9.2Zm5.4.9-2,.2,3.5,1-1.5-1.2Zm5,2.3-1.5-1.3-2,.2,3.5,1.1Zm-2.8.3h1l-.2-.1-.8.1Zm-7.6-3.5h-.1a7,7,0,0,0,1,.8,2.18,2.18,0,0,1,.5.4h.1l-1.5-1.2Zm8.4,3.4-1.5-1.3-2,.2h0l-1.5-1.2-2,.2h0c.1,0,.1.1.2.1l-.1-.1,3.5,1-1.3.2c.6.2,1.1.4,1.7.6a6.37,6.37,0,0,0,.7.2L9.75,27l3.5,1Zm0,0,.4.1h0A6.6,6.6,0,0,0,15,28a.6.6,0,0,0,.4-.1l-.2-.2-2,.3Z" style="fill:#fff"/></g><path d="M21.25,4.69c-1.2-.4-2.6-.9-4.1-1.3-1.1-.3-2.3-.6-3.3-.8C11,2.09,9,2,8.95,2.49c-.1.2.2.6.8.9a25.68,25.68,0,0,0,6.7,2.5,23.56,23.56,0,0,0,7.5,1.2c.4-.1.7-.2.7-.3C24.75,6.39,23.35,5.59,21.25,4.69Z" style="fill:#fff"/></svg>