<svg id="Calque_1" data-name="Calque 1" xmlns="http://www.w3.org/2000/svg" xmlns:xlink="http://www.w3.org/1999/xlink" viewBox="0 0 83 79"><defs><linearGradient id="Dégradé_sans_nom" x1="53.41" y1="765.98" x2="39.47" y2="810.8" gradientTransform="translate(0 -749.78)" gradientUnits="userSpaceOnUse"><stop offset="0" stop-color="#0088cf"/><stop offset="1" stop-color="#133b65"/></linearGradient><linearGradient id="Dégradé_sans_nom_2" x1="30.06" y1="758.72" x2="16.12" y2="803.54" xlink:href="#Dégradé_sans_nom"/><linearGradient id="Dégradé_sans_nom_3" x1="80" y1="774.25" x2="66.06" y2="819.07" xlink:href="#Dégradé_sans_nom"/><linearGradient id="Dégradé_sans_nom_4" x1="56.83" y1="767.04" x2="42.89" y2="811.86" xlink:href="#Dégradé_sans_nom"/><linearGradient id="Dégradé_sans_nom_5" x1="53.28" y1="765.94" x2="39.34" y2="810.77" xlink:href="#Dégradé_sans_nom"/><linearGradient id="Dégradé_sans_nom_6" x1="67" y1="770.21" x2="53.06" y2="815.03" xlink:href="#Dégradé_sans_nom"/><linearGradient id="Dégradé_sans_nom_7" x1="30.81" y1="758.95" x2="16.87" y2="803.78" xlink:href="#Dégradé_sans_nom"/><linearGradient id="Dégradé_sans_nom_8" x1="57.46" y1="767.24" x2="43.5" y2="812.07" xlink:href="#Dégradé_sans_nom"/><linearGradient id="Dégradé_sans_nom_9" x1="53.3" y1="765.96" x2="39.36" y2="810.78" xlink:href="#Dégradé_sans_nom"/><linearGradient id="Dégradé_sans_nom_10" x1="61" y1="768.34" x2="47.04" y2="813.17" xlink:href="#Dégradé_sans_nom"/><linearGradient id="Dégradé_sans_nom_11" x1="71.15" y1="771.49" x2="57.19" y2="816.32" xlink:href="#Dégradé_sans_nom"/><linearGradient id="Dégradé_sans_nom_12" x1="26.94" y1="757.74" x2="12.99" y2="802.57" xlink:href="#Dégradé_sans_nom"/><linearGradient id="Dégradé_sans_nom_13" x1="34.97" y1="760.25" x2="21.03" y2="805.06" xlink:href="#Dégradé_sans_nom"/><linearGradient id="Dégradé_sans_nom_14" x1="49.17" y1="764.67" x2="35.23" y2="809.48" xlink:href="#Dégradé_sans_nom"/><linearGradient id="Dégradé_sans_nom_15" x1="39.14" y1="761.54" x2="25.19" y2="806.36" xlink:href="#Dégradé_sans_nom"/><linearGradient id="Dégradé_sans_nom_16" x1="36.41" y1="760.69" x2="22.47" y2="805.51" xlink:href="#Dégradé_sans_nom"/><linearGradient id="Dégradé_sans_nom_17" x1="40.54" y1="761.97" x2="26.6" y2="806.8" xlink:href="#Dégradé_sans_nom"/><linearGradient id="Dégradé_sans_nom_18" x1="76.62" y1="773.21" x2="62.67" y2="818.04" xlink:href="#Dégradé_sans_nom"/><linearGradient id="Dégradé_sans_nom_19" x1="49.15" y1="764.66" x2="35.21" y2="809.48" xlink:href="#Dégradé_sans_nom"/><linearGradient id="Dégradé_sans_nom_20" x1="30.44" y1="758.83" x2="16.49" y2="803.66" xlink:href="#Dégradé_sans_nom"/><linearGradient id="Dégradé_sans_nom_21" x1="79.58" y1="774.13" x2="65.64" y2="818.94" xlink:href="#Dégradé_sans_nom"/><linearGradient id="Dégradé_sans_nom_22" x1="52.7" y1="765.76" x2="38.76" y2="810.58" xlink:href="#Dégradé_sans_nom"/><linearGradient id="Dégradé_sans_nom_23" x1="69.67" y1="771.04" x2="55.72" y2="815.87" xlink:href="#Dégradé_sans_nom"/><linearGradient id="Dégradé_sans_nom_24" x1="52.67" y1="765.76" x2="38.73" y2="810.58" xlink:href="#Dégradé_sans_nom"/><linearGradient id="Dégradé_sans_nom_25" x1="74.86" y1="772.65" x2="60.92" y2="817.48" xlink:href="#Dégradé_sans_nom"/><linearGradient id="Dégradé_sans_nom_26" x1="65.5" y1="769.74" x2="51.56" y2="814.57" xlink:href="#Dégradé_sans_nom"/><linearGradient id="Dégradé_sans_nom_27" x1="56.86" y1="767.05" x2="42.92" y2="811.88" xlink:href="#Dégradé_sans_nom"/><linearGradient id="Dégradé_sans_nom_28" x1="28.95" y1="758.37" x2="15" y2="803.19" xlink:href="#Dégradé_sans_nom"/><linearGradient id="Dégradé_sans_nom_29" x1="32.44" y1="759.45" x2="18.49" y2="804.28" xlink:href="#Dégradé_sans_nom"/><linearGradient id="Dégradé_sans_nom_30" x1="76.18" y1="773.07" x2="62.24" y2="817.9" xlink:href="#Dégradé_sans_nom"/><linearGradient id="Dégradé_sans_nom_31" x1="77.58" y1="773.49" x2="63.62" y2="818.32" xlink:href="#Dégradé_sans_nom"/><linearGradient id="Dégradé_sans_nom_32" x1="48.54" y1="764.47" x2="34.58" y2="809.3" xlink:href="#Dégradé_sans_nom"/><linearGradient id="Dégradé_sans_nom_33" x1="48.58" y1="764.47" x2="34.62" y2="809.3" xlink:href="#Dégradé_sans_nom"/><linearGradient id="Dégradé_sans_nom_34" x1="69.63" y1="771.03" x2="55.69" y2="815.85" xlink:href="#Dégradé_sans_nom"/><linearGradient id="Dégradé_sans_nom_35" x1="52.73" y1="765.77" x2="38.79" y2="810.6" xlink:href="#Dégradé_sans_nom"/><linearGradient id="Dégradé_sans_nom_36" x1="44.41" y1="763.19" x2="30.47" y2="808" xlink:href="#Dégradé_sans_nom"/></defs><title>penalities</title><g id="Calque_2" data-name="Calque 2"><g id="Calque_1-2" data-name="Calque 1-2"><path d="M62,19.79c-2.85-1.1-6.29-2.22-10-3.24-2.82-.77-5.52-1.4-8-1.87-6.79-1.3-11.67-1.47-12.07-.18-.15.57.58,1.33,2,2.2a70.36,70.36,0,0,0,16.34,6.2c8,2.18,15.14,3.24,18.34,2.85,1-.13,1.67-.38,1.67-.82C70.66,23.81,67.32,21.85,62,19.79Z" style="fill:none"/><path d="M44.83,74.29h.63l-1-.32Z" style="fill:#fff"/><path d="M75.38,25.63c1-3.47-9-9.22-22.48-12.89s-25.15-3.8-26.18-.33c-.4,1.4,1,3.15,3.67,5l-.3.45-.6.78h0l-.17.22,3.62,3L27.8,20.31l-.23.2-.9.57,1.67,1.33L33,21.85l3.6,3,3.62,3.05,3.62,3.05-8.34-2.5,3.62,3.07L30.73,29l3.59,3.19L26,29.68l3.62,3.05-8.34-2.5L26,29.68l4.7-.55-8.34-2.5,4.8-.57,4.7-.55,4.7-.6-8.34-2.5,3.6,3.05L23.9,23.13l-.12.12,3.34,2.85-5-1.5c-.35.3-.7.6-1,.93l1.33,1.12,3.57,3-6.84-2.08a18.34,18.34,0,0,0-1.83,3.07,28,28,0,0,0-1.5,3.69,30.15,30.15,0,0,0-1.47,7.1v1.47l1.5-.17h0l4.7-.55,3.6,3,3.62,3,3.62,3.05L35,54.36l-8.34-2.5,3.62,3.07-8.34-2.5,3.62,3.05L17.21,53,20.81,56l-4.49-1.35a29.78,29.78,0,0,0,6.34,10q.58.6,1.2,1.17h.28l3.67,3.09h0l4.67-.55-8.34-2.5,4.7-.55,4.7-.55,4.7-.55,3.62,3.05,3.62,3.05,3.67,3.05-8.34-2.5,3.62,3.05-8.34-2.5,2.53,2.1a29,29,0,0,0,3.8.57h0l1.92-.23,4.7-.55.53.45A29.33,29.33,0,0,0,60,70.06c.87-.52,1.67-1.05,2.52-1.67L57.1,66.72l4.69-.55,4.05-.4.23-.22L58.3,63.27,63,62.72l-8.34-2.5,3.65,3.05,3.62,3.05-8.34-2.5,4.72-.55L50,60.77l4.67-.57-8.34-2.5,4.7-.57,4.74-.55,4.7-.55,4.7-.55,3.6,3.05h0l1.78,1.52a39,39,0,0,0,2-3.42A23.8,23.8,0,0,0,74,52.71l.12-.38a27.77,27.77,0,0,0,1.12-8L67.77,42l3.6,3.05L63,42.59l4.7-.55-8.34-2.5L64.17,39l-8.34-2.5,4.7-.55-8.34-2.5,4.7-.55,4.7-.55,4.64-.48,3.62,3.05L73.46,38h.33V37.7l-.45-1.17h0l-.23-.6L70,35l2.53-.37c-.17-.38-.35-.75-.48-1l-5.7-1.67L71,31.23a10,10,0,0,1-.28-1.18,13.34,13.34,0,0,1-.23-1.67V28C73.23,27.67,75,26.85,75.38,25.63ZM53.23,43.53l3.62,3.14,3.62,3.05-8.34-2.5,3.62,3-8.34-2.5,3.59,3-8.34-2.5,3.62,3.05-8.34-2.5,4.72-.55-8.34-2.5,4.7-.55-8.34-2.5,4.7-.55L27,39.56l4.7-.55,4.7-.48,4.7-.55L46,37.4l3.62,3.05ZM68.62,25.83c-3.19.38-10.29-.67-18.34-2.85a70.36,70.36,0,0,1-16.34-6.2c-1.42-.87-2.15-1.67-2-2.2.35-1.28,5.29-1.12,12.07.18,2.45.47,5.15,1.1,8,1.87a104.65,104.65,0,0,1,10,3.24c5.3,2,8.62,4,8.34,5.17-.08.35-.68.62-1.7.73Z" style="fill:url(#Dégradé_sans_nom)"/><path d="M14.42,46.28a.43.43,0,0,0,0,.13h.3Z" style="fill:#052550"/><path d="M17.26,53h0l-1.67-.48.2.67L17.23,53Z" style="fill:url(#Dégradé_sans_nom_2)"/><path d="M68.56,62.92v-.1l.22-.3-1.1-.35Z" style="fill:url(#Dégradé_sans_nom_3)"/><polygon points="48.53 44.01 53.23 43.46 44.91 40.94 48.53 44.01" style="fill:url(#Dégradé_sans_nom_4)"/><polygon points="41.92 67.31 33.6 64.79 37.22 67.86 41.92 67.31" style="fill:url(#Dégradé_sans_nom_5)"/><polygon points="51.03 57.15 54.65 60.2 59.35 59.65 51.03 57.15" style="fill:url(#Dégradé_sans_nom_6)"/><polygon points="19.43 45.81 19.43 45.81 24.13 45.26 15.83 42.76 19.43 45.81" style="fill:url(#Dégradé_sans_nom_7)"/><polygon points="40.82 70.91 45.53 70.36 37.22 67.86 40.82 70.91" style="fill:url(#Dégradé_sans_nom_8)"/><polygon points="36.14 71.44 36.14 71.46 40.82 70.91 32.52 68.39 36.12 71.46 36.14 71.44" style="fill:url(#Dégradé_sans_nom_9)"/><polygon points="52.15 47.06 56.85 46.51 48.53 44.01 52.15 47.06" style="fill:url(#Dégradé_sans_nom_10)"/><polygon points="64.06 59.1 55.73 56.6 59.35 59.65 64.06 59.1" style="fill:url(#Dégradé_sans_nom_11)"/><path d="M20.55,26q-.45.43-.85.9l2.79-.37Z" style="fill:url(#Dégradé_sans_nom_12)"/><polygon points="23.05 48.86 27.75 48.31 19.43 45.81 23.05 48.86" style="fill:url(#Dégradé_sans_nom_13)"/><path d="M27.82,68.94l.3.25a29.37,29.37,0,0,0,4.8,2.68h0l3.19-.38Z" style="fill:url(#Dégradé_sans_nom_14)"/><polygon points="26.65 51.93 31.35 51.38 23.05 48.86 26.65 51.93" style="fill:url(#Dégradé_sans_nom_15)"/><polygon points="30.77 29.13 35.45 28.58 27.15 26.07 30.77 29.13" style="fill:url(#Dégradé_sans_nom_16)"/><polygon points="35.45 28.58 40.16 28.03 31.85 25.53 35.45 28.58" style="fill:url(#Dégradé_sans_nom_17)"/><path d="M63.6,67.81a10,10,0,0,0,.85-.7l-2.6-.78Z" style="fill:url(#Dégradé_sans_nom_18)"/><polygon points="28.9 65.34 32.52 68.39 37.22 67.86 28.9 65.34" style="fill:url(#Dégradé_sans_nom_19)"/><path d="M28.23,22.46h0l-2.42-.73c-.48.33-1.05.75-1.67,1.22Z" style="fill:url(#Dégradé_sans_nom_20)"/><path d="M75.26,43.84a10,10,0,0,0-.12-1.55l-2.63-.8Z" style="fill:url(#Dégradé_sans_nom_21)"/><polygon points="43.83 44.56 48.53 44.01 40.22 41.49 43.83 44.56" style="fill:url(#Dégradé_sans_nom_22)"/><polygon points="60.55 35.94 64.17 38.99 68.87 38.44 60.55 35.94" style="fill:url(#Dégradé_sans_nom_23)"/><polygon points="49.61 40.41 41.31 37.89 44.91 40.94 49.61 40.41" style="fill:url(#Dégradé_sans_nom_24)"/><path d="M73.56,37.89l-8.34-2.5,3.62,3.05,3.67,3.05L64.17,39,67.79,42h0l4.69-.55,2.43-.28h0l-.3-1-5.77-1.67Z" style="fill:url(#Dégradé_sans_nom_25)"/><polygon points="56.93 32.87 60.55 35.94 65.25 35.39 56.93 32.87" style="fill:url(#Dégradé_sans_nom_26)"/><polygon points="47.45 47.61 52.15 47.06 43.83 44.56 47.45 47.61" style="fill:url(#Dégradé_sans_nom_27)"/><path d="M14.68,48.26a4.9,4.9,0,0,0,0,.57l.17.93,3.34-.4Z" style="fill:url(#Dégradé_sans_nom_28)"/><path d="M21.95,52.46l4.7-.6-8.34-2.5,4.7-.55-8.34-2.5,4.69-.55-5-1.55A13.34,13.34,0,0,0,14.44,46l.32.27,3.62,3.05L22,52.4l-6.9-2.07.23,1,2,1.67Z" style="fill:url(#Dégradé_sans_nom_29)"/><path d="M68.74,58.53,60.4,56,64,59.08l3.65,3.07-8.34-2.5,3.6,3.05h0l4.74-.55L69.34,62a13.07,13.07,0,0,0,.75-1.08l-6-1.8Z" style="fill:url(#Dégradé_sans_nom_30)"/><path d="M66.26,65.5c.43-.42.85-.83,1.25-1.28v-.1l-4.62-1.4Z" style="fill:url(#Dégradé_sans_nom_31)"/><polygon points="44.91 40.94 36.6 38.44 40.22 41.49 44.91 40.94" style="fill:url(#Dégradé_sans_nom_32)"/><polygon points="35.52 42.04 39.12 45.11 43.83 44.56 35.52 42.04" style="fill:url(#Dégradé_sans_nom_33)"/><polygon points="69.96 34.84 61.64 32.32 65.25 35.39 69.96 34.84" style="fill:url(#Dégradé_sans_nom_34)"/><polygon points="42.74 48.16 47.45 47.61 39.12 45.11 42.74 48.16" style="fill:url(#Dégradé_sans_nom_35)"/><polygon points="31.9 38.99 35.52 42.04 40.22 41.49 31.9 38.99" style="fill:url(#Dégradé_sans_nom_36)"/><polygon points="46.01 37.34 41.31 37.89 49.61 40.41 46.01 37.34" style="fill:#fff"/><polygon points="46.36 51.21 42.74 48.16 38.04 48.71 46.36 51.21" style="fill:#fff"/><polygon points="41.31 37.89 36.6 38.44 44.91 40.94 41.31 37.89" style="fill:#fff"/><polygon points="44.91 40.94 53.23 43.46 49.61 40.41 44.91 40.94" style="fill:#fff"/><polygon points="34.42 45.64 42.74 48.16 39.12 45.11 34.42 45.64" style="fill:#fff"/><polygon points="51.06 50.66 47.45 47.61 42.74 48.16 51.06 50.66" style="fill:#fff"/><polygon points="36.6 38.44 31.9 38.99 40.22 41.49 36.6 38.44" style="fill:#fff"/><polygon points="48.53 44.01 44.91 40.94 40.22 41.49 48.53 44.01" style="fill:#fff"/><polygon points="56.85 46.51 53.23 43.46 48.53 44.01 56.85 46.51" style="fill:#fff"/><polygon points="30.82 42.59 39.12 45.11 35.52 42.04 30.82 42.59" style="fill:#fff"/><polygon points="39.12 45.11 47.45 47.61 43.83 44.56 39.12 45.11" style="fill:#fff"/><polygon points="55.77 50.11 52.15 47.06 47.45 47.61 55.77 50.11" style="fill:#fff"/><polygon points="27.2 39.54 35.52 42.04 31.9 38.99 27.2 39.54" style="fill:#fff"/><polygon points="40.22 41.49 35.52 42.04 43.83 44.56 40.22 41.49" style="fill:#fff"/><polygon points="43.83 44.56 52.15 47.06 48.53 44.01 43.83 44.56" style="fill:#fff"/><polygon points="60.45 49.58 56.85 46.51 52.15 47.06 60.45 49.58" style="fill:#fff"/><path d="M72.06,33.52c-.4-.82-.67-1.28-.67-1.28a7.72,7.72,0,0,1-.35-1l-4.7.55Z" style="fill:#fff"/><polygon points="66.34 31.79 61.64 32.32 69.96 34.84 66.34 31.79" style="fill:#fff"/><path d="M73.09,35.79c-.18-.45-.38-.87-.55-1.25l-2.58.3Z" style="fill:#fff"/><polygon points="59.47 39.54 67.77 42.04 64.17 38.99 59.47 39.54" style="fill:#fff"/><path d="M67.79,42h0l-4.7.55,8.34,2.5L67.82,42l7.47,2.25V44a1.12,1.12,0,0,0,0-.2h0l-2.79-2.35Z" style="fill:#fff"/><polygon points="61.64 32.32 56.93 32.87 65.25 35.39 61.64 32.32" style="fill:#fff"/><path d="M73.56,37.89,70,34.84l-4.7.55,8.34,2.5-4.69.55,5.77,1.67v-.27c-.1-.35-.22-.7-.33-1.05l-.17-.52a4,4,0,0,0-.17-.5Z" style="fill:#fff"/><polygon points="55.85 36.49 64.17 38.99 60.55 35.94 55.85 36.49" style="fill:#fff"/><polygon points="68.87 38.44 64.17 38.99 72.48 41.49 68.87 38.44" style="fill:#fff"/><path d="M75.14,42.31a7.35,7.35,0,0,0-.23-1.08l-2.4.28Z" style="fill:#fff"/><polygon points="52.23 33.42 60.55 35.94 56.93 32.87 52.23 33.42" style="fill:#fff"/><polygon points="65.25 35.39 60.55 35.94 68.87 38.44 65.25 35.39" style="fill:#fff"/><path d="M29.32,18.86h0l-.17.15a10.42,10.42,0,0,1-1.38,1.37l5.14,1.55Z" style="fill:#fff"/><polygon points="29.67 32.73 26.07 29.68 21.36 30.22 29.67 32.73" style="fill:#fff"/><path d="M22.48,26.58l-2.79.27h0l-.55.67,6.8,2.15Z" style="fill:#fff"/><polygon points="34.37 32.19 30.77 29.13 26.07 29.68 34.37 32.19" style="fill:#fff"/><path d="M28.23,22.46,36.57,25l-3.64-3.12-4.7.55-1.58-1.33-.87.6,2.45.73h0l-4.09.55H24l-.13.1,7.94,2.38Z" style="fill:#fff"/><polygon points="40.16 28.03 36.55 24.98 31.85 25.53 40.16 28.03" style="fill:#fff"/><path d="M21.11,25.5a5.85,5.85,0,0,0-.57.55l1.9.53Z" style="fill:#fff"/><polygon points="22.45 26.61 30.77 29.13 27.15 26.07 22.45 26.61" style="fill:#fff"/><polygon points="39.07 31.64 35.45 28.58 30.77 29.13 39.07 31.64" style="fill:#fff"/><path d="M23.78,23.25l-1,.82-.63.53,5,1.5Z" style="fill:#fff"/><polygon points="27.15 26.07 35.45 28.58 31.85 25.53 27.15 26.07" style="fill:#fff"/><polygon points="43.78 31.08 40.16 28.03 35.45 28.58 43.78 31.08" style="fill:#fff"/><path d="M57.18,66.87l5.45,1.67,1-.72-1.67-1.47Z" style="fill:#fff"/><polygon points="60.44 56.05 55.73 56.6 64.06 59.1 60.44 56.05" style="fill:#fff"/><path d="M68.76,58.53l-3.6-3.05-4.7.55,8.34,2.5-4.62.57,5.94,1.8a8,8,0,0,0,.45-.68v-.15l-1.77-1.53Z" style="fill:#fff"/><polygon points="61.87 66.32 58.27 63.27 53.56 63.8 61.87 66.32" style="fill:#fff"/><path d="M64.47,67.11c.48-.38,1-.82,1.42-1.25l-4,.47Z" style="fill:#fff"/><polygon points="55.73 56.6 51.03 57.15 59.35 59.65 55.73 56.6" style="fill:#fff"/><polygon points="67.67 62.17 64.06 59.1 59.35 59.65 67.67 62.17" style="fill:#fff"/><path d="M68.86,62.52c.13-.18.27-.35.38-.53l-1.67.18Z" style="fill:#fff"/><polygon points="58.27 63.27 54.65 60.2 49.95 60.75 58.27 63.27" style="fill:#fff"/><path d="M63,62.7l-3.62-3.05-4.7.55L63,62.7l-4.7.57,7.85,2.38.13-.13-3.34-2.79Z" style="fill:#fff"/><polygon points="46.33 57.7 54.65 60.2 51.03 57.15 46.33 57.7" style="fill:#fff"/><path d="M63,62.7l4.62,1.4h0c.32-.35.6-.72.9-1.1l-.82-.75Z" style="fill:#fff"/><polygon points="38.31 64.24 33.6 64.79 41.92 67.31 38.31 64.24" style="fill:#fff"/><polygon points="33.6 64.79 28.9 65.34 37.22 67.86 33.6 64.79" style="fill:#fff"/><polygon points="45.53 70.36 41.92 67.31 37.22 67.86 45.53 70.36" style="fill:#fff"/><polygon points="24.2 65.89 32.52 68.39 28.9 65.34 24.2 65.89" style="fill:#fff"/><polygon points="37.22 67.86 32.52 68.39 40.82 70.91 37.22 67.86" style="fill:#fff"/><polygon points="49.15 73.41 45.53 70.36 40.82 70.91 49.15 73.41" style="fill:#fff"/><path d="M42.49,74.19h2.33l-.38-.32Z" style="fill:#fff"/><path d="M24.15,65.89h-.27c.77.72,1.57,1.37,2.4,2,.43.33.85.65,1.3,1h.18Z" style="fill:#fff"/><path d="M44.44,74l-3.62-3.05-4.69.55h0l-3.65-3.05-4.72.53h0l.37.23-.37-.23,8.34,2.5L33,71.88a30.8,30.8,0,0,0,4.17,1.43c.53.13,1.07.27,1.67.37l-2.55-2.17Z" style="fill:#fff"/><path d="M44.44,74l1,.32h0A29.68,29.68,0,0,0,48.78,74l.9-.13-.52-.45Z" style="fill:#fff"/><path d="M17.26,53l8.34,2.5-3.65-3.05-4.7.55-2-1.67c.1.38.22.78.33,1.17l1.67.48h0l-1.45.27c.17.52.35,1,.57,1.53l4.49,1.35Z" style="fill:#fff"/><polygon points="27.75 48.31 24.13 45.26 19.43 45.81 27.75 48.31" style="fill:#fff"/><path d="M14.41,46.09a.92.92,0,0,0,0,.18h.32Z" style="fill:#fff"/><path d="M14.73,46.36l8.34,2.5-3.64-3.05h0l-3.62-3.05,8.34,2.43L20.5,42.14l-4.69.62h0l-1.5.17v1.35l5.1,1.53Z" style="fill:#fff"/><polygon points="31.35 51.38 27.75 48.31 23.05 48.86 31.35 51.38" style="fill:#fff"/><path d="M18.34,49.41l-3.34.4a2.33,2.33,0,0,0,.13.57L22,52.46Z" style="fill:#fff"/><polygon points="30.27 54.98 26.65 51.93 21.95 52.46 30.27 54.98" style="fill:#fff"/><path d="M14.73,46.36h-.3a12.54,12.54,0,0,0,.23,1.92l3.67,1.12Z" style="fill:#fff"/><polygon points="18.34 49.41 26.65 51.93 23.05 48.86 18.34 49.41" style="fill:#fff"/><polygon points="34.97 54.43 31.35 51.38 26.65 51.93 34.97 54.43" style="fill:#fff"/></g><ellipse cx="51.92" cy="19.2" rx="4.12" ry="20.51" transform="translate(20.75 64.94) rotate(-76.02)" style="fill:#fff"/></g><path d="M54.05,71.62h22V70a1.49,1.49,0,0,0-1.49-1.49H55.54A1.49,1.49,0,0,0,54.05,70Z" style="fill:#f93"/><rect x="52.9" y="70.38" width="24.35" height="3.8" style="fill:#b17f4a"/><path d="M51.75,75.48H78.4v-2.8a1.25,1.25,0,0,0-1.25-1.25H53a1.25,1.25,0,0,0-1.25,1.25Z" style="fill:#f93"/><path d="M60.7,50.67,44.62,60.59c-10,7.08-16.4,11.8-22.48,14.77-.81.5-2-.58-2.51-1.39s-.92-2.37-.11-2.87C24.9,67,32,63.41,42.81,57.65l16.08-9.91Z" style="fill:#f93"/><rect x="58.55" y="38.61" width="10.15" height="16.45" transform="matrix(0.85, -0.52, 0.52, 0.85, -15.12, 40.36)" style="fill:#936037"/><rect x="57.87" y="40.93" width="11.52" height="11.82" transform="translate(-15.12 40.36) rotate(-31.66)" style="fill:#936037"/><path d="M61.15,54.93,61,54.75c-.23-.37,0-.94.55-1.26L70.48,48a1,1,0,0,1,1.37.08l.11.18c.23.37,0,.94-.55,1.26L62.53,55A1,1,0,0,1,61.15,54.93Z" style="fill:#b17f4a"/><path d="M55.29,45.42l.11.18a1,1,0,0,0,1.37.08l8.89-5.48c.53-.33.77-.89.55-1.26l-.11-.18a1,1,0,0,0-1.37-.08l-8.89,5.48C55.31,44.48,55.06,45,55.29,45.42Z" style="fill:#b17f4a"/><path d="M64.56,58.39l-.16-.25a1,1,0,0,1,.21-1.45L72,52.14a1,1,0,0,1,1.39.47l.16.25a1,1,0,0,1-.21,1.45,24.16,24.16,0,0,1-7.38,4.55A1,1,0,0,1,64.56,58.39Z" style="fill:#936037"/><path d="M53.72,40.82l.16.25a1,1,0,0,0,1.39.47L62.65,37a1,1,0,0,0,.21-1.45l-.16-.25a1,1,0,0,0-1.39-.47,24.16,24.16,0,0,0-7.38,4.55A1,1,0,0,0,53.72,40.82Z" style="fill:#936037"/><path d="M63.31,57.86v0a1.3,1.3,0,0,0,1.8.22L73,53.23a1.3,1.3,0,0,0,.61-1.71v0a1.3,1.3,0,0,0-1.8-.22l-7.9,4.87A1.3,1.3,0,0,0,63.31,57.86Z" style="fill:#b17f4a"/><path d="M53.64,42.18v0a1.3,1.3,0,0,1,.61-1.71l7.9-4.87a1.3,1.3,0,0,1,1.8.22v0a1.3,1.3,0,0,1-.61,1.71l-7.9,4.87A1.3,1.3,0,0,1,53.64,42.18Z" style="fill:#b17f4a"/><path d="M56.64,52.9a1,1,0,0,0,1.39.33h0a1,1,0,0,0,.33-1.39L56.81,49.3A1,1,0,0,0,55.42,49h0a1,1,0,0,0-.33,1.39Z" style="fill:#936037"/><path d="M55.2,53.79c.29.47.77.71,1.06.53h0c.29-.18.29-.71,0-1.18l-1.56-2.54c-.29-.47-.77-.71-1.06-.53h0c-.29.18-.29.71,0,1.18Z" style="fill:#936037"/><path d="M44.79,60.2c.29.47.77.71,1.06.53h0c.29-.18.29-.71,0-1.18L44.3,57c-.29-.47-.77-.71-1.06-.53h0c-.29.18-.29.71,0,1.18Z" style="fill:#936037"/></svg>