<svg id="Calque_1" data-name="Calque 1" xmlns="http://www.w3.org/2000/svg" xmlns:xlink="http://www.w3.org/1999/xlink" viewBox="0 0 83 79"><defs><linearGradient id="Dégradé_sans_nom" x1="65.54" y1="52.5" x2="57.18" y2="25.62" gradientTransform="matrix(1, 0, 0, -1, 0, 92.11)" gradientUnits="userSpaceOnUse"><stop offset="0" stop-color="#0088cf"/><stop offset="1" stop-color="#133b65"/></linearGradient><linearGradient id="Dégradé_sans_nom_2" x1="51.55" y1="56.85" x2="43.19" y2="29.97" xlink:href="#Dégradé_sans_nom"/><linearGradient id="Dégradé_sans_nom_3" x1="81.49" y1="47.54" x2="73.13" y2="20.66" xlink:href="#Dégradé_sans_nom"/><linearGradient id="Dégradé_sans_nom_4" x1="67.6" y1="51.86" x2="59.24" y2="24.98" xlink:href="#Dégradé_sans_nom"/><linearGradient id="Dégradé_sans_nom_5" x1="65.47" y1="52.52" x2="57.11" y2="25.64" xlink:href="#Dégradé_sans_nom"/><linearGradient id="Dégradé_sans_nom_6" x1="73.7" y1="49.96" x2="65.34" y2="23.08" xlink:href="#Dégradé_sans_nom"/><linearGradient id="Dégradé_sans_nom_7" x1="52" y1="56.71" x2="43.64" y2="29.83" xlink:href="#Dégradé_sans_nom"/><linearGradient id="Dégradé_sans_nom_8" x1="67.97" y1="51.74" x2="59.6" y2="24.86" xlink:href="#Dégradé_sans_nom"/><linearGradient id="Dégradé_sans_nom_9" x1="65.48" y1="52.51" x2="57.12" y2="25.63" xlink:href="#Dégradé_sans_nom"/><linearGradient id="Dégradé_sans_nom_10" x1="70.1" y1="51.08" x2="61.73" y2="24.2" xlink:href="#Dégradé_sans_nom"/><linearGradient id="Dégradé_sans_nom_11" x1="76.18" y1="49.19" x2="67.81" y2="22.31" xlink:href="#Dégradé_sans_nom"/><linearGradient id="Dégradé_sans_nom_12" x1="49.66" y1="57.44" x2="41.3" y2="30.56" xlink:href="#Dégradé_sans_nom"/><linearGradient id="Dégradé_sans_nom_13" x1="54.49" y1="55.93" x2="46.13" y2="29.06" xlink:href="#Dégradé_sans_nom"/><linearGradient id="Dégradé_sans_nom_14" x1="63" y1="53.28" x2="54.64" y2="26.41" xlink:href="#Dégradé_sans_nom"/><linearGradient id="Dégradé_sans_nom_15" x1="56.99" y1="55.16" x2="48.62" y2="28.28" xlink:href="#Dégradé_sans_nom"/><linearGradient id="Dégradé_sans_nom_16" x1="55.35" y1="55.67" x2="46.99" y2="28.79" xlink:href="#Dégradé_sans_nom"/><linearGradient id="Dégradé_sans_nom_17" x1="57.83" y1="54.9" x2="49.47" y2="28.02" xlink:href="#Dégradé_sans_nom"/><linearGradient id="Dégradé_sans_nom_18" x1="79.46" y1="48.16" x2="71.1" y2="21.28" xlink:href="#Dégradé_sans_nom"/><linearGradient id="Dégradé_sans_nom_19" x1="62.99" y1="53.29" x2="54.63" y2="26.41" xlink:href="#Dégradé_sans_nom"/><linearGradient id="Dégradé_sans_nom_20" x1="51.77" y1="56.78" x2="43.41" y2="29.9" xlink:href="#Dégradé_sans_nom"/><linearGradient id="Dégradé_sans_nom_21" x1="81.23" y1="47.61" x2="72.87" y2="20.74" xlink:href="#Dégradé_sans_nom"/><linearGradient id="Dégradé_sans_nom_22" x1="65.12" y1="52.63" x2="56.76" y2="25.75" xlink:href="#Dégradé_sans_nom"/><linearGradient id="Dégradé_sans_nom_23" x1="75.29" y1="49.46" x2="66.93" y2="22.58" xlink:href="#Dégradé_sans_nom"/><linearGradient id="Dégradé_sans_nom_24" x1="65.1" y1="52.63" x2="56.74" y2="25.75" xlink:href="#Dégradé_sans_nom"/><linearGradient id="Dégradé_sans_nom_25" x1="78.4" y1="48.5" x2="70.04" y2="21.62" xlink:href="#Dégradé_sans_nom"/><linearGradient id="Dégradé_sans_nom_26" x1="72.8" y1="50.24" x2="64.44" y2="23.36" xlink:href="#Dégradé_sans_nom"/><linearGradient id="Dégradé_sans_nom_27" x1="67.62" y1="51.85" x2="59.26" y2="24.97" xlink:href="#Dégradé_sans_nom"/><linearGradient id="Dégradé_sans_nom_28" x1="50.9" y1="57.05" x2="42.53" y2="30.18" xlink:href="#Dégradé_sans_nom"/><linearGradient id="Dégradé_sans_nom_29" x1="52.97" y1="56.41" x2="44.61" y2="29.53" xlink:href="#Dégradé_sans_nom"/><linearGradient id="Dégradé_sans_nom_30" x1="79.18" y1="48.25" x2="70.82" y2="21.37" xlink:href="#Dégradé_sans_nom"/><linearGradient id="Dégradé_sans_nom_31" x1="80.08" y1="47.98" x2="71.71" y2="21.1" xlink:href="#Dégradé_sans_nom"/><linearGradient id="Dégradé_sans_nom_32" x1="62.63" y1="53.4" x2="54.26" y2="26.52" xlink:href="#Dégradé_sans_nom"/><linearGradient id="Dégradé_sans_nom_33" x1="62.65" y1="53.4" x2="54.28" y2="26.52" xlink:href="#Dégradé_sans_nom"/><linearGradient id="Dégradé_sans_nom_34" x1="75.27" y1="49.47" x2="66.91" y2="22.59" xlink:href="#Dégradé_sans_nom"/><linearGradient id="Dégradé_sans_nom_35" x1="65.14" y1="52.62" x2="56.78" y2="25.74" xlink:href="#Dégradé_sans_nom"/><linearGradient id="Dégradé_sans_nom_36" x1="60.15" y1="54.17" x2="51.79" y2="27.3" xlink:href="#Dégradé_sans_nom"/></defs><title>policy</title><rect x="12.55" y="12.29" width="38.63" height="56.68" transform="translate(-8.55 8.49) rotate(-13.4)" style="fill:#ebebeb"/><rect x="9.94" y="16.72" width="22.52" height="3.68" transform="translate(-3.72 5.42) rotate(-13.4)" style="fill:#d2d2d2"/><rect x="11.1" y="21.82" width="33" height="2.01" transform="translate(-4.54 7.02) rotate(-13.4)" style="fill:#d2d2d2"/><rect x="12.15" y="26.25" width="33" height="2.01" transform="translate(-5.54 7.38) rotate(-13.4)" style="fill:#d2d2d2"/><rect x="13.21" y="30.67" width="33" height="2.01" transform="translate(-6.53 7.75) rotate(-13.4)" style="fill:#d2d2d2"/><rect x="14.26" y="35.1" width="33" height="2.01" transform="translate(-7.53 8.11) rotate(-13.4)" style="fill:#d2d2d2"/><rect x="15.31" y="39.52" width="32.99" height="2.01" transform="translate(-8.52 8.47) rotate(-13.4)" style="fill:#d2d2d2"/><rect x="16.55" y="44.72" width="33" height="2.01" transform="translate(-9.7 8.9) rotate(-13.4)" style="fill:#d2d2d2"/><rect x="17.61" y="49.15" width="33" height="2.01" transform="translate(-10.69 9.27) rotate(-13.4)" style="fill:#d2d2d2"/><rect x="18.66" y="53.57" width="33" height="2.01" transform="translate(-11.69 9.63) rotate(-13.4)" style="fill:#d2d2d2"/><rect x="19.72" y="58" width="33" height="2.01" transform="translate(-12.69 10) rotate(-13.4)" style="fill:#d2d2d2"/><rect x="20.77" y="62.42" width="33" height="2.01" transform="translate(-13.68 10.36) rotate(-13.4)" style="fill:#d2d2d2"/><rect x="19.83" y="16.5" width="38.63" height="56.68" style="fill:#f0f0f0"/><rect x="22.61" y="48.39" width="33" height="2.01" style="fill:#d2d2d2"/><rect x="22.61" y="52.94" width="33" height="2.01" style="fill:#d2d2d2"/><rect x="22.61" y="19.07" width="22.52" height="3.68" style="fill:#d2d2d2"/><rect x="22.61" y="25.53" width="33" height="2.01" style="fill:#d2d2d2"/><rect x="22.61" y="30.08" width="33" height="2.01" style="fill:#d2d2d2"/><rect x="22.61" y="34.63" width="33" height="2.01" style="fill:#d2d2d2"/><rect x="22.61" y="39.18" width="33" height="2.01" style="fill:#d2d2d2"/><rect x="22.61" y="43.73" width="33" height="2.01" style="fill:#d2d2d2"/><path d="M28.1,67.49a4.67,4.67,0,1,1,4.67-4.67A4.68,4.68,0,0,1,28.1,67.49Zm0-8.6A3.93,3.93,0,1,0,32,62.82,3.93,3.93,0,0,0,28.1,58.89Z" style="fill:#004664;opacity:0.5"/><circle cx="28.1" cy="62.82" r="3.23" style="fill:#004664;opacity:0.5"/><g id="Calque_2" data-name="Calque 2"><g id="Calque_1-2" data-name="Calque 1-2"><path d="M70.72,41.77c-1.71-.66-3.77-1.33-6-1.94-1.69-.46-3.31-.84-4.78-1.12-4.07-.78-7-.88-7.24-.11-.09.34.35.8,1.2,1.32a42.19,42.19,0,0,0,9.8,3.72c4.82,1.31,9.08,1.94,11,1.71.6-.08,1-.23,1-.49C75.89,44.18,73.89,43,70.72,41.77Z" style="fill:none"/><path d="M60.4,74.45h.38l-.6-.19Z" style="fill:#fff"/><path d="M78.72,45.27c.61-2.08-5.42-5.53-13.48-7.73s-15.08-2.28-15.7-.2c-.24.84.59,1.89,2.2,3l-.18.27-.36.47h0l-.1.13L53.27,43l-3.08-.92-.14.12-.54.34,1,.8L53.28,43l2.16,1.79,2.17,1.83,2.17,1.83-5-1.5,2.17,1.84-5-1.5L54.1,49.2l-5-1.5,2.17,1.83-5-1.5,2.83-.33,2.82-.33-5-1.5,2.88-.34,2.82-.33,2.82-.36-5-1.5,2.16,1.83-4.75-1.4-.07.07,2,1.71-3-.9c-.21.18-.42.36-.62.56l.8.67,2.14,1.81L45,46.44a11,11,0,0,0-1.1,1.84A16.8,16.8,0,0,0,43,50.49a18.08,18.08,0,0,0-.88,4.26v.88l.9-.1h0l2.82-.33L48,57l2.17,1.8,2.17,1.83L54.5,62.5l-5-1.5,2.17,1.84-5-1.5,2.17,1.83-5-1.5L46,63.5l-2.69-.81a17.86,17.86,0,0,0,3.8,6q.35.36.72.7H48l2.2,1.85h0L53,70.91l-5-1.5,2.82-.33,2.82-.33,2.82-.33,2.17,1.83,2.17,1.83L63,73.91l-5-1.5,2.17,1.83-5-1.5L56.69,74a17.39,17.39,0,0,0,2.28.34h0l1.15-.14,2.82-.33.32.27a17.59,17.59,0,0,0,6.26-2.23c.52-.31,1-.63,1.51-1l-3.27-1,2.81-.33L73,69.34l.14-.13-4.66-1.37,2.81-.33-5-1.5,2.19,1.83,2.17,1.83-5-1.5,2.83-.33-5-1.5L66.28,66l-5-1.5,2.82-.34,2.84-.33,2.82-.33,2.82-.33L74.74,65h0l1.07.91A23.41,23.41,0,0,0,77,63.86a14.27,14.27,0,0,0,.9-2.35l.07-.23a16.65,16.65,0,0,0,.67-4.82l-4.48-1.35,2.16,1.83-5-1.5,2.82-.33-5-1.5L72,53.28l-5-1.5,2.82-.33-5-1.5,2.82-.33,2.82-.33L73.24,49l2.17,1.83,2.16,1.83h.2l0-.15-.27-.7h0l-.14-.36-1.88-.57L77,50.66c-.1-.23-.21-.45-.29-.62l-3.42-1,2.83-.41a6,6,0,0,1-.17-.71,8,8,0,0,1-.14-1v-.23C77.43,46.49,78.49,46,78.72,45.27ZM65.44,56l2.17,1.88,2.17,1.83-5-1.5L66.95,60l-5-1.5,2.15,1.78-5-1.5,2.17,1.83-5-1.5,2.83-.33-5-1.5,2.82-.33-5-1.5,2.82-.33-5-1.5,2.82-.33L55.38,53l2.82-.33,2.9-.34,2.17,1.83Zm9.23-10.61c-1.91.23-6.17-.4-11-1.71a42.19,42.19,0,0,1-9.8-3.72c-.85-.52-1.29-1-1.2-1.32.21-.77,3.17-.67,7.24.11,1.47.28,3.09.66,4.78,1.12a62.75,62.75,0,0,1,6,1.94c3.18,1.22,5.17,2.41,5,3.1C75.64,45.12,75.28,45.28,74.67,45.35Z" style="fill:url(#Dégradé_sans_nom)"/><path d="M42.17,57.65a.26.26,0,0,0,0,.08h.18Z" style="fill:#052550"/><path d="M43.87,61.69h0l-1-.29.12.4.86-.1Z" style="fill:url(#Dégradé_sans_nom_2)"/><path d="M74.63,67.63v-.06l.13-.18-.66-.21Z" style="fill:url(#Dégradé_sans_nom_3)"/><polygon points="62.62 56.29 65.44 55.96 60.45 54.45 62.62 56.29" style="fill:url(#Dégradé_sans_nom_4)"/><polygon points="58.66 70.26 53.67 68.75 55.84 70.59 58.66 70.26" style="fill:url(#Dégradé_sans_nom_5)"/><polygon points="64.12 64.17 66.29 66 69.11 65.67 64.12 64.17" style="fill:url(#Dégradé_sans_nom_6)"/><polygon points="45.17 57.37 45.17 57.37 47.99 57.04 43.01 55.54 45.17 57.37" style="fill:url(#Dégradé_sans_nom_7)"/><polygon points="58 72.42 60.82 72.09 55.84 70.59 58 72.42" style="fill:url(#Dégradé_sans_nom_8)"/><polygon points="55.19 72.74 55.19 72.75 58 72.42 53.02 70.91 55.18 72.75 55.19 72.74" style="fill:url(#Dégradé_sans_nom_9)"/><polygon points="64.79 58.12 67.61 57.79 62.62 56.29 64.79 58.12" style="fill:url(#Dégradé_sans_nom_10)"/><polygon points="71.93 65.34 66.94 63.84 69.11 65.67 71.93 65.34" style="fill:url(#Dégradé_sans_nom_11)"/><path d="M45.84,45.52q-.27.26-.51.54L47,45.84Z" style="fill:url(#Dégradé_sans_nom_12)"/><polygon points="47.34 59.2 50.16 58.87 45.17 57.37 47.34 59.2" style="fill:url(#Dégradé_sans_nom_13)"/><path d="M50.2,71.24l.18.15A17.61,17.61,0,0,0,53.26,73h0l1.91-.23Z" style="fill:url(#Dégradé_sans_nom_14)"/><polygon points="49.5 61.04 52.32 60.71 47.34 59.2 49.5 61.04" style="fill:url(#Dégradé_sans_nom_15)"/><polygon points="51.97 47.37 54.78 47.04 49.8 45.53 51.97 47.37" style="fill:url(#Dégradé_sans_nom_16)"/><polygon points="54.78 47.04 57.6 46.71 52.62 45.21 54.78 47.04" style="fill:url(#Dégradé_sans_nom_17)"/><path d="M71.66,70.56a6,6,0,0,0,.51-.42l-1.56-.47Z" style="fill:url(#Dégradé_sans_nom_18)"/><polygon points="50.85 69.08 53.02 70.91 55.84 70.59 50.85 69.08" style="fill:url(#Dégradé_sans_nom_19)"/><path d="M50.45,43.37h0L49,42.93c-.29.2-.63.45-1,.73Z" style="fill:url(#Dégradé_sans_nom_20)"/><path d="M78.65,56.19a6,6,0,0,0-.07-.93L77,54.78Z" style="fill:url(#Dégradé_sans_nom_21)"/><polygon points="59.8 56.62 62.62 56.29 57.64 54.78 59.8 56.62" style="fill:url(#Dégradé_sans_nom_22)"/><polygon points="69.83 51.45 72 53.28 74.82 52.95 69.83 51.45" style="fill:url(#Dégradé_sans_nom_23)"/><polygon points="63.27 54.13 58.29 52.62 60.45 54.45 63.27 54.13" style="fill:url(#Dégradé_sans_nom_24)"/><path d="M77.63,52.62l-5-1.5,2.17,1.83L77,54.78l-5-1.5,2.17,1.83h0l2.81-.33,1.46-.17h0L78.26,54,74.8,53Z" style="fill:url(#Dégradé_sans_nom_25)"/><polygon points="67.66 49.61 69.83 51.45 72.65 51.12 67.66 49.61" style="fill:url(#Dégradé_sans_nom_26)"/><polygon points="61.97 58.45 64.79 58.12 59.8 56.62 61.97 58.45" style="fill:url(#Dégradé_sans_nom_27)"/><path d="M42.32,58.84a2.94,2.94,0,0,0,0,.34l.1.56,2-.24Z" style="fill:url(#Dégradé_sans_nom_28)"/><path d="M46.68,61.36,49.5,61l-5-1.5,2.82-.33-5-1.5,2.81-.33-3-.93a8,8,0,0,0,.05,1.09l.19.16,2.17,1.83,2.17,1.83-4.14-1.24.14.58,1.18,1Z" style="fill:url(#Dégradé_sans_nom_29)"/><path d="M74.74,65l-5-1.5,2.17,1.83,2.19,1.84-5-1.5,2.16,1.83h0l2.84-.33,1-.11a7.84,7.84,0,0,0,.45-.65l-3.57-1.08Z" style="fill:url(#Dégradé_sans_nom_30)"/><path d="M73.25,69.18c.26-.25.51-.5.75-.77l0-.06-2.77-.84Z" style="fill:url(#Dégradé_sans_nom_31)"/><polygon points="60.45 54.45 55.47 52.95 57.64 54.78 60.45 54.45" style="fill:url(#Dégradé_sans_nom_32)"/><polygon points="54.82 55.11 56.98 56.95 59.8 56.62 54.82 55.11" style="fill:url(#Dégradé_sans_nom_33)"/><polygon points="75.47 50.79 70.48 49.28 72.65 51.12 75.47 50.79" style="fill:url(#Dégradé_sans_nom_34)"/><polygon points="59.15 58.78 61.97 58.45 56.98 56.95 59.15 58.78" style="fill:url(#Dégradé_sans_nom_35)"/><polygon points="52.65 53.28 54.82 55.11 57.64 54.78 52.65 53.28" style="fill:url(#Dégradé_sans_nom_36)"/><polygon points="61.11 52.29 58.29 52.62 63.27 54.13 61.11 52.29" style="fill:#fff"/><polygon points="61.32 60.61 59.15 58.78 56.33 59.11 61.32 60.61" style="fill:#fff"/><polygon points="58.29 52.62 55.47 52.95 60.45 54.45 58.29 52.62" style="fill:#fff"/><polygon points="60.45 54.45 65.44 55.96 63.27 54.13 60.45 54.45" style="fill:#fff"/><polygon points="54.16 57.27 59.15 58.78 56.98 56.95 54.16 57.27" style="fill:#fff"/><polygon points="64.14 60.28 61.97 58.45 59.15 58.78 64.14 60.28" style="fill:#fff"/><polygon points="55.47 52.95 52.65 53.28 57.64 54.78 55.47 52.95" style="fill:#fff"/><polygon points="62.62 56.29 60.45 54.45 57.64 54.78 62.62 56.29" style="fill:#fff"/><polygon points="67.61 57.79 65.44 55.96 62.62 56.29 67.61 57.79" style="fill:#fff"/><polygon points="52 55.44 56.98 56.95 54.82 55.11 52 55.44" style="fill:#fff"/><polygon points="56.98 56.95 61.97 58.45 59.8 56.62 56.98 56.95" style="fill:#fff"/><polygon points="66.96 59.95 64.79 58.12 61.97 58.45 66.96 59.95" style="fill:#fff"/><polygon points="49.83 53.61 54.82 55.11 52.65 53.28 49.83 53.61" style="fill:#fff"/><polygon points="57.64 54.78 54.82 55.11 59.8 56.62 57.64 54.78" style="fill:#fff"/><polygon points="59.8 56.62 64.79 58.12 62.62 56.29 59.8 56.62" style="fill:#fff"/><polygon points="69.77 59.63 67.61 57.79 64.79 58.12 69.77 59.63" style="fill:#fff"/><path d="M76.73,50c-.24-.49-.4-.77-.4-.77a4.63,4.63,0,0,1-.21-.59l-2.82.33Z" style="fill:#fff"/><polygon points="73.3 48.96 70.48 49.28 75.47 50.79 73.3 48.96" style="fill:#fff"/><path d="M77.35,51.36c-.11-.27-.23-.52-.33-.75l-1.55.18Z" style="fill:#fff"/><polygon points="69.18 53.61 74.16 55.11 72 53.28 69.18 53.61" style="fill:#fff"/><path d="M74.17,55.11h0l-2.82.33,5,1.5-2.16-1.83,4.48,1.35v-.15a.67.67,0,0,0,0-.12h0L77,54.78Z" style="fill:#fff"/><polygon points="70.48 49.28 67.66 49.61 72.65 51.12 70.48 49.28" style="fill:#fff"/><path d="M77.63,52.62l-2.16-1.83-2.82.33,5,1.5-2.81.33,3.46,1v-.16c-.06-.21-.13-.42-.2-.63l-.1-.31a2.41,2.41,0,0,0-.1-.3Z" style="fill:#fff"/><polygon points="67.01 51.78 72 53.28 69.83 51.45 67.01 51.78" style="fill:#fff"/><polygon points="74.82 52.95 72 53.28 76.98 54.78 74.82 52.95" style="fill:#fff"/><path d="M78.58,55.27a4.41,4.41,0,0,0-.14-.65L77,54.79Z" style="fill:#fff"/><polygon points="64.84 49.94 69.83 51.45 67.66 49.61 64.84 49.94" style="fill:#fff"/><polygon points="72.65 51.12 69.83 51.45 74.82 52.95 72.65 51.12" style="fill:#fff"/><path d="M51.1,41.21h0L51,41.3a6.25,6.25,0,0,1-.83.82l3.08.93Z" style="fill:#fff"/><polygon points="51.31 49.53 49.15 47.7 46.33 48.02 51.31 49.53" style="fill:#fff"/><path d="M47,45.84,45.33,46h0L45,46.4l4.08,1.29Z" style="fill:#fff"/><polygon points="54.13 49.2 51.97 47.37 49.15 47.7 54.13 49.2" style="fill:#fff"/><path d="M50.45,43.37l5,1.5L53.27,43l-2.82.33-.95-.8-.52.36,1.47.44h0L48,43.66h-.06l-.08.06,4.76,1.43Z" style="fill:#fff"/><polygon points="57.6 46.71 55.44 44.88 52.62 45.21 57.6 46.71" style="fill:#fff"/><path d="M46.18,45.19a3.51,3.51,0,0,0-.34.33l1.14.32Z" style="fill:#fff"/><polygon points="46.98 45.86 51.97 47.37 49.8 45.53 46.98 45.86" style="fill:#fff"/><polygon points="56.95 48.87 54.78 47.04 51.97 47.37 56.95 48.87" style="fill:#fff"/><path d="M47.78,43.84l-.6.49-.38.32,3,.9Z" style="fill:#fff"/><polygon points="49.8 45.53 54.78 47.04 52.62 45.21 49.8 45.53" style="fill:#fff"/><polygon points="59.77 48.54 57.6 46.71 54.78 47.04 59.77 48.54" style="fill:#fff"/><path d="M67.81,70l3.27,1,.58-.43-1-.88Z" style="fill:#fff"/><polygon points="69.76 63.51 66.94 63.84 71.93 65.34 69.76 63.51" style="fill:#fff"/><path d="M74.75,65l-2.16-1.83-2.82.33,5,1.5L72,65.34l3.56,1.08a4.81,4.81,0,0,0,.27-.41l0-.09L74.77,65Z" style="fill:#fff"/><polygon points="70.62 69.67 68.46 67.84 65.64 68.16 70.62 69.67" style="fill:#fff"/><path d="M72.18,70.14c.29-.23.58-.49.85-.75l-2.41.28Z" style="fill:#fff"/><polygon points="66.94 63.84 64.12 64.17 69.11 65.67 66.94 63.84" style="fill:#fff"/><polygon points="74.1 67.18 71.93 65.34 69.11 65.67 74.1 67.18" style="fill:#fff"/><path d="M74.81,67.39c.08-.11.16-.21.23-.32l-1,.11Z" style="fill:#fff"/><polygon points="68.46 67.84 66.29 66 63.47 66.33 68.46 67.84" style="fill:#fff"/><path d="M71.27,67.5,69.1,65.67,66.28,66l5,1.5-2.82.34,4.71,1.43.08-.08-2-1.67Z" style="fill:#fff"/><polygon points="61.3 64.5 66.29 66 64.12 64.17 61.3 64.5" style="fill:#fff"/><path d="M71.28,67.5l2.77.84v0c.19-.21.36-.43.54-.66l-.49-.45Z" style="fill:#fff"/><polygon points="56.49 68.42 53.67 68.75 58.66 70.26 56.49 68.42" style="fill:#fff"/><polygon points="53.67 68.75 50.85 69.08 55.84 70.59 53.67 68.75" style="fill:#fff"/><polygon points="60.82 72.09 58.66 70.26 55.84 70.59 60.82 72.09" style="fill:#fff"/><polygon points="48.03 69.41 53.02 70.91 50.85 69.08 48.03 69.41" style="fill:#fff"/><polygon points="55.84 70.59 53.02 70.91 58 72.42 55.84 70.59" style="fill:#fff"/><polygon points="62.99 73.92 60.82 72.09 58 72.42 62.99 73.92" style="fill:#fff"/><path d="M59,74.39H60.4l-.23-.19Z" style="fill:#fff"/><path d="M48,69.41h-.16c.46.43.94.82,1.44,1.21.26.2.51.39.78.57h.11Z" style="fill:#fff"/><path d="M60.17,74.25,58,72.42l-2.81.33h0L53,70.92l-2.83.32h0l.22.14-.22-.14,5,1.5L53.29,73a18.47,18.47,0,0,0,2.5.86c.32.08.64.16,1,.22l-1.53-1.3Z" style="fill:#fff"/><path d="M60.17,74.25l.6.19h0a17.8,17.8,0,0,0,2-.16l.54-.08L63,73.93Z" style="fill:#fff"/><path d="M43.87,61.69l5,1.5-2.19-1.83-2.82.33-1.18-1c.06.23.13.47.2.7l1,.29h0l-.87.16c.1.31.21.62.34.92l2.69.81Z" style="fill:#fff"/><polygon points="50.16 58.87 47.99 57.04 45.17 57.37 50.16 58.87" style="fill:#fff"/><path d="M42.16,57.54a.55.55,0,0,0,0,.11l.19,0Z" style="fill:#fff"/><path d="M42.35,57.7l5,1.5-2.18-1.83h0L43,55.54,48,57l-2.19-1.83L43,55.54h0l-.9.1v.81l3.06.92Z" style="fill:#fff"/><polygon points="52.32 60.71 50.16 58.87 47.34 59.2 52.32 60.71" style="fill:#fff"/><path d="M44.52,59.53l-2,.24a1.4,1.4,0,0,0,.08.34l4.14,1.25Z" style="fill:#fff"/><polygon points="51.67 62.87 49.5 61.04 46.68 61.36 51.67 62.87" style="fill:#fff"/><path d="M42.35,57.7h-.18a7.52,7.52,0,0,0,.14,1.15l2.2.67Z" style="fill:#fff"/><polygon points="44.52 59.53 49.5 61.04 47.34 59.2 44.52 59.53" style="fill:#fff"/><polygon points="54.49 62.54 52.32 60.71 49.5 61.04 54.49 62.54" style="fill:#fff"/></g><ellipse cx="64.66" cy="41.42" rx="2.47" ry="12.3" transform="translate(8.84 94.15) rotate(-76.02)" style="fill:#fff"/></g></svg>