<svg id="Calque_1" data-name="Calque 1" xmlns="http://www.w3.org/2000/svg" xmlns:xlink="http://www.w3.org/1999/xlink" viewBox="0 0 27.25 28.09"><defs><style>.cls-1{fill:none;}.cls-2{clip-path:url(#clip-path);}.cls-3{fill:url(#Dégradé_sans_nom);}.cls-4{fill:#fff;}.cls-5{fill:#7db141;}.cls-5,.cls-6{fill-rule:evenodd;}.cls-6{fill:#eea83c;}</style><clipPath id="clip-path"><path class="cls-1" d="M.55,16.29a11.84,11.84,0,0,1,7-12.1h.1l.2-.2a.77.77,0,0,0,.1-.3c-1.1-.8-1.7-1.5-1.5-2.1.5-1.4,5.3-1.2,10.9.4s9.7,4,9.2,5.4c-.2.5-.9.8-2,.9h0v.1a2.25,2.25,0,0,0,.1.7c0,.2.1.3.1.5a.31.31,0,0,0,.1.2c2.1,4.2,1.8,8.9-1.8,13.3-4.6,5.6-14.4,6.1-19.6-.1A12.25,12.25,0,0,1,.55,16.29Z"/></clipPath><linearGradient id="Dégradé_sans_nom" x1="-122.85" y1="704.64" x2="-95.2" y2="704.64" gradientTransform="matrix(0, 1, 1, 0, -691.19, 123.19)" gradientUnits="userSpaceOnUse"><stop offset="0" stop-color="#0087ce"/><stop offset="0.19" stop-color="#066fac"/><stop offset="0.41" stop-color="#0c588d"/><stop offset="0.62" stop-color="#104877"/><stop offset="0.82" stop-color="#123e6a"/><stop offset="1" stop-color="#133b65"/></linearGradient></defs><title>swap-icon</title><g class="cls-2"><rect class="cls-3" x="-0.6" y="0.34" width="28.1" height="27.65"/></g><g class="cls-2"><path class="cls-4" d="M6.82,3.81l1.7,1.4-2.4-.7A4.62,4.62,0,0,0,6.82,3.81Zm.2,6.4-1.7-1.4-2.2.3L7,10.21Zm-3.4-2.8-1.3.1h0c-.1.1-.2.2-.2.3l3.2,1ZM9.22,10,7.52,8.6l-2.2.3ZM6.32,5.5l3.9,1.2L8.52,5.3l-2.2.2-.7-.6c-.1.1-.3.2-.4.3l1.1.3h0l-1.9.2h-.1L8,6.81,6.3,5.51ZM11.93,8l-1.7-1.4L8,6.91ZM3,6.81l-.3.3.9.3Zm.6.6,3.9,1.2L5.8,7.11Zm7.8,2.3L9.7,8.31l-2.2.3ZM4.2,5.81c-.1.1-.3.2-.5.4l-.3.3,2.4.6Zm1.6,1.3,3.9,1.2L8,6.91Zm7.8,2.3L11.93,8l-2.2.3,3.9,1.1Z"/></g><g class="cls-2"><path class="cls-4" d="M25.39,10.52l-2.5-.7,2.1-.2c0,.1.1.3.1.4S25.29,10.22,25.39,10.52ZM23,9.83l-2.1.2,3.6,1.1Zm2.9,1.7a1.69,1.69,0,0,1-.2-.5l-1.1.1ZM20,13.23l3.6,1.1L22,13l-2,.2Zm3.6,1.1h0l-2.1.2,3.6,1.1-1.5-1.3,3.1,1v-.1c.2,0,.2-.1.3-.1h0l-1.3-1ZM20.89,10l-2.1.2,3.6,1.1Zm5.2,2.4-1.6-1.3-2.1.2,3.7,1.1-2,.2,2.5.8v-.1c0-.2-.1-.3-.1-.5s-.1-.1-.1-.2,0-.1-.1-.2Zm-7.7-.6L22,12.9l-1.6-1.3Zm5.7.9-2.1.2,3.6,1.1Zm2.7,1.7c0-.2-.1-.3-.1-.5l-1.1.1Zm-10-3.9,3.6,1.1-1.6-1.3Zm5.7.8-2.1.3L24,12.7Z"/></g><g class="cls-2"><path class="cls-4" d="M14.05,12.19l1.5,1.3L12,12.39Zm.2,6-1.5-1.3-2,.2Zm-2.2-5.7-2,.2,3.6,1.1Zm1.6,1.3,3.6,1.1-1.5-1.3Zm-4.5,2,3.6,1.1-1.5-1.3Zm7.1,2.1-1.5-1.3-2,.2Zm-6.2-5.2-2,.2,3.6,1.1Zm5.1,2.4-1.5-1.3-2,.2Zm3.6,1.1-1.5-1.3-2,.2Zm-11.1-1.7,3.6,1.1-1.5-1.3Zm3.5,1.1,3.6,1.1-1.5-1.3Zm7.1,2.1-1.5-1.3-2,.2Zm-12.2-4.5,3.6,1.1L8.15,13,6,13.2Zm5.6.8-2,.2,3.6,1.1L11.65,14Zm1.5,1.3,3.6,1.1-1.5-1.3Zm7.1,2.2-1.5-1.3-2,.2Z"/></g><g class="cls-2"><path class="cls-4" d="M1.43,19l1.5,1.3L1,19.66a1.42,1.42,0,0,1-.2-.6l.6-.1h0l-.6-.2c0-.2-.1-.3-.1-.5l.7.7,2-.2,1.5,1.3Zm4.5-2-1.5-1.3-2,.2Zm-5.7-.9h0l.2.1Zm.2.1,3.5,1.1L2.43,16h0L.93,14.7l3.5,1-1.5-1.3-2,.2h0l-.6.1v.6l2.1.7Zm7,2.1L5.93,17l-2,.2Zm-5.5-.8-1.4.2c0,.1,0,.2.1.2l2.8.9Zm5,2.3-1.5-1.2-2,.2ZM.43,16.2H.33c0,.3.1.5.1.8l1.6.5Zm1.5,1.3,3.5,1.1-1.5-1.3Zm7,2.1-1.5-1.3-2,.2Z"/></g><g class="cls-2"><path class="cls-4" d="M18.9,24.35l1.9-.2.7.6c-.1.1-.3.2-.4.3ZM20.3,20l-1.9.2,3.4,1Zm3.3,1-1.4-1.3-1.9.2L23.6,21l-1.9.2,2.4.7c.1-.1.1-.2.2-.3v-.1Zm-2.7,3.1L19.4,23l-1.9.2,3.4,1Zm1,.3c.2-.2.4-.3.6-.5l-1.6.2Zm-3.5-4.2-1.9.2,3.4,1Zm4.8,2.2-1.5-1.2-1.9.2Zm.5.2.2-.2-.6.1Zm-4.3.3-1.5-1.2-1.9.1L19.4,23Zm1.9-.3-1.5-1.2-1.9.2,3.4,1-1.9.2,3.2,1,.1-.1Zm-6.8-2,3.4,1-1.5-1.2Zm6.8,2,1.9.6h0c.1-.1.2-.3.4-.4l-.4-.3Z"/></g><g class="cls-2"><path class="cls-4" d="M10.75,23.89l1.5,1.3-3.5-1Zm-2,.3-2,.2,3.5,1Zm5,2.3-1.5-1.3-2,.2Zm-8.9-1.9,3.5,1-1.6-1.2Zm5.4.9-2,.2,3.5,1Zm5,2.3-1.5-1.3-2,.2Zm-2.8.3h1l-.2-.1Zm-7.6-3.5h-.1a7,7,0,0,0,1,.8,2.18,2.18,0,0,1,.5.4h.1Zm8.4,3.4-1.5-1.3-2,.2h0l-1.5-1.2-2,.2h0c.1,0,.1.1.2.1l-.1-.1,3.5,1-1.3.2c.6.2,1.1.4,1.7.6a6.37,6.37,0,0,0,.7.2L9.75,27l3.5,1Zm0,0,.4.1h0A6.6,6.6,0,0,0,15,28a.6.6,0,0,0,.4-.1l-.2-.2-2,.3Z"/></g><path class="cls-4" d="M21.25,4.69c-1.2-.4-2.6-.9-4.1-1.3-1.1-.3-2.3-.6-3.3-.8C11,2.09,9,2,8.95,2.49c-.1.2.2.6.8.9a25.68,25.68,0,0,0,6.7,2.5A23.56,23.56,0,0,0,24,7.09c.4-.1.7-.2.7-.3C24.75,6.39,23.35,5.59,21.25,4.69Z"/><polygon class="cls-4" points="26.97 22.27 25.98 22.27 24.05 25.43 22.81 24.12 22.13 24.59 24.13 27 26.97 22.27"/><path class="cls-4" d="M15.21,24.68h-.12l-.09,0-.13,0h-.32l-.11.06a.24.24,0,0,0-.07.09.3.3,0,0,0,0,.12.2.2,0,0,0,0,.13.37.37,0,0,0,.12.09l.17.07.19.06.19.08a.65.65,0,0,1,.17.11.51.51,0,0,1,.12.17.58.58,0,0,1,0,.24.79.79,0,0,1-.05.29.67.67,0,0,1-.15.23.72.72,0,0,1-.25.16.91.91,0,0,1-.33.06h-.21l-.2-.06L14,26.39l-.15-.12.12-.2h.12l.11.07.15.07a.56.56,0,0,0,.2,0,.41.41,0,0,0,.28-.09.31.31,0,0,0,.1-.25.23.23,0,0,0,0-.15.37.37,0,0,0-.12-.1l-.17-.07-.19-.06-.19-.08a.62.62,0,0,1-.17-.12.52.52,0,0,1-.12-.18.67.67,0,0,1,0-.26.62.62,0,0,1,0-.24.61.61,0,0,1,.14-.21.7.7,0,0,1,.23-.15.85.85,0,0,1,.32-.06,1.06,1.06,0,0,1,.37.06.84.84,0,0,1,.29.18Z"/><path class="cls-4" d="M16.87,25.7v0l0-.11.67-1.26H18V26.6h-.37V24.88l-.69,1.29a.18.18,0,0,1-.06.07h-.24a.18.18,0,0,1-.06-.07L16,24.88v1.66h-.37V24.26H16l.68,1.26Z"/><path class="cls-4" d="M19.83,24.68h-.12l-.09,0-.12,0h-.32l-.11.06a.23.23,0,0,0-.07.09.3.3,0,0,0,0,.12A.2.2,0,0,0,19,25a.37.37,0,0,0,.12.09l.17.07.19.06.19.08a.66.66,0,0,1,.17.11.51.51,0,0,1,.12.17.58.58,0,0,1,0,.24.79.79,0,0,1,0,.29.66.66,0,0,1-.15.23.72.72,0,0,1-.25.16.91.91,0,0,1-.34.06H19l-.2-.06-.18-.09-.15-.12.12-.2h.14l.11.07.15.07a.56.56,0,0,0,.2,0,.41.41,0,0,0,.28-.09.31.31,0,0,0,.1-.25.23.23,0,0,0,0-.15.36.36,0,0,0-.12-.1l-.17-.07-.24,0-.19-.08a.63.63,0,0,1-.17-.12.52.52,0,0,1-.12-.18.67.67,0,0,1,0-.26.62.62,0,0,1,.19-.45.7.7,0,0,1,.23-.15.85.85,0,0,1,.32-.06,1.06,1.06,0,0,1,.37.06.84.84,0,0,1,.29.18Z"/><polygon class="cls-5" points="13.54 26.21 13.54 22.16 21.99 22.16 21.99 20.28 27.25 24.19 21.99 28.09 21.99 26.21 13.54 26.21"/><polygon class="cls-6" points="21.39 21.74 21.39 17.68 12.95 17.68 12.95 15.81 7.68 19.71 12.95 23.61 12.95 21.74 21.39 21.74"/></svg>