<svg id="Calque_1" data-name="Calque 1" xmlns="http://www.w3.org/2000/svg" xmlns:xlink="http://www.w3.org/1999/xlink" viewBox="0 0 27.25 28.09"><defs><clipPath id="clip-path"><path d="M5.55,15.43A7.28,7.28,0,0,1,9.86,8h.06L10,7.86a.48.48,0,0,0,.06-.18c-.68-.49-1-.92-.92-1.29.31-.86,3.26-.74,6.7.25s6,2.46,5.66,3.32c-.12.31-.55.49-1.23.55h0v.06a1.39,1.39,0,0,0,.06.43c0,.12.06.18.06.31a.19.19,0,0,0,.06.12,7.2,7.2,0,0,1-1.11,8.18,8,8,0,0,1-12.05-.06A7.54,7.54,0,0,1,5.55,15.43Z" style="fill:none"/></clipPath><linearGradient id="Dégradé_sans_nom_11" x1="5.43" y1="13.6" x2="22.44" y2="13.6" gradientTransform="translate(27.09 0.19) rotate(90)" gradientUnits="userSpaceOnUse"><stop offset="0" stop-color="#0087ce"/><stop offset="0.19" stop-color="#066fac"/><stop offset="0.41" stop-color="#0c588d"/><stop offset="0.62" stop-color="#104877"/><stop offset="0.82" stop-color="#123e6a"/><stop offset="1" stop-color="#133b65"/></linearGradient></defs><title>tontine-event-icon</title><g style="clip-path:url(#clip-path)"><rect x="4.85" y="5.62" width="17.28" height="17.01" style="fill:url(#Dégradé_sans_nom_11)"/></g><g style="clip-path:url(#clip-path)"><path d="M9.41,7.76l1,.86L9,8.19a2.84,2.84,0,0,0,.43-.43Zm.12,3.94-1-.86L7.14,11l2.4.68ZM7.45,10l-.8.06h0c-.06.06-.12.12-.12.18l2,.62-1-.86Zm3.44,1.6-1-.86-1.35.18,2.4.68ZM9.11,8.8l2.4.74-1-.86L9.11,8.8l-.43-.37c-.06.06-.18.12-.25.18l.68.18h0l-1.17.12H7.88l2.28.68-1-.8Zm3.44,1.54-1-.86-1.35.18,2.4.68ZM7.08,9.6l-.18.18.55.18L7.08,9.6Zm.37.37,2.4.74-1-.92L7.45,10Zm4.8,1.41-1-.86-1.35.18,2.4.68ZM7.81,9c-.06.06-.18.12-.31.25l-.18.18,1.48.37-1-.8Zm1,.8,2.4.74-1-.86L8.8,9.79Zm4.8,1.41-1-.86-1.35.18,2.4.68Z" style="fill:#fff"/></g><g style="clip-path:url(#clip-path)"><path d="M20.83,11.88l-1.54-.43,1.29-.12c0,.06.06.18.06.25s.12.12.18.31Zm-1.48-.43-1.29.12,2.21.68-.92-.8Zm1.78,1a1,1,0,0,1-.12-.31l-.68.06.8.25Zm-3.63,1,2.21.68-1-.8-1.23.12Zm2.21.68h0l-1.29.12,2.21.68-.92-.8,1.91.62v-.06c.12,0,.12-.06.18-.06h0L21,14.1l-1.29.12Zm-1.66-2.64-1.29.12,2.21.68-.92-.8Zm3.2,1.48-1-.8L19,12.38l2.28.68L20,13.18l1.54.49v-.06c0-.12-.06-.18-.06-.31s-.06-.06-.06-.12,0-.06-.06-.12Zm-4.74-.37,2.21.68-1-.8-1.23.12Zm3.51.55-1.29.12L21,14l-.92-.8Zm1.66,1c0-.12-.06-.18-.06-.31L21,14l.74.25Zm-6.15-2.4,2.21.68-1-.8-1.23.12Zm3.51.49-1.29.18,2.21.68L19,12.38Z" style="fill:#fff"/></g><g style="clip-path:url(#clip-path)"><path d="M13.86,12.91l.92.8L12.57,13l1.29-.12ZM14,16.6l-.92-.8-1.23.12L14,16.6Zm-1.35-3.51-1.23.12,2.21.68-1-.8Zm1,.8,2.21.68-.92-.8-1.29.12Zm-2.77,1.23,2.21.68-.92-.8-1.29.12Zm4.37,1.29-.92-.8-1.23.12,2.15.68Zm-3.81-3.2-1.23.12,2.21.68-1-.8Zm3.14,1.48-.92-.8L12.38,14l2.15.68Zm2.21.68-.92-.8-1.23.12,2.15.68Zm-6.83-1,2.21.68-.92-.8-1.29.12Zm2.15.68,2.21.68-.92-.8L12.07,15Zm4.37,1.29-.92-.8-1.23.12,2.15.68Zm-7.5-2.77,2.21.68-.92-.8-1.29.12Zm3.44.49-1.23.12,2.21.68-1-.8Zm.92.8,2.21.68-.92-.8-1.29.12Zm4.37,1.35-.92-.8-1.23.12,2.15.68Z" style="fill:#fff"/></g><g style="clip-path:url(#clip-path)"><path d="M6.1,17.07l.92.8L5.85,17.5a.87.87,0,0,1-.12-.37l.37-.06h0l-.37-.12c0-.12-.06-.18-.06-.31l.43.43,1.23-.12.92.8L6.1,17.07Zm2.77-1.23L7.94,15l-1.23.12,2.15.68Zm-3.51-.55h0l.12.06-.12-.06Zm.12.06L7.63,16l-.92-.8h0l-.92-.8L7.94,15,7,14.24l-1.23.12h0l-.37.06v.37l1.29.43-1.23.12Zm4.31,1.29-.92-.8L7.63,16l2.15.68ZM6.4,16.15l-.86.12c0,.06,0,.12.06.12l1.72.55-.92-.8Zm3.08,1.41-.92-.74-1.23.12,2.15.62Zm-4-2.21H5.42c0,.18.06.31.06.49l1,.31-1-.8Zm.92.8,2.15.68L7.63,16l-1.23.12Zm4.31,1.29-.92-.8-1.23.12,2.15.68Z" style="fill:#fff"/></g><g style="clip-path:url(#clip-path)"><path d="M16.84,20.39,18,20.26l.43.37c-.06.06-.18.12-.25.18l-1.35-.43Zm.86-2.71-1.17.12,2.09.62-.92-.74Zm2,.68-.86-.8-1.17.12,2,.68-1.17.12,1.48.43c.06-.06.06-.12.12-.18v-.06l-.43-.31Zm-1.66,1.91-.92-.74L16,19.65l2.09.62Zm.62.18c.12-.12.25-.18.37-.31l-1,.12.62.18Zm-2.15-2.58L15.36,18l2.09.62-.92-.74Zm3,1.35-.92-.74-1.17.12,2.09.62Zm.31.12.12-.12-.37.06.25.06Zm-2.64.18-.92-.74-1.17.06,2.09.68Zm1.17-.18-.92-.74-1.17.12,2.09.62-1.17.12,2,.62.06-.06-.86-.68Zm-4.18-1.23,2.09.62L15.3,18l-1.17.12Zm4.18,1.23,1.17.37h0c.06-.06.12-.18.25-.25l-.25-.18-1.17.06Z" style="fill:#fff"/></g><g style="clip-path:url(#clip-path)"><path d="M11.83,20.1l.92.8-2.15-.62,1.23-.18Zm-1.23.18-1.23.12,2.15.62-.92-.74Zm3.08,1.41-.92-.8L11.52,21l2.15.68ZM8.2,20.53l2.15.62-1-.74-1.17.12Zm3.32.55-1.23.12,2.15.62-.92-.74ZM14.6,22.5l-.92-.8-1.23.12,2.15.68Zm-1.72.18h.62l-.12-.06-.49.06ZM8.2,20.53H8.14a4.31,4.31,0,0,0,.62.49,1.34,1.34,0,0,1,.31.25h.06l-.92-.74Zm5.17,2.09-.92-.8-1.23.12h0l-.92-.74-1.23.12h0c.06,0,.06.06.12.06l-.06-.06,2.15.62-.8.12,1,.37a3.92,3.92,0,0,0,.43.12L11.21,22l2.15.62Zm0,0,.25.06h0a4.06,4.06,0,0,0,.86-.06.37.37,0,0,0,.25-.06l-.12-.12-1.23.18Z" style="fill:#fff"/></g><path d="M18.29,8.29c-.74-.25-1.6-.55-2.52-.8-.68-.18-1.41-.37-2-.49-1.72-.31-3-.37-3-.06-.06.12.12.37.49.55A15.79,15.79,0,0,0,15.33,9a14.49,14.49,0,0,0,4.61.74c.25-.06.43-.12.43-.18C20.44,9.34,19.58,8.85,18.29,8.29Z" style="fill:#fff"/><path d="M16.11,24.39l-.66.14a1.06,1.06,0,0,0,.38,2.08l.78-.17a1.06,1.06,0,0,0-.51-2.05Z" style="fill:#f04141"/><path d="M23.93,10.23a1.06,1.06,0,0,0,2-.66c-.08-.25-.18-.51-.28-.75a1.06,1.06,0,1,0-2,.78C23.78,9.8,23.86,10,23.93,10.23Z" style="fill:#f04141"/><path d="M19.55,22.88l-.57.35A1.06,1.06,0,1,0,20,25.07l.68-.42a1.06,1.06,0,0,0-1.17-1.76Z" style="fill:#f04141"/><path d="M26.59,13.18a1.06,1.06,0,0,0-2.11.08c0,.22,0,.45,0,.67a1.06,1.06,0,1,0,2.11,0C26.6,13.71,26.6,13.44,26.59,13.18Z" style="fill:#f04141"/><path d="M23.76,20.1a1.06,1.06,0,0,0-1.48.21c-.13.18-.28.36-.42.53A1.06,1.06,0,0,0,22,22.33l.08.06a1.06,1.06,0,0,0,1.41-.18c.17-.2.34-.41.5-.63A1.06,1.06,0,0,0,23.76,20.1Z" style="fill:#f04141"/><path d="M25.31,16.28A1.06,1.06,0,0,0,24,17c-.07.21-.14.43-.22.64a1.06,1.06,0,0,0,2,.75c.09-.25.18-.5.26-.76A1.06,1.06,0,0,0,25.31,16.28Z" style="fill:#f04141"/><path d="M11.5,24.54a10.91,10.91,0,0,1-2.71-.86l0,0-.6-.3h0a11.24,11.24,0,0,1-1.05-.66,11,11,0,0,1,0-18.06l0,0a11,11,0,0,1,12.38-.1l-.83,1.19c-.23.33-.09.57.31.54l3.59-.32a.59.59,0,0,0,.53-.77l-1-3.47c-.11-.39-.38-.44-.61-.1l-.83,1.2a13.05,13.05,0,0,0-9.56-2q-.51.09-1,.21h0A13,13,0,0,0,2.94,5.81l0,.06-.18.25-.28.41,0,.05A13,13,0,0,0,.33,14.26s0,0,0,0c0,.27,0,.53.06.8v.05c0,.27.07.53.11.8A13,13,0,0,0,4.19,23h0a13.32,13.32,0,0,0,1.68,1.41,13,13,0,0,0,5.24,2.19,1.06,1.06,0,0,0,.37-2.08Z" style="fill:#f04141"/><path d="M12.81,5.15A.86.86,0,0,0,12,6v8.52l7.79,4A.85.85,0,0,0,20.53,17l-6.87-3.55V6A.85.85,0,0,0,12.81,5.15Z" style="fill:#fff"/></svg>